<?xml version="1.0" encoding="UTF-8"?>
<svg xmlns="http://www.w3.org/2000/svg" xmlns:xlink="http://www.w3.org/1999/xlink" version="1.2" >
<font id="Chelsy">
<font-face  font-family="Chelsy" units-per-em="1000" ascent="750" descent="-250" font-style="normal" font-weight="400" font-stretch="normal" cap-height="600" x-height="450" underline-position="-75" underline-thickness="50" />
<missing-glyph  horiz-adv-x="201" d="" />
<glyph glyph-name="NULL" d="" />
<glyph glyph-name="nonmarkingreturn" unicode="&#xd;" horiz-adv-x="201" d="" />
<glyph glyph-name="space" unicode="&#x20;" horiz-adv-x="201" d="" />
<glyph glyph-name="dollar" unicode="&#x24;" horiz-adv-x="358" d="M223 86 Q222 69 221 53 Q220 37 219 21 Q218 10 216 6.5 Q214 3 204 0 Q184 -6 165 -3 Q146 0 128 9 Q120 14 118 20.5 Q116 27 116 35 Q117 48 117.5 61 Q118 74 119 87 Q56 109 16 164 Q13 169 12 173.5 Q11 178 15 183 Q25 200 37 214.5 Q49 229 66 240 Q80 248 86.5 247 Q93 246 103 233 Q115 218 129.5 207.5 Q144 197 163 192 Q172 190 182.5 190 Q193 190 203 193 Q213 196 219.5 203 Q226 210 226 221 Q226 231 220 237 Q214 243 205.5 246.5 Q197 250 187.5 251.5 Q178 253 171 254 Q136 261 103.5 273.5 Q71 286 49 306.5 Q27 327 20.5 356.5 Q14 386 31 426 Q62 492 130 514 Q129 524 128.5 533 Q128 542 128 552 Q127 561 129 565.5 Q131 570 140 572 Q159 577 178 581 Q197 585 217 588 Q228 590 231 586 Q234 582 234 571 Q231 536 231 510 Q254 500 272 489 Q290 478 307 461 Q324 440 312 418 Q302 401 289.5 387.5 Q277 374 261 363 Q252 355 244 366 Q230 383 215 395.5 Q200 408 179 410 Q169 411 159 406 Q149 401 143 393 Q137 385 137 376 Q137 367 146 360 Q160 352 176 347.5 Q192 343 208 340 Q224 337 240 334.5 Q256 332 271 326 Q306 312 323.5 280.5 Q341 249 336 211 Q331 183 319 162.5 Q307 142 291 127.5 Q275 113 257 103 Q239 93 223 86 Z " />
<glyph glyph-name="percent" unicode="&#x25;" horiz-adv-x="560" d="M139 4 Q117 14 98 27.5 Q79 41 61 57 Q56 63 57.5 70 Q59 77 63.5 84 Q68 91 74 97 Q80 103 83 107 Q152 195 209 287.5 Q266 380 316 480 Q323 494 330 508.5 Q337 523 345 538 Q350 548 354 550 Q358 552 369 548 Q387 541 404 533.5 Q421 526 438 516 Q454 507 455 498.5 Q456 490 446 475 Q396 397 347 320 Q298 243 250 164 Q229 129 211.5 93 Q194 57 176 21 Q167 3 161.5 1.5 Q156 0 139 4 Z M172 554 Q201 545 216 524 Q231 503 236 475 Q244 430 233 389.5 Q222 349 193 314 Q178 296 160 288.5 Q142 281 124 281.5 Q106 282 89.5 289 Q73 296 61 307 Q43 325 33 348 Q23 371 21 395 Q19 419 23 443.5 Q27 468 36 490 Q60 533 95 549.5 Q130 566 172 554 Z M155 450 Q152 461 149 473.5 Q146 486 134 488 Q121 488 115 476 Q96 439 110 404 Q115 392 124.5 390.5 Q134 389 142 400 Q149 411 151.5 422.5 Q154 434 155 450 Z M433 294 Q484 291 507.5 263 Q531 235 535 196.5 Q539 158 526 117 Q513 76 491 47 Q476 29 458 21 Q440 13 422 13.5 Q404 14 387.5 21 Q371 28 359 39 Q341 58 331 81 Q321 104 318.5 128 Q316 152 320.5 176.5 Q325 201 334 223 Q348 254 374 274 Q400 294 433 294 Z M446 207 Q440 220 429.5 220 Q419 220 412 209 Q393 173 407 137 Q412 125 421.5 123.5 Q431 122 439 133 Q450 150 451 169.5 Q452 189 446 207 Z " />
<glyph glyph-name="ampersand" unicode="&#x26;" horiz-adv-x="439" d="M259 232 Q267 243 275 253.5 Q283 264 291 274 Q297 285 304 290 Q311 295 322 290 Q342 280 361 270 Q380 260 399 252 Q407 247 409 242.5 Q411 238 406 230 Q394 210 381.5 190.5 Q369 171 353 155 Q366 145 378.5 136.5 Q391 128 403 118 Q411 112 412 108 Q413 104 407 96 Q386 70 368 49 Q350 28 331 9 Q312 21 296.5 36.5 Q281 52 264 67 Q235 52 210.5 37 Q186 22 154 20 Q127 18 102 25.5 Q77 33 58.5 47.5 Q40 62 30.5 83.5 Q21 105 24 132 Q26 150 33 169.5 Q40 189 50.5 208 Q61 227 74.5 243.5 Q88 260 103 272 Q92 306 81 338 Q70 370 75 403 Q78 427 90 447 Q102 467 120 481.5 Q138 496 160 504 Q182 512 206 512 Q245 511 271 490 Q297 469 308.5 438.5 Q320 408 316 375 Q312 342 292 317 Q278 300 263 286 Q248 272 233 260 Q240 253 245.5 246.5 Q251 240 259 232 Z M162 187 Q151 175 145 165 Q139 155 137 145 Q133 129 143 123 Q153 117 164 125 Q172 130 178.5 136 Q185 142 191 150 Q183 160 176.5 168.5 Q170 177 162 187 Z M184 338 Q206 355 216 377 Q223 390 213 399 Q207 404 200.5 402.5 Q194 401 188.5 396.5 Q183 392 179.5 386 Q176 380 176 374 Q176 365 177.5 356 Q179 347 184 338 Z " />
<glyph glyph-name="quotesingle" unicode="&#x27;" horiz-adv-x="162" d="M68 510 Q62 513 57 515.5 Q52 518 48 521 Q35 532 32 547 Q29 562 35 578 Q43 596 58.5 605 Q74 614 93 612 Q107 610 118 597.5 Q129 585 131 570 Q137 509 90 470 Q83 464 79 464.5 Q75 465 67 471 Q59 476 58.5 479.5 Q58 483 62 492 Q64 497 65 501 Q66 505 68 510 Z " />
<glyph glyph-name="parenleft" unicode="&#x28;" horiz-adv-x="278" d="M176 572 Q187 580 193 579 Q199 578 209 569 Q235 546 245 514 Q250 500 238 491 Q185 442 163.5 379 Q142 316 152 249 Q158 207 178 176 Q198 145 230 119 Q237 114 244 107.5 Q251 101 245 91 Q237 77 228.5 63 Q220 49 209 36 Q200 25 193 24.5 Q186 24 174 32 Q72 100 46 221 Q28 332 61 419 Q94 506 176 572 Z " />
<glyph glyph-name="parenright" unicode="&#x29;" horiz-adv-x="282" d="M108 30 Q97 22 91 23 Q85 24 75 33 Q49 56 39 88 Q34 102 46 111 Q100 159 121.5 223 Q143 287 132 353 Q127 395 106.5 426 Q86 457 54 483 Q41 492 38 498.5 Q35 505 39 511 Q47 525 55.5 539 Q64 553 75 566 Q84 577 91 577.5 Q98 578 110 570 Q212 502 238 381 Q250 328 245 278.5 Q240 229 222.5 184 Q205 139 175.5 100 Q146 61 108 30 Z " />
<glyph glyph-name="asterisk" unicode="&#x2a;" horiz-adv-x="233" d="M83 470 Q84 475 84.5 478.5 Q85 482 85 485 Q115 497 140 486 Q142 478 142 471 Q146 474 148.5 476.5 Q151 479 153 481 Q161 489 168 480 Q169 478 170 476 Q171 474 173 472 Q180 462 184 456 Q188 450 188 446 Q188 442 183.5 437.5 Q179 433 170 426 Q168 424 164 422 Q160 420 157 418 Q162 415 166 412.5 Q170 410 174 408 Q191 397 185.5 389 Q180 381 169 366 Q161 352 149 364 Q144 371 143 371.5 Q142 372 138 378 Q138 373 137.5 367.5 Q137 362 138 357 Q138 346 130 345 Q103 344 97.5 341.5 Q92 339 89 347 Q88 352 87.5 357.5 Q87 363 86 369 Q75 362 70.5 360 Q66 358 56 369 Q51 374 46 379.5 Q41 385 35 392 Q50 403 66 416 Q56 424 48 430.5 Q40 437 32 444 Q39 453 44.5 461 Q50 469 56 477 Q63 486 73 479 Q75 477 77 475 Q79 473 83 470 Z " />
<glyph glyph-name="plus" unicode="&#x2b;" horiz-adv-x="292" d="M192 332 Q205 330 215.5 329 Q226 328 237 326 Q251 324 255 318 Q259 312 256 298 Q254 283 251.5 268.5 Q249 254 247 239 Q245 227 242 226 Q239 225 226 224 Q215 223 203.5 223.5 Q192 224 180 225 Q179 209 178.5 193.5 Q178 178 177 161 Q175 157 168.5 156 Q162 155 153.5 155 Q145 155 135.5 156 Q126 157 119 157 Q105 159 102.5 161.5 Q100 164 100 179 L100 225 Q87 226 74.5 224.5 Q62 223 51 222 Q38 220 37 232 L31 307 Q30 317 42 319 Q57 322 70 323.5 Q83 325 96 328 Q95 339 95 349 Q95 359 94 369 Q92 380 94.5 384 Q97 388 107 390 Q125 392 143 393 Q161 394 180 394 Q197 395 195 375 Q195 364 194 353.5 Q193 343 192 332 Z " />
<glyph glyph-name="comma" unicode="&#x2c;" horiz-adv-x="137" d="M55 17 Q49 20 44 22.5 Q39 25 34 28 Q22 38 18.5 53.5 Q15 69 22 85 Q30 103 45 112 Q60 121 79 118 Q93 116 104.5 104 Q116 92 118 76 Q122 17 77 -24 Q70 -29 65.5 -29 Q61 -29 53 -22 Q46 -17 45.5 -13.5 Q45 -10 49 -1 L55 17 Z " />
<glyph glyph-name="period" unicode="&#x2e;" horiz-adv-x="136" d="M96 16 Q86 6 75 3.5 Q64 1 54.5 4 Q45 7 37 14 Q29 21 25 30 Q20 44 22.5 61 Q25 78 35 89 Q45 100 59 103.5 Q73 107 84 102 Q98 96 104.5 85 Q111 74 111.5 61.5 Q112 49 108 37 Q104 25 96 16 Z " />
<glyph glyph-name="hyphen" unicode="&#x2d;" horiz-adv-x="286" d="M34 232 Q33 251 32 267.5 Q31 284 31 304 Q30 314 33.5 316.5 Q37 319 47 317 Q93 312 138.5 313.5 Q184 315 230 318 Q240 319 243 317 Q246 315 246 305 Q245 289 244.5 273.5 Q244 258 242 241 Q241 233 237.5 229.5 Q234 226 228.5 225.5 Q223 225 217 225.5 Q211 226 205 226 Q173 225 140 224.5 Q107 224 75 223 Q71 223 64 222 Q57 221 50.5 221 Q44 221 39 223.5 Q34 226 34 232 Z " />
<glyph glyph-name="slash" unicode="&#x2f;" horiz-adv-x="339" d="M339 557 Q356 551 358.5 543 Q361 535 354 518 Q305 393 259 271.5 Q213 150 173 22 Q170 5 164 -0.5 Q158 -6 141 -2 Q117 3 95.5 13 Q74 23 54 36 Q47 40 47 46.5 Q47 53 50.5 61 Q54 69 58.5 76.5 Q63 84 66 89 Q125 202 166.5 320 Q208 438 243 561 Q247 572 250 574.5 Q253 577 265 575 Q303 569 339 557 Z " />
<glyph glyph-name="zero" unicode="0" horiz-adv-x="426" d="M166 0 Q107 22 73.5 68 Q40 114 26.5 170 Q13 226 17.5 286 Q22 346 39 395 Q59 447 93.5 487 Q128 527 181 543 Q222 554 258 541 Q294 528 321.5 500.5 Q349 473 367 437 Q385 401 390 365 Q398 327 397.5 283 Q397 239 388 196 Q379 153 361 114 Q343 75 315.5 47 Q288 19 251 5.5 Q214 -8 166 0 Z M171 154 Q186 133 204 132 Q222 131 240 150 Q259 176 271 212.5 Q283 249 285.5 287 Q288 325 280 361 Q272 397 253 423 Q239 443 221 444.5 Q203 446 186 427 Q166 401 154 364.5 Q142 328 139.5 290 Q137 252 144.5 215.5 Q152 179 171 154 Z " />
<glyph glyph-name="one" unicode="1" horiz-adv-x="332" d="M237 125 Q242 126 246 126.5 Q250 127 254 128 Q271 132 281 118 Q308 76 313 22 Q313 14 310 11.5 Q307 9 299 8 Q220 9 162.5 9.5 Q105 10 52 11 Q38 9 34 17.5 Q30 26 31 31 Q33 42 34.5 53 Q36 64 39 75 Q43 91 48 94.5 Q53 98 70 100 Q92 101 120 106 Q124 180 127 253 Q130 326 135 402 Q125 395 118.5 386 Q112 377 104 368 Q94 357 84 366 Q67 380 57 397.5 Q47 415 42 435 Q40 441 44.5 446.5 Q49 452 52 457 Q73 478 94.5 499 Q116 520 138 541 Q147 550 160 550 Q175 548 190.5 547.5 Q206 547 221 545 Q234 543 238 536.5 Q242 530 241 517 Q236 410 233.5 314.5 Q231 219 237 125 Z " />
<glyph glyph-name="two" unicode="2" horiz-adv-x="376" d="M162 124 Q173 126 183.5 126.5 Q194 127 204 129 Q233 132 262 132.5 Q291 133 320 128 Q340 124 347 116 Q354 108 354 88 Q354 79 352 67 Q350 55 345.5 44 Q341 33 333.5 26 Q326 19 314 20 Q258 26 202.5 24 Q147 22 94 8 Q60 0 40 32 Q28 53 26.5 79 Q25 105 31.5 132 Q38 159 50.5 184.5 Q63 210 80 230 Q98 250 123 274 Q148 298 171.5 324 Q195 350 212 376 Q229 402 232 427 Q233 448 221.5 456.5 Q210 465 190 458 Q155 440 134.5 414.5 Q114 389 92 367 Q71 385 58.5 406.5 Q46 428 44 454 Q44 460 47 466.5 Q50 473 54 478 Q70 502 94 520 Q118 538 145 548.5 Q172 559 201 561.5 Q230 564 257 556 Q291 545 310.5 523 Q330 501 336 464 Q344 412 327.5 369.5 Q311 327 276 290 Q258 272 239.5 253.5 Q221 235 205 215 Q189 195 177 172.5 Q165 150 162 124 Z " />
<glyph glyph-name="three" unicode="3" horiz-adv-x="360" d="M254 285 Q296 256 319.5 219 Q343 182 335 130 Q329 99 311.5 74.5 Q294 50 270 34 Q246 18 217.5 11.5 Q189 5 160 10 Q126 17 96 31.5 Q66 46 42 72 Q33 81 30 90 Q27 99 32 111 Q46 154 77 183 Q86 190 97 195.5 Q108 201 114 188 Q123 168 138 148.5 Q153 129 177 129 Q190 130 197.5 136.5 Q205 143 207 152 Q209 161 206.5 171 Q204 181 198 190 Q186 207 170 217.5 Q154 228 133 230 Q117 230 114 245 Q112 256 109.5 268 Q107 280 105 292 Q104 306 118 316 Q129 323 148 336 Q167 349 185 364 Q203 379 214.5 396 Q226 413 223 429 Q221 443 210 451 Q199 459 185 457 Q156 454 136 435 Q116 416 99 398 Q90 388 86 387.5 Q82 387 73 397 Q59 412 49.5 429.5 Q40 447 32 466 Q29 475 32.5 481.5 Q36 488 41 493 Q89 535 147 551.5 Q205 568 265 545 Q306 526 323.5 494 Q341 462 338 420 Q332 378 308.5 344 Q285 310 254 285 Z " />
<glyph glyph-name="four" unicode="4" horiz-adv-x="392" d="M131 223 Q158 228 184 233.5 Q210 239 237 244 Q235 285 235.5 326.5 Q236 368 234 400 Q233 420 252 429 Q272 438 292.5 444 Q313 450 336 451 Q343 454 346 443.5 Q349 433 348.5 417 Q348 401 346 382 Q344 363 343 349 Q341 323 339.5 298 Q338 273 336 247 Q344 246 351 245.5 Q358 245 365 245 Q378 245 378 233 Q379 210 376.5 188 Q374 166 366 145 Q364 139 362.5 136 Q361 133 358 131.5 Q355 130 350 128.5 Q345 127 336 124 Q336 101 336 87 Q336 73 336 64 Q336 55 336.5 49.5 Q337 44 337 39 Q337 28 327 24 Q287 12 246 13 Q232 13 232 28 Q233 52 234 74.5 Q235 97 236 119 Q181 120 144.5 120.5 Q108 121 74 122 Q59 122 50 135 Q42 148 33.5 161 Q25 174 16 187 Q8 200 12 214 Q23 256 40 296 Q57 336 77 374 Q97 412 118 449 Q139 486 158 522 Q165 535 171 537 Q177 539 190 534 Q210 528 227.5 517 Q245 506 260 492 Q266 486 266 479.5 Q266 473 262.5 467 Q259 461 254 455 Q249 449 245 445 Q205 392 178 336.5 Q151 281 131 223 Z " />
<glyph glyph-name="five" unicode="5" horiz-adv-x="392" d="M161 434 Q155 411 151 389 Q147 367 143 344 Q160 346 175 348.5 Q190 351 205 351 Q290 352 341 283 Q369 245 376 200.5 Q383 156 369.5 115.5 Q356 75 322 43.5 Q288 12 235 0 Q189 -10 147.5 1 Q106 12 71 35 Q63 40 57.5 46.5 Q52 53 54 63 Q61 83 71 100.5 Q81 118 95 133 Q108 147 125 139 Q148 128 172 123 Q196 118 219 122 Q245 127 256.5 148.5 Q268 170 258 195 Q250 215 229 227 Q208 239 185 236 Q145 230 117 206 Q104 196 90 205 Q54 226 34 264 Q31 269 30.5 276 Q30 283 31 290 Q38 348 43.5 403.5 Q49 459 54 516 Q54 525 59.5 529 Q65 533 73.5 534 Q82 535 91.5 535 Q101 535 107 537 Q176 544 228.5 542.5 Q281 541 332 532 Q347 529 349 512 Q352 470 335 430 Q332 422 328.5 420.5 Q325 419 315 422 Q275 435 237 435.5 Q199 436 161 434 Z " />
<glyph glyph-name="six" unicode="6" horiz-adv-x="398" d="M148 342 Q162 347 174 353 Q186 359 200 362 Q231 369 259 365 Q287 361 310 346.5 Q333 332 349.5 308.5 Q366 285 373 254 Q381 212 375 171.5 Q369 131 349.5 97.5 Q330 64 299 40 Q268 16 227 6 Q182 -3 145 10 Q108 23 81 49.5 Q54 76 38.5 113 Q23 150 21 189 Q17 249 27.5 305 Q38 361 63.5 409 Q89 457 129.5 494.5 Q170 532 226 554 Q246 561 264 546 Q277 534 284 519 Q291 504 295 487 Q297 474 284 470 Q265 463 243 449.5 Q221 436 201 418.5 Q181 401 166.5 381 Q152 361 148 342 Z M256 234 Q239 260 221 258.5 Q203 257 187.5 241 Q172 225 161 202.5 Q150 180 147 165 Q143 145 152 132 Q161 119 175 113.5 Q189 108 205.5 110 Q222 112 233 121 Q258 143 264.5 174.5 Q271 206 256 234 Z " />
<glyph glyph-name="seven" unicode="7" horiz-adv-x="344" d="M209 453 Q162 451 123.5 441 Q85 431 46 418 Q36 414 32 415.5 Q28 417 23 427 Q12 452 11 478 Q10 504 16 532 Q81 543 143 549 Q205 555 265 542 Q300 534 313 508.5 Q326 483 320 457 Q305 392 276.5 334 Q248 276 224 218 Q205 170 194.5 125.5 Q184 81 184 36 Q184 17 166 11 Q145 3 123 2 Q101 1 78 4 Q69 5 67.5 11 Q66 17 66 23 Q68 82 80.5 137.5 Q93 193 113 246 Q133 299 158 350.5 Q183 402 209 453 Z " />
<glyph glyph-name="eight" unicode="8" horiz-adv-x="394" d="M308 320 Q339 283 352.5 241.5 Q366 200 362.5 159.5 Q359 119 339.5 81.5 Q320 44 285 15 Q259 -5 229 -11 Q199 -17 169.5 -13 Q140 -9 112 4.5 Q84 18 63 38 Q34 68 22.5 107 Q11 146 14 185.5 Q17 225 35 261.5 Q53 298 84 323 Q64 341 55 366.5 Q46 392 48 419.5 Q50 447 64.5 474.5 Q79 502 106 524 Q139 550 178.5 558 Q218 566 253.5 556 Q289 546 314.5 518 Q340 490 344 444 Q350 375 308 320 Z M161 132 Q173 120 188.5 119 Q204 118 218 127 Q231 136 238.5 151.5 Q246 167 247 183.5 Q248 200 242 216 Q236 232 224 242 Q210 254 193 253.5 Q176 253 162 239 Q151 227 145.5 213 Q140 199 139.5 184 Q139 169 144.5 155.5 Q150 142 161 132 Z M228 461 Q220 472 206.5 473.5 Q193 475 182 467 Q166 454 163.5 432.5 Q161 411 174 396 Q183 385 194.5 383.5 Q206 382 217 390 Q235 404 237 424 Q239 444 228 461 Z " />
<glyph glyph-name="nine" unicode="9" horiz-adv-x="401" d="M100 79 Q152 95 187 129 Q222 163 245 212 Q218 194 184.5 187.5 Q151 181 121 190 Q67 206 41.5 244.5 Q16 283 14 329 Q12 375 30 422 Q48 469 81.5 503 Q115 537 160.5 550 Q206 563 258 542 Q290 528 312.5 505 Q335 482 349.5 454 Q364 426 370 394 Q376 362 375 330 Q373 280 361 230.5 Q349 181 323.5 136.5 Q298 92 259.5 56.5 Q221 21 167 -1 Q150 -7 138 1 Q121 12 110 34 Q99 56 100 79 Z M135 324 Q147 300 168.5 296.5 Q190 293 209 311 Q225 326 233.5 345 Q242 364 248 384 Q251 404 242.5 417.5 Q234 431 220.5 438 Q207 445 190.5 443.5 Q174 442 161 432 Q150 422 142 408.5 Q134 395 130.5 381 Q127 367 127.5 352 Q128 337 135 324 Z " />
<glyph glyph-name="colon" unicode="&#x3a;" horiz-adv-x="161" d="M131 198 Q131 177 116.5 164.5 Q102 152 82 152 Q63 151 50 165.5 Q37 180 37 200 Q37 218 51 232 Q65 246 84 247 Q104 247 117.5 232.5 Q131 218 131 198 Z M84 279 Q64 279 50.5 292.5 Q37 306 37 326 Q37 346 51 359.5 Q65 373 85 374 Q105 374 118 360.5 Q131 347 131 327 Q131 307 117.5 293.5 Q104 280 84 279 Z " />
<glyph glyph-name="semicolon" unicode="&#x3b;" horiz-adv-x="165" d="M74 142 Q68 145 63 147.5 Q58 150 53 153 Q39 166 37.5 182.5 Q36 199 43.5 213.5 Q51 228 65.5 237 Q80 246 98 243 Q112 241 123.5 229 Q135 217 137 201 Q141 177 130 149 Q119 121 96 101 Q89 96 84 94.5 Q79 93 71 100 Q64 105 64 110 Q64 115 68 124 L74 142 Z M116 285 Q106 275 95 272.5 Q84 270 74 273 Q64 276 56 283 Q48 290 45 299 Q40 313 42.5 330 Q45 347 55 358 Q65 369 79 373 Q93 377 104 372 Q117 366 124 355 Q131 344 132 331.5 Q133 319 128.5 306.5 Q124 294 116 285 Z " />
<glyph glyph-name="less" unicode="&#x3c;" horiz-adv-x="243" d="M178 391 Q186 377 193 364.5 Q200 352 208 338 Q212 332 209.5 328 Q207 324 202 320 Q184 305 168.5 292 Q153 279 137 267 Q154 254 169 241 Q184 228 201 216 Q210 209 204 198 Q194 184 185 170 Q176 156 168 142 Q162 131 152 137 Q129 151 99 171.5 Q69 192 44 211 Q30 220 30 236 Q31 250 29.5 264 Q28 278 32 292 Q36 306 48 313 Q60 320 71 328 Q91 345 111.5 360 Q132 375 153 390 Q161 397 166.5 398 Q172 399 178 391 Z " />
<glyph glyph-name="equal" unicode="&#x3d;" horiz-adv-x="292" d="M38 281 Q37 300 37 316 Q37 332 37 352 Q36 368 53 365 Q99 360 144.5 361 Q190 362 236 366 Q246 367 249 365 Q252 363 252 353 Q252 337 251 321 Q250 305 248 289 Q246 273 234.5 273.5 Q223 274 212 274 Q179 273 146 272.5 Q113 272 81 271 Q77 271 69.5 270 Q62 269 55 269.5 Q48 270 43 272.5 Q38 275 38 281 Z M40 160 Q39 180 38 199 Q37 218 37 237 Q36 247 39.5 249.5 Q43 252 53 251 Q99 246 144.5 247 Q190 248 236 252 Q246 253 249 251 Q252 249 252 239 Q252 223 251 207 Q250 191 248 175 Q247 167 243 163.5 Q239 160 234 159 Q229 158 223 159 Q217 160 212 160 Q179 159 146 158.5 Q113 158 81 156 Q76 156 69.5 154.5 Q63 153 56 152.5 Q49 152 44.5 153 Q40 154 40 160 Z " />
<glyph glyph-name="greater" unicode="&#x3e;" horiz-adv-x="243" d="M62 134 L32 187 Q28 193 30.5 197 Q33 201 38 205 L103 258 L39 309 Q30 316 36 327 Q46 341 55 355 Q64 369 72 383 Q75 388 81 390 Q87 392 98 383 Q123 366 147.5 349 Q172 332 196 314 Q210 305 210 289 Q209 275 210.5 261 Q212 247 208 233 Q206 225 189 210.5 Q172 196 151.5 180.5 Q131 165 112 152 Q93 139 87 135 Q79 128 73.5 127 Q68 126 62 134 Z " />
<glyph glyph-name="question" unicode="&#x3f;" horiz-adv-x="307" d="M140 345 Q153 362 165.5 379.5 Q178 397 182 417 Q182 434 173 435 Q164 436 152.5 430 Q141 424 130 414 Q119 404 116 398 Q112 392 107.5 384 Q103 376 97.5 371 Q92 366 85.5 364.5 Q79 363 70 369 Q51 385 42 398.5 Q33 412 25 432 Q15 452 30 470 Q56 500 88.5 520 Q121 540 160 548 Q205 557 240.5 535 Q276 513 286 466 Q291 438 287 414.5 Q283 391 273 370 Q263 349 249 330 Q235 311 219 292 Q177 239 175 170 Q174 155 167 151.5 Q160 148 148 148 Q131 145 125.5 147.5 Q120 150 113 165 Q94 211 103.5 258.5 Q113 306 140 345 Z M152 19 Q132 19 118.5 32.5 Q105 46 105 65 Q104 85 118.5 99 Q133 113 153 113 Q173 113 186 100 Q199 87 200 67 Q201 47 186.5 33 Q172 19 152 19 Z " />
<glyph glyph-name="at" unicode="&#x40;" horiz-adv-x="565" d="M354 220 Q346 207 338.5 195.5 Q331 184 322 173 Q299 144 270.5 132.5 Q242 121 213 140 Q186 156 171.5 182 Q157 208 152.5 237.5 Q148 267 151.5 297 Q155 327 165 351 Q176 375 194.5 395 Q213 415 235.5 427 Q258 439 283.5 441 Q309 443 334 430 Q339 440 346 441 Q353 442 361 440 Q375 437 389 434.5 Q403 432 417 429 Q426 427 428.5 423.5 Q431 420 429 412 Q427 401 424.5 389.5 Q422 378 420 366 Q418 354 418.5 341.5 Q419 329 425 317 Q430 309 436 309 Q442 309 446 317 Q453 342 454 366.5 Q455 391 448.5 412 Q442 433 426 449 Q410 465 385 472 Q348 482 312 480.5 Q276 479 241 465 Q199 444 174 410 Q149 376 138.5 336.5 Q128 297 132 255.5 Q136 214 152 178 Q166 149 188.5 128.5 Q211 108 243 100 Q293 87 332 104.5 Q371 122 405 152 Q413 160 422 154 Q440 142 458.5 130.5 Q477 119 494 107 Q501 102 499.5 95.5 Q498 89 493.5 83 Q489 77 482.5 71.5 Q476 66 472 63 Q408 12 333.5 3.5 Q259 -5 187 30 Q121 61 85.5 112.5 Q50 164 40 242 Q31 320 57.5 388 Q84 456 134 501.5 Q184 547 253 563.5 Q322 580 398 556 Q446 541 478.5 510 Q511 479 527.5 438.5 Q544 398 545.5 352.5 Q547 307 533 264 Q528 248 518 233 Q508 218 494 206 Q480 194 462.5 187 Q445 180 425 181 Q399 181 384.5 192.5 Q370 204 354 220 Z M313 362 Q306 369 299 369 Q292 369 286 365 Q271 355 261 338.5 Q251 322 247 303 Q243 284 244.5 265 Q246 246 254 231 Q269 242 285.5 278.5 Q302 315 313 362 Z " />
<glyph glyph-name="A" unicode="A" horiz-adv-x="436" d="M296 120 Q222 127 154 114 Q142 111 139 99 Q134 79 128.5 59 Q123 39 118 19 Q114 7 110.5 4.5 Q107 2 96 8 Q76 19 56.5 30.5 Q37 42 17 54 Q6 60 12 73 Q50 162 83 249.5 Q116 337 147 426 Q163 472 177 524 Q183 543 200 544 Q221 546 241.5 547 Q262 548 283 548 Q296 548 300.5 544 Q305 540 308 526 Q333 402 359 288 Q385 174 423 64 Q427 52 417 46 Q394 34 374 25.5 Q354 17 334 9 Q321 4 317 7 Q313 10 311 24 Q307 48 303.5 71.5 Q300 95 296 120 Z M238 370 L233 370 Q219 332 205 294.5 Q191 257 177 219 Q203 217 226.5 219 Q250 221 275 223 Q266 261 256.5 297.5 Q247 334 238 370 Z " />
<glyph glyph-name="B" unicode="B" horiz-adv-x="415" d="M298 298 Q319 288 337.5 273.5 Q356 259 369 240 Q390 208 394.5 176 Q399 144 390 116.5 Q381 89 358.5 66 Q336 43 302 29 Q240 7 175.5 3.5 Q111 0 49 6 Q35 7 30 12.5 Q25 18 25 32 Q26 118 26.5 188 Q27 258 27 317 Q27 376 26.5 427.5 Q26 479 23 529 Q23 539 30 544.5 Q37 550 46.5 553 Q56 556 65.5 557.5 Q75 559 81 560 Q115 565 150.5 564 Q186 563 218.5 553.5 Q251 544 277.5 525 Q304 506 319 474 Q330 449 332 426.5 Q334 404 330 382.5 Q326 361 317 340 Q308 319 298 298 Z M136 199 L136 102 Q155 99 175 99.5 Q195 100 214 103.5 Q233 107 248.5 113 Q264 119 274 127 Q283 137 286.5 148.5 Q290 160 287.5 171 Q285 182 277 191 Q269 200 257 205 Q244 211 229 212 Q214 213 198 211 Q182 209 166 205.5 Q150 202 136 199 Z M137 316 Q155 321 171 327 Q187 333 201 343 Q213 352 221 364.5 Q229 377 232 390.5 Q235 404 232 417.5 Q229 431 219 443 Q214 448 204 452 Q194 456 182.5 457 Q171 458 160 456.5 Q149 455 143 450 Q141 418 140 384.5 Q139 351 137 316 Z " />
<glyph glyph-name="C" unicode="C" horiz-adv-x="435" d="M360 383 Q356 387 352.5 389.5 Q349 392 346 395 Q326 412 302.5 418.5 Q279 425 255 422 Q231 419 210 406.5 Q189 394 174 373 Q156 346 148 315 Q140 284 143 254 Q146 224 161.5 198 Q177 172 206 156 Q223 147 241.5 146 Q260 145 278.5 149 Q297 153 314 161.5 Q331 170 344 181 Q356 191 361 190.5 Q366 190 377 179 Q410 146 423 105 Q426 94 420 87 Q354 0 245 3 Q197 5 157.5 23 Q118 41 89.5 71.5 Q61 102 43.5 143.5 Q26 185 23 233 Q18 286 29 335.5 Q40 385 63.5 426 Q87 467 121 497 Q155 527 196 541.5 Q237 556 283 551.5 Q329 547 376 519 Q380 516 388 511 Q396 506 403.5 499.5 Q411 493 415.5 485.5 Q420 478 417 472 Q411 445 397.5 422.5 Q384 400 360 383 Z " />
<glyph glyph-name="D" unicode="D" horiz-adv-x="415" d="M37 506 Q36 525 38.5 534 Q41 543 59 547 Q101 554 145 554.5 Q189 555 229 545 Q269 535 303 512 Q337 489 359 449 Q380 410 390 364 Q400 318 398.5 271 Q397 224 383.5 179.5 Q370 135 345 98.5 Q320 62 283 37 Q246 12 197 4 Q165 -3 134 -3.5 Q103 -4 72 -3 Q51 -1 44 6 Q37 13 37 34 Q39 162 41 276.5 Q43 391 37 506 Z M147 104 Q180 106 207.5 122.5 Q235 139 254.5 165 Q274 191 285 223.5 Q296 256 297 290 Q298 324 288 356 Q278 388 256 414 Q236 437 210.5 444.5 Q185 452 156 447 Q147 274 147 104 Z " />
<glyph glyph-name="E" unicode="E" horiz-adv-x="364" d="M156 209 L156 109 Q192 107 226.5 108 Q261 109 295 115 Q310 117 319 107 Q328 97 332 83 Q336 69 336.5 53.5 Q337 38 336 29 Q333 9 314 8 L303 8 Q254 8 217 8 Q180 8 150.5 8.5 Q121 9 97.5 11 Q74 13 51 16 Q38 18 34 31 Q30 44 31 60.5 Q32 77 35 93.5 Q38 110 38 119 Q43 231 43.5 328 Q44 425 32 518 Q30 533 34.5 538.5 Q39 544 54 546 Q120 552 182 553.5 Q244 555 306 553 Q324 553 330 547.5 Q336 542 337 524 Q337 513 336 498.5 Q335 484 330.5 472 Q326 460 317.5 452.5 Q309 445 295 447 Q257 452 222.5 453 Q188 454 154 454 Q152 417 152.5 381.5 Q153 346 153 310 Q201 312 229.5 313.5 Q258 315 283 316 Q297 316 301.5 313 Q306 310 311 296 Q316 279 315.5 261 Q315 243 313 226 Q311 217 307.5 214.5 Q304 212 294 212 Q254 213 221 212.5 Q188 212 156 209 Z " />
<glyph glyph-name="F" unicode="F" horiz-adv-x="348" d="M146 451 L146 308 Q181 307 213.5 309 Q246 311 278 313 Q289 314 293.5 311 Q298 308 301 297 Q308 278 307.5 259.5 Q307 241 304 222 Q303 209 287 209 Q245 209 212 208.5 Q179 208 147 206 Q147 149 149.5 106 Q152 63 157 21 Q158 15 157 10.5 Q156 6 148 5 Q120 3 92.5 2.5 Q65 2 37 9 Q26 12 23 16 Q20 20 22 32 Q36 142 36 253 Q36 364 29 475 Q28 485 25.5 496.5 Q23 508 23 518 Q23 528 27.5 535 Q32 542 45 544 Q114 554 177 552.5 Q240 551 300 551 Q317 551 322 545.5 Q327 540 329 524 Q330 491 317 461 Q312 447 307 444.5 Q302 442 287 444 Q249 450 214.5 450.5 Q180 451 146 451 Z " />
<glyph glyph-name="G" unicode="G" horiz-adv-x="476" d="M251 211 Q236 210 227 223 Q222 233 218.5 247 Q215 261 214.5 275.5 Q214 290 218 302 Q222 314 234 320 Q279 333 322 332.5 Q365 332 404 305 Q434 279 443.5 241 Q453 203 445.5 163 Q438 123 416 87.5 Q394 52 361 31 Q302 -2 246 -1.5 Q190 -1 144 25 Q98 51 66 97.5 Q34 144 23 202 Q15 257 23.5 312 Q32 367 56.5 413 Q81 459 120 492.5 Q159 526 212 538 Q269 550 316.5 535 Q364 520 406 487 Q419 475 414 457 Q410 446 402.5 429.5 Q395 413 386 400.5 Q377 388 366 382.5 Q355 377 345 387 Q324 405 300.5 412 Q277 419 253 415.5 Q229 412 206.5 398.5 Q184 385 167 362 Q150 339 141.5 307.5 Q133 276 136 245 Q139 214 154 186.5 Q169 159 198 143 Q231 126 266.5 131.5 Q302 137 331 162 Q345 179 340.5 194.5 Q336 210 317 211 Q300 213 284 212 Q268 211 251 211 Z " />
<glyph glyph-name="H" unicode="H" horiz-adv-x="417" d="M267 154 Q234 155 202 152 Q170 149 137 143 L137 68 Q137 63 138.5 55 Q140 47 140.5 39.5 Q141 32 139 26.5 Q137 21 131 20 Q110 15 88.5 12 Q67 9 45 16 Q33 21 30 24.5 Q27 28 27 41 Q28 172 31 294 Q34 416 25 537 Q24 551 37 555 Q63 561 87 565 Q111 569 137 567 Q149 567 152.5 562.5 Q156 558 154 547 Q144 469 141 398.5 Q138 328 139 259 Q173 253 205.5 256 Q238 259 272 259 Q276 322 275.5 382.5 Q275 443 275 504 Q275 510 273.5 519.5 Q272 529 271.5 538 Q271 547 272.5 554 Q274 561 281 562 Q303 567 324.5 570 Q346 573 369 565 Q385 560 385 543 Q389 421 385 300.5 Q381 180 386 59 Q390 39 378 30 Q366 21 348 18.5 Q330 16 310.5 16.5 Q291 17 279 15 Q264 15 260 19.5 Q256 24 258 39 Q262 68 267 101 Q272 134 267 154 Z " />
<glyph glyph-name="I" unicode="I" horiz-adv-x="198" d="M39 517 Q38 528 39.5 532 Q41 536 52 538 Q75 543 100.5 548 Q126 553 149 550 Q161 550 164.5 545.5 Q168 541 167 529 Q161 466 158 400.5 Q155 335 154.5 270 Q154 205 153.5 143 Q153 81 152 26 Q152 18 151.5 13 Q151 8 149.5 5.5 Q148 3 143.5 2 Q139 1 131 0 Q108 -4 89 -4 Q70 -4 50 2 Q43 4 41.5 10 Q40 16 40 23 Q41 109 41.5 178.5 Q42 248 42 306.5 Q42 365 41.5 416 Q41 467 39 517 Z " />
<glyph glyph-name="J" unicode="J" horiz-adv-x="329" d="M187 515 Q186 520 184.5 526.5 Q183 533 182.5 540 Q182 547 184 552 Q186 557 192 559 Q216 565 240 564.5 Q264 564 287 554 Q299 548 300.5 535 Q302 522 302 511 Q302 463 302.5 415 Q303 367 302.5 322 Q302 277 298.5 236 Q295 195 287 160 Q282 133 273 108 Q264 83 249 63.5 Q234 44 213.5 31 Q193 18 165 15 Q131 10 99.5 18 Q68 26 48 51 Q31 72 22.5 97.5 Q14 123 11.5 149 Q9 175 11 201.5 Q13 228 16 252 Q20 271 40 275 Q80 283 116 266 Q127 261 129 257 Q131 253 129 242 Q125 219 124.5 201.5 Q124 184 126 164 Q128 156 134 151 Q140 146 146.5 144.5 Q153 143 160 146 Q167 149 171 157 Q183 178 187 222 Q191 266 191.5 318.5 Q192 371 190 424 Q188 477 187 515 Z " />
<glyph glyph-name="K" unicode="K" horiz-adv-x="392" d="M208 268 Q253 231 293 191.5 Q333 152 368 107 Q378 93 371 77 Q352 39 318 17 Q308 10 300 20 Q254 74 222.5 111 Q191 148 158 178 Q151 175 145 172.5 Q139 170 132 166 Q133 133 133 100 Q133 67 135 34 Q136 20 133.5 16.5 Q131 13 119 10 Q100 6 81.5 4.5 Q63 3 44 8 Q30 11 26 16 Q22 21 22 36 Q23 165 25 285.5 Q27 406 21 529 Q20 544 33 548 Q60 555 85 557.5 Q110 560 138 560 Q146 557 148.5 554 Q151 551 150 542 Q147 490 141.5 439 Q136 388 138 337 Q181 388 215 438 Q249 488 275 542 Q281 558 294 558 Q312 558 330 557.5 Q348 557 365 555 Q379 553 381.5 547.5 Q384 542 379 529 Q375 521 371.5 513.5 Q368 506 364 498 Q329 433 287.5 379 Q246 325 208 268 Z " />
<glyph glyph-name="L" unicode="L" horiz-adv-x="314" d="M139 110 Q167 112 194.5 115 Q222 118 250 121 Q256 122 261 122 Q266 122 271 117 Q300 89 303 51 Q303 39 300 35 Q297 31 286 29 Q220 18 161 11.5 Q102 5 42 11 Q29 16 27.5 27.5 Q26 39 26 50 Q28 186 28.5 301.5 Q29 417 25 530 Q25 546 27.5 549 Q30 552 45 557 Q68 565 91 566.5 Q114 568 137 567 Q157 566 154 548 Q149 499 146 442 Q143 385 141.5 327 Q140 269 139.5 213 Q139 157 139 110 Z " />
<glyph glyph-name="M" unicode="M" horiz-adv-x="564" d="M285 350 Q293 387 300 420.5 Q307 454 315 487 Q317 496 319 507 Q321 518 324.5 527.5 Q328 537 334.5 544 Q341 551 352 551 Q369 550 385.5 549 Q402 548 419 546 Q434 546 437 529 Q460 414 492 301.5 Q524 189 554 75 Q557 63 548 54 Q531 35 509 24.5 Q487 14 463 6 Q446 0 443 21 Q431 87 420 150.5 Q409 214 389 274 Q381 229 371.5 186 Q362 143 354 101 Q349 73 324 72 Q285 70 246 72 Q221 73 215 101 Q207 144 198 186 Q189 228 180 273 Q166 212 154 151 Q142 90 129 29 Q127 20 122.5 11.5 Q118 3 107 6 Q83 14 61 24 Q39 34 22 54 Q13 62 16 76 Q30 133 46.5 194.5 Q63 256 79.5 315 Q96 374 110 428.5 Q124 483 132 527 Q134 536 138.5 541 Q143 546 152 547 Q169 548 185 549 Q201 550 218 551 Q230 551 235 547 Q240 543 243 531 Q254 483 264 439 Q274 395 285 350 Z " />
<glyph glyph-name="N" unicode="N" horiz-adv-x="429" d="M290 535 Q332 548 375 542 Q386 540 392 538.5 Q398 537 401 533.5 Q404 530 404 523.5 Q404 517 404 505 Q399 412 398.5 320 Q398 228 400 134 Q401 120 403 101 Q405 82 405 65.5 Q405 49 401 37 Q397 25 386 24 Q369 21 352 19 Q335 17 318 16 Q295 15 281 38 Q244 93 210.5 150.5 Q177 208 135 259 Q136 201 136.5 143.5 Q137 86 139 29 Q139 24 138.5 18.5 Q138 13 133 11 Q120 6 104 2.5 Q88 -1 73 -1 Q58 -1 46.5 3 Q35 7 32 16 Q25 146 27 268.5 Q29 391 26 513 Q26 524 28 527.5 Q30 531 40 534 Q71 544 104 543 Q116 543 123.5 538 Q131 533 136 522 Q206 376 289 244 Q295 317 295 389.5 Q295 462 290 535 Z " />
<glyph glyph-name="O" unicode="O" horiz-adv-x="457" d="M28 388 Q35 421 51 449.5 Q67 478 90 500 Q113 522 141.5 536 Q170 550 203 553 Q258 557 300.5 540 Q343 523 373 491 Q403 459 419.5 414.5 Q436 370 439 320 Q440 275 432.5 228 Q425 181 407 140 Q389 99 358.5 67 Q328 35 283 19 Q199 -9 126 43 Q84 75 60.5 115 Q37 155 27 200 Q17 245 18 293 Q19 341 28 388 Z M153 291 Q154 253 164.5 218 Q175 183 203 160 Q222 145 242 145.5 Q262 146 281 161 Q306 186 318.5 220.5 Q331 255 331.5 291 Q332 327 319.5 360.5 Q307 394 282 417 Q265 433 244.5 433.5 Q224 434 205 420 Q176 395 164.5 360.5 Q153 326 153 291 Z " />
<glyph glyph-name="P" unicode="P" horiz-adv-x="382" d="M139 114 Q140 94 140 75.5 Q140 57 141 38 Q142 20 131.5 12 Q121 4 106 1.5 Q91 -1 75 1 Q59 3 49 5 Q36 10 33 13.5 Q30 17 30 31 Q31 164 33 284.5 Q35 405 29 524 Q28 535 29.5 538 Q31 541 42 545 Q87 560 136.5 561 Q186 562 230.5 547.5 Q275 533 308.5 502 Q342 471 355 423 Q373 347 357 285.5 Q341 224 284 179 Q252 153 216.5 136.5 Q181 120 139 114 Z M140 222 Q177 222 203.5 241 Q230 260 244.5 288 Q259 316 261.5 348 Q264 380 252.5 406 Q241 432 215 448 Q189 464 148 459 Q146 401 144 342 Q142 283 140 222 Z " />
<glyph glyph-name="Q" unicode="Q" horiz-adv-x="467" d="M342 43 Q345 36 347.5 30.5 Q350 25 353 20 Q359 7 348 0 Q338 -8 328 -15 Q318 -22 308 -29 Q297 -37 289 -28 Q281 -19 273.5 -11 Q266 -3 259 6 Q254 14 243 14 Q229 14 216.5 14.5 Q204 15 191 17 Q151 23 120 46.5 Q89 70 67.5 102.5 Q46 135 34 173 Q22 211 20 246 Q18 292 25.5 339 Q33 386 51.5 427 Q70 468 101 500 Q132 532 177 549 Q260 577 333 525 Q373 494 397.5 453.5 Q422 413 433.5 368 Q445 323 444 276 Q443 229 433 186 Q427 158 416 135 Q405 112 392.5 94 Q380 76 366.5 63 Q353 50 342 43 Z M188 142 Q186 151 184.5 158.5 Q183 166 181 172 Q174 191 191 206 Q208 220 227.5 229 Q247 238 269 243 Q275 245 278 240 Q281 235 283.5 227 Q286 219 287 211 Q288 203 289 199 Q302 221 305.5 251 Q309 281 303.5 311.5 Q298 342 285 369 Q272 396 251 411 Q234 422 216 422.5 Q198 423 183 410 Q159 389 146 361 Q133 333 130 302.5 Q127 272 132.5 241.5 Q138 211 150 184 Q162 159 188 142 Z " />
<glyph glyph-name="R" unicode="R" horiz-adv-x="404" d="M278 153 Q299 138 320 126.5 Q341 115 363 105 Q380 97 383 90 Q386 83 378 66 Q371 50 361.5 36.5 Q352 23 338 12 Q330 5 321 3 Q312 1 302 6 Q281 13 262 25.5 Q243 38 224.5 51.5 Q206 65 188.5 78.5 Q171 92 153 103 Q155 89 155.5 76.5 Q156 64 158 51 Q160 38 156.5 33.5 Q153 29 141 27 Q122 25 103.5 25 Q85 25 66 32 Q48 40 45 60 Q37 120 34.5 177.5 Q32 235 32.5 291 Q33 347 35 402.5 Q37 458 39 514 Q40 526 46.5 532.5 Q53 539 62.5 542.5 Q72 546 82.5 547 Q93 548 102 549 Q151 552 196.5 545 Q242 538 278.5 518.5 Q315 499 340.5 466 Q366 433 375 384 Q380 347 375 315 Q370 283 356.5 254.5 Q343 226 322.5 201 Q302 176 278 153 Z M149 434 L149 221 Q171 221 193.5 233 Q216 245 234 264 Q252 283 262.5 306.5 Q273 330 270 352 Q267 379 254.5 397.5 Q242 416 224 426 Q206 436 186 438 Q166 440 149 434 Z " />
<glyph glyph-name="S" unicode="S" horiz-adv-x="401" d="M109 188 Q115 177 120 168 Q125 159 130 150 Q137 137 150.5 128 Q164 119 179.5 114 Q195 109 211 108 Q227 107 241 112 Q260 120 268.5 134.5 Q277 149 275.5 164 Q274 179 263 192.5 Q252 206 232 213 Q218 218 204 222.5 Q190 227 176 232 Q148 242 122.5 254.5 Q97 267 77 284.5 Q57 302 45 325.5 Q33 349 33 381 Q33 432 53.5 468 Q74 504 108 525.5 Q142 547 184 553 Q226 559 268 549 Q290 542 312.5 531.5 Q335 521 348 510 Q355 505 356.5 499 Q358 493 356 485 Q350 463 341.5 443.5 Q333 424 320 407 Q312 397 307.5 397 Q303 397 295 406 Q281 421 266 432.5 Q251 444 231 449 Q201 455 175 440 Q155 427 151.5 405.5 Q148 384 165 367 Q180 354 196.5 344.5 Q213 335 230.5 327.5 Q248 320 265 312.5 Q282 305 298 296 Q339 274 359 243 Q379 212 382 178.5 Q385 145 372.5 112.5 Q360 80 335 55 Q310 30 275 15.5 Q240 1 198 4 Q136 8 91.5 38 Q47 68 21 119 Q19 124 20.5 129.5 Q22 135 26 138 Q40 151 61.5 166 Q83 181 109 188 Z " />
<glyph glyph-name="T" unicode="T" horiz-adv-x="386" d="M137 450 Q109 445 85.5 438.5 Q62 432 41 432 Q28 430 21.5 441 Q15 452 12.5 468 Q10 484 10.5 499.5 Q11 515 13 521 Q15 535 18.5 539 Q22 543 36 545 Q118 555 197 557.5 Q276 560 357 554 Q374 551 375 535 Q376 525 376.5 509 Q377 493 374 478 Q371 463 364 452.5 Q357 442 343 443 Q303 446 282 448 Q261 450 244 450 Q242 341 242 235.5 Q242 130 251 30 Q253 16 252 10.5 Q251 5 237 3 Q214 -1 189.5 -3 Q165 -5 142 -2 L139 -2 Q122 0 119 4 Q116 8 118 25 Q129 125 133 234 Q137 343 137 450 Z " />
<glyph glyph-name="U" unicode="U" horiz-adv-x="436" d="M20 504 Q21 514 22.5 521.5 Q24 529 33 533 Q73 548 118 543 Q132 541 136.5 535.5 Q141 530 140 517 Q138 475 135.5 430.5 Q133 386 132 342.5 Q131 299 134 258 Q137 217 145 183 Q148 173 152 161.5 Q156 150 163 140.5 Q170 131 181 125 Q192 119 209 119 Q225 119 236 128.5 Q247 138 254.5 152 Q262 166 266 182.5 Q270 199 273 213 Q284 275 285.5 345.5 Q287 416 287 483 Q286 502 285.5 518 Q285 534 303 541 Q326 549 351.5 547 Q377 545 400 540 Q411 537 414.5 533 Q418 529 418 517 Q416 476 416.5 422 Q417 368 413.5 310.5 Q410 253 400 197.5 Q390 142 367.5 98.5 Q345 55 306 28.5 Q267 2 207 3 Q149 4 112.5 30.5 Q76 57 55 99.5 Q34 142 25.5 196 Q17 250 15.5 305.5 Q14 361 16.5 413 Q19 465 20 504 Z " />
<glyph glyph-name="V" unicode="V" horiz-adv-x="407" d="M207 230 Q222 275 232 311.5 Q242 348 250 381 Q258 414 266 445 Q274 476 285 511 Q290 531 293.5 544 Q297 557 312 557 Q335 558 354.5 551 Q374 544 392 531 Q400 526 401 519.5 Q402 513 400 505 Q383 440 368.5 384 Q354 328 340.5 277.5 Q327 227 314.5 180.5 Q302 134 289 88 Q287 82 285.5 73.5 Q284 65 281 57 Q278 49 273.5 43 Q269 37 261 36 Q238 32 215 29 Q192 26 169 23 Q156 22 149 37 Q103 132 74.5 232.5 Q46 333 27 433 Q25 442 22 452.5 Q19 463 17.5 473.5 Q16 484 17 493.5 Q18 503 25 510 Q58 540 100 555 Q120 562 124 540 Q144 456 162.5 378 Q181 300 207 230 Z " />
<glyph glyph-name="W" unicode="W" horiz-adv-x="600" d="M184 263 Q200 305 211.5 346 Q223 387 231 429 Q234 447 253 452 Q270 456 287 460 Q304 464 321 466 Q339 468 346 462 Q353 456 358 438 Q367 400 377 363.5 Q387 327 395 294 Q420 357 437 415.5 Q454 474 472 530 Q477 545 481 548.5 Q485 552 501 550 Q524 547 545.5 539.5 Q567 532 587 517 Q595 510 596 507.5 Q597 505 593 495 Q555 370 526.5 259 Q498 148 477 37 Q474 21 470 17.5 Q466 14 451 16 Q431 17 411 19.5 Q391 22 371 24 Q362 25 357 29.5 Q352 34 349 42 Q333 77 321.5 112.5 Q310 148 298 183 Q289 202 284 181 Q275 149 263.5 112 Q252 75 244 43 Q240 25 223 24 Q204 23 185.5 21.5 Q167 20 148 18 Q125 15 117 37 Q79 145 58 256.5 Q37 368 15 478 Q10 504 32 515 Q48 523 63.5 532 Q79 541 96 548 Q113 555 119 551 Q125 547 128 529 Q139 459 151.5 393 Q164 327 184 263 Z " />
<glyph glyph-name="X" unicode="X" horiz-adv-x="416" d="M191 139 Q171 107 151.5 78.5 Q132 50 111 22 Q104 13 100 11.5 Q96 10 87 14 Q63 25 45.5 41.5 Q28 58 14 79 Q10 85 11.5 90.5 Q13 96 17 101 Q43 140 66 178.5 Q89 217 115 254 Q124 266 117 281 Q90 336 65.5 388 Q41 440 18 494 Q14 505 22 515 Q55 554 96 576 Q106 582 110.5 580.5 Q115 579 120 568 Q140 524 159.5 482 Q179 440 199 396 Q224 441 245.5 480 Q267 519 293 556 Q298 562 301.5 569.5 Q305 577 313 574 Q365 556 392 510 Q401 495 391 480 Q362 429 331 375.5 Q300 322 271 270 Q266 263 266.5 257 Q267 251 271 244 Q291 211 310 177.5 Q329 144 349 111 Q355 99 351.5 85.5 Q348 72 339.5 60 Q331 48 320 38 Q309 28 300 22 Q289 12 282 13 Q275 14 267 26 Q245 58 228 86.5 Q211 115 191 139 Z " />
<glyph glyph-name="Y" unicode="Y" horiz-adv-x="393" d="M203 366 Q217 407 235 444 Q253 481 276 517 Q280 522 284.5 530 Q289 538 295 544.5 Q301 551 307 555.5 Q313 560 320 558 Q339 553 355 544.5 Q371 536 385 522 Q395 511 395.5 505 Q396 499 388 486 Q352 430 320 372.5 Q288 315 263 253 Q259 244 259 230 Q260 174 260.5 124 Q261 74 261 24 Q254 18 237.5 16 Q221 14 204 14 Q187 14 173 16 Q159 18 158 21 Q157 26 157 30.5 Q157 35 157 40 L160 217 Q161 225 159 231 Q157 237 154 244 Q123 309 86.5 369 Q50 429 8 486 Q0 497 0.5 501.5 Q1 506 11 515 Q24 526 38 536.5 Q52 547 69 553 Q87 560 99 552 Q111 544 119 528 Q145 490 164.5 447.5 Q184 405 203 366 Z " />
<glyph glyph-name="Z" unicode="Z" horiz-adv-x="357" d="M219 434 Q169 428 125.5 419.5 Q82 411 37 400 Q34 409 31 417 Q28 425 26 433 Q24 446 20.5 461 Q17 476 16.5 489 Q16 502 21 512 Q26 522 40 525 Q97 536 148 542.5 Q199 549 250 558 Q283 564 304 539 Q319 520 330 500 Q341 480 350 458 Q353 450 351 443 Q349 436 344 428 Q296 354 241.5 277.5 Q187 201 146 123 Q185 127 225 126.5 Q265 126 302 128 Q325 129 332 122.5 Q339 116 341 92 Q344 63 333 32 Q328 21 323.5 17.5 Q319 14 306 15 Q241 16 184 17.5 Q127 19 72 11 Q54 9 47 23 Q33 49 26 75 Q19 101 21 130 Q40 171 63.5 210 Q87 249 113.5 286.5 Q140 324 167 360.5 Q194 397 219 434 Z " />
<glyph glyph-name="bracketleft" unicode="&#x5b;" horiz-adv-x="252" d="M138 105 Q154 107 168 107.5 Q182 108 196 110 Q208 110 211 100 Q218 81 219 61.5 Q220 42 218 22 Q218 16 214 14 Q210 12 205 11 Q167 6 131.5 8 Q96 10 60 15 Q50 16 47 19.5 Q44 23 42 33 Q40 56 37.5 78 Q35 100 33 123 Q27 232 30.5 324 Q34 416 39 507 Q41 521 44.5 525 Q48 529 62 531 Q130 545 199 543 Q211 542 214.5 540 Q218 538 220 527 Q222 510 222 492 Q222 474 222 457 Q221 446 207 445 Q193 444 185 444 Q173 443 161 443 Q149 443 135 442 Q129 357 129 273.5 Q129 190 138 105 Z " />
<glyph glyph-name="backslash" unicode="&#x5c;" horiz-adv-x="278" d="M244 44 Q249 31 246.5 21 Q244 11 227 8 Q204 0 180.5 -1.5 Q157 -3 133 -2 Q125 -1 122.5 1.5 Q120 4 119 13 Q116 63 111.5 120.5 Q107 178 99.5 239 Q92 300 81.5 363 Q71 426 57 486 Q55 493 51 506 Q47 519 44.5 532.5 Q42 546 43.5 557.5 Q45 569 54 572 Q72 578 90.5 583.5 Q109 589 128 592 Q146 595 152 589 Q158 583 160 565 Q177 437 194.5 308 Q212 179 244 44 Z " />
<glyph glyph-name="bracketright" unicode="&#x5d;" horiz-adv-x="252" d="M113 445 Q97 444 83 443.5 Q69 443 55 441 Q44 440 40 450 Q34 470 32.5 489 Q31 508 33 528 Q34 538 47 540 Q60 542 85.5 545 Q111 548 137.5 548 Q164 548 185 541.5 Q206 535 209 518 Q216 462 219 402 Q222 342 222 281.5 Q222 221 219.5 161 Q217 101 212 44 Q211 30 207.5 26 Q204 22 190 19 Q120 7 53 8 Q41 8 37 10.5 Q33 13 32 24 Q30 41 30 58.5 Q30 76 30 93 Q30 103 43 105 Q61 107 79.5 107.5 Q98 108 116 108 Q122 193 122.5 276.5 Q123 360 113 445 Z " />
<glyph glyph-name="asciicircum" unicode="&#x5e;" horiz-adv-x="215" d="M103 537 Q96 525 91 516 Q86 507 81 498 Q72 482 68 480.5 Q64 479 48 487 Q43 489 39 491 Q35 493 30 495 Q19 501 23 512 Q48 569 75 618 Q80 627 88.5 631.5 Q97 636 106.5 636 Q116 636 124 632 Q132 628 137 620 Q151 597 161 573 Q171 549 182 524 Q185 513 183 508 Q181 503 171 498 Q164 495 158 491.5 Q152 488 145 485 Q136 481 131.5 483 Q127 485 122 494 Q117 504 113 514 Q109 524 103 537 Z " />
<glyph glyph-name="underscore" unicode="&#x5f;" horiz-adv-x="380" d="M33 33 Q31 52 29.5 71 Q28 90 28 110 Q28 120 33 122.5 Q38 125 53 123 Q120 118 187 119.5 Q254 121 321 124 Q335 125 339.5 123 Q344 121 344 112 Q344 95 342.5 79.5 Q341 64 339 47 Q337 37 332 34.5 Q327 32 311 32 Q243 31 192 30.5 Q141 30 93 29 Q86 29 75.5 28 Q65 27 55.5 26.5 Q46 26 39 27.5 Q32 29 33 33 Z " />
<glyph glyph-name="grave" unicode="&#x60;" horiz-adv-x="170" d="M138 555 Q140 550 141.5 545.5 Q143 541 140 537 Q129 523 110 517 Q100 514 96 522 Q88 543 73.5 558.5 Q59 574 43 590 Q37 596 41.5 602.5 Q46 609 55 614 Q64 619 74.5 623 Q85 627 90 627 Q97 627 103 619 Q112 603 120.5 587.5 Q129 572 138 555 Z " />
<glyph glyph-name="a" unicode="a" horiz-adv-x="389" d="M259 397 Q257 409 257 416.5 Q257 424 260 428 Q263 432 269.5 435 Q276 438 288 441 Q299 444 313 447.5 Q327 451 339 450.5 Q351 450 359.5 443.5 Q368 437 367 422 Q362 311 362.5 219 Q363 127 368 38 Q369 22 358 16 Q347 10 332 10 Q317 10 301.5 14 Q286 18 278 21 Q262 27 258.5 32.5 Q255 38 256 55 Q236 45 218.5 38.5 Q201 32 184 28.5 Q167 25 150 25 Q133 25 114 29 Q66 42 42.5 79.5 Q19 117 13.5 162.5 Q8 208 18.5 254 Q29 300 50 330 Q69 361 94.5 380 Q120 399 148 406.5 Q176 414 204.5 411.5 Q233 409 259 397 Z M240 272 Q235 287 226.5 294.5 Q218 302 207.5 303.5 Q197 305 185.5 301.5 Q174 298 164 292 Q152 283 143.5 269.5 Q135 256 131 240.5 Q127 225 127 209 Q127 193 132 178 Q138 159 152.5 148.5 Q167 138 187 139 Q209 142 221 157 Q233 172 238.5 192 Q244 212 243.5 234 Q243 256 240 272 Z " />
<glyph glyph-name="b" unicode="b" horiz-adv-x="385" d="M143 411 Q185 425 225 418 Q265 411 297.5 387.5 Q330 364 351.5 327.5 Q373 291 378 246 Q387 172 364 122 Q341 72 297.5 43.5 Q254 15 196 7 Q138 -1 78 11 Q69 12 60 13 Q51 14 43.5 16.5 Q36 19 31.5 24 Q27 29 27 40 Q27 140 27.5 213.5 Q28 287 28 344.5 Q28 402 27 447.5 Q26 493 24 536 Q24 552 36 555 Q62 562 85.5 565 Q109 568 135 568 Q148 567 151.5 563 Q155 559 153 547 Q150 510 146.5 477 Q143 444 143 411 Z M137 282 L137 124 Q162 118 189.5 122 Q217 126 239 139 Q261 152 272 174 Q283 196 276 226 Q271 248 256 263.5 Q241 279 221 286.5 Q201 294 178.5 293.5 Q156 293 137 282 Z " />
<glyph glyph-name="c" unicode="c" horiz-adv-x="350" d="M289 254 Q272 273 256 287.5 Q240 302 217 307 Q189 310 171 297 Q153 284 144 263 Q135 242 134 217.5 Q133 193 139 174 Q148 142 171.5 129 Q195 116 230 124 Q238 126 244.5 129.5 Q251 133 258 136 Q265 139 271.5 140 Q278 141 286 139 Q313 129 328 103 Q335 88 327.5 73 Q320 58 305 45.5 Q290 33 271.5 24.5 Q253 16 240 14 Q205 6 171.5 10 Q138 14 110 29 Q82 44 61 70 Q40 96 30 132 Q16 178 22 226 Q28 274 50.5 314.5 Q73 355 110 384.5 Q147 414 195 422 Q286 430 335 357 Q342 347 340 336 Q338 316 323 292 Q308 268 289 254 Z " />
<glyph glyph-name="d" unicode="d" horiz-adv-x="407" d="M252 549 Q252 559 258.5 563.5 Q265 568 274.5 569 Q284 570 294 569 Q304 568 311 567 Q342 562 369 555 Q378 553 380 549.5 Q382 546 381 535 Q374 405 373.5 285.5 Q373 166 373 48 Q373 38 366 31 Q359 24 349 19.5 Q339 15 327.5 12 Q316 9 307 8 Q263 2 221.5 4.5 Q180 7 143.5 20 Q107 33 78 58.5 Q49 84 30 126 Q16 160 15 196.5 Q14 233 23 266.5 Q32 300 51.5 329.5 Q71 359 100 379 Q115 389 134 397.5 Q153 406 174 410.5 Q195 415 216.5 415 Q238 415 257 410 Q259 447 258 481.5 Q257 516 252 549 Z M264 283 Q246 293 228 294 Q210 295 191 290 Q168 282 152 265.5 Q136 249 129.5 228.5 Q123 208 128 185.5 Q133 163 151 144 Q174 121 203 118 Q232 115 264 124 L264 283 Z " />
<glyph glyph-name="e" unicode="e" horiz-adv-x="364" d="M161 135 Q167 116 184.5 112.5 Q202 109 220 114 Q231 116 241.5 121.5 Q252 127 260 133 Q270 139 278 147 Q291 141 304.5 128 Q318 115 326 101 Q331 90 328 80 Q325 70 318 61.5 Q311 53 301 45.5 Q291 38 282 34 Q244 16 204 13.5 Q164 11 128 24 Q92 37 65 65 Q38 93 28 137 Q17 183 20.5 230.5 Q24 278 43 317.5 Q62 357 96.5 384.5 Q131 412 182 418 Q212 422 240 415.5 Q268 409 291 394 Q314 379 329.5 357 Q345 335 349 307 Q353 281 350 254.5 Q347 228 326 213 Q311 201 289 190 Q267 179 244 169 Q221 159 198.5 150.5 Q176 142 161 135 Z M251 274 Q239 292 225.5 301 Q212 310 192 307 Q178 305 167 295.5 Q156 286 148.5 271.5 Q141 257 138 240 Q135 223 138 207 Q166 220 195.5 237.5 Q225 255 251 274 Z " />
<glyph glyph-name="f" unicode="f" horiz-adv-x="250" d="M150 306 Q165 307 183.5 310.5 Q202 314 216 310 Q231 310 230 294 Q229 271 228.5 247 Q228 223 226 200 Q226 198 225.5 195.5 Q225 193 224 189 L142 189 Q140 149 142 111 Q144 73 146 35 Q146 23 143.5 19 Q141 15 129 14 Q111 12 93.5 11.5 Q76 11 58 10 Q44 11 36.5 12.5 Q29 14 29 27 Q30 73 28 124.5 Q26 176 26.5 228.5 Q27 281 33 330.5 Q39 380 55.5 422.5 Q72 465 102.5 496.5 Q133 528 183 544 Q193 547 208.5 549 Q224 551 238.5 549.5 Q253 548 263 541.5 Q273 535 272 521 Q270 505 267.5 489 Q265 473 263 456 Q261 444 258.5 440.5 Q256 437 245 438 Q216 440 198.5 429 Q181 418 170.5 398.5 Q160 379 155.5 354.5 Q151 330 150 306 Z " />
<glyph glyph-name="g" unicode="g" horiz-adv-x="404" d="M204 423 Q221 473 250 509 Q270 534 301 527 Q344 516 370 485 Q349 464 330.5 442 Q312 420 297 394 Q332 364 352.5 327 Q373 290 376 245 Q382 154 330 83 Q368 32 374.5 -22 Q381 -76 359 -133 Q344 -166 319 -189 Q294 -212 263.5 -225.5 Q233 -239 199.5 -242 Q166 -245 134 -237 Q102 -227 79 -206.5 Q56 -186 40.5 -159 Q25 -132 18 -102 Q11 -72 13 -42 Q13 -24 28 -16 Q51 -2 75.5 3.5 Q100 9 127 3 Q141 0 147 -6.5 Q153 -13 151 -27 Q148 -43 148.5 -60 Q149 -77 153.5 -91.5 Q158 -106 168 -116.5 Q178 -127 195 -130 Q209 -132 224 -123 Q239 -114 247 -98 Q259 -75 257 -40 Q255 -5 233 21 Q193 13 156.5 24 Q120 35 91 58.5 Q62 82 43.5 115.5 Q25 149 21 187 Q18 229 29.5 272 Q41 315 65 349 Q89 383 124 404 Q159 425 204 423 Z M254 278 Q239 305 210 308.5 Q181 312 160 291 Q148 279 140.5 263.5 Q133 248 130 231 Q127 214 129 197 Q131 180 139 165 Q147 148 159.5 139 Q172 130 186 128 Q200 126 214.5 131.5 Q229 137 241 151 Q264 179 267.5 214.5 Q271 250 254 278 Z " />
<glyph glyph-name="h" unicode="h" horiz-adv-x="396" d="M248 410 Q280 412 302.5 399.5 Q325 387 338.5 366 Q352 345 358.5 318 Q365 291 366 264 Q368 198 369.5 142 Q371 86 373 31 Q373 20 370.5 15.5 Q368 11 357 9 Q312 0 270 27 Q256 36 258 53 Q260 81 263.5 112.5 Q267 144 268.5 175.5 Q270 207 267.5 237 Q265 267 255 292 Q250 304 240.5 307 Q231 310 221 306.5 Q211 303 201.5 296 Q192 289 187 282 Q170 256 161 227 Q152 198 148 168 Q144 138 143.5 107.5 Q143 77 144 48 Q144 43 144.5 37 Q145 31 145 26 Q145 20 146 14 Q141 12 130 10 Q119 8 105.5 6.5 Q92 5 77.5 5 Q63 5 53 8 Q40 11 36.5 15.5 Q33 20 33 33 Q34 116 35.5 183 Q37 250 37 307.5 Q37 365 36 415.5 Q35 466 32 515 Q31 537 34.5 542 Q38 547 59 551 Q79 555 98 556.5 Q117 558 137 560 Q149 562 156 556 Q163 550 161 539 Q156 491 152.5 447 Q149 403 147 358 Q170 378 193.5 393 Q217 408 248 410 Z " />
<glyph glyph-name="i" unicode="i" horiz-adv-x="185" d="M153 29 Q154 12 140 9 Q118 4 94.5 8.5 Q71 13 54 18 Q38 27 39 44 Q43 134 47 219.5 Q51 305 39 389 Q38 397 39.5 402.5 Q41 408 49 412 Q69 420 88.5 425.5 Q108 431 130 429 Q142 427 146 422.5 Q150 418 150 407 Q146 300 145 208.5 Q144 117 153 29 Z M98 571 Q123 571 140 553.5 Q157 536 156 511 Q156 487 139 470 Q122 453 98 452 Q74 452 56.5 469.5 Q39 487 39 512 Q39 536 56 553.5 Q73 571 98 571 Z " />
<glyph glyph-name="j" unicode="j" horiz-adv-x="173" d="M36 -106 Q23 -114 16 -118.5 Q9 -123 3 -123 Q-3 -123 -9.5 -117.5 Q-16 -112 -26 -101 Q-39 -90 -46 -75.5 Q-53 -61 -58 -44 Q-60 -37 -55 -30.5 Q-50 -24 -43 -19.5 Q-36 -15 -28.5 -11.5 Q-21 -8 -16 -6 Q-1 4 7.5 18 Q16 32 21 47 Q26 62 28 78.5 Q30 95 32 110 Q37 186 36.5 254.5 Q36 323 31 390 Q29 403 40 407 Q60 415 79.5 420.5 Q99 426 121 424 Q133 422 137 418 Q141 414 141 402 Q141 366 143 321 Q145 276 145 226.5 Q145 177 141 127.5 Q137 78 125.5 33.5 Q114 -11 92.5 -47.5 Q71 -84 36 -106 Z M92 566 Q117 565 134 547.5 Q151 530 150 506 Q149 482 132 465 Q115 448 91 448 Q67 447 49.5 465 Q32 483 32 507 Q32 532 49.5 549 Q67 566 92 566 Z " />
<glyph glyph-name="k" unicode="k" horiz-adv-x="352" d="M142 268 Q162 277 176 294.5 Q190 312 201.5 332.5 Q213 353 222 375.5 Q231 398 241 418 Q246 428 250.5 431 Q255 434 265 430 Q280 424 295.5 418 Q311 412 325 404 Q336 399 337 394.5 Q338 390 334 379 Q314 329 288.5 291 Q263 253 237 214 Q265 180 289 149.5 Q313 119 336 88 Q343 79 336 72 Q319 56 300 45 Q281 34 261 23 Q253 18 246 30 Q228 60 210 89.5 Q192 119 175 148 Q169 158 161.5 163 Q154 168 140 165 Q142 133 141.5 99 Q141 65 142 36 Q142 30 141 26 Q140 22 134 20 Q112 15 90.5 12 Q69 9 46 16 Q35 20 32 25 Q29 30 29 39 Q30 156 31.5 277 Q33 398 28 518 Q28 530 27 536.5 Q26 543 28 547 Q30 551 37 553.5 Q44 556 59 560 Q79 565 97.5 566.5 Q116 568 136 567 Q150 567 154 562.5 Q158 558 156 544 Q145 470 143.5 402.5 Q142 335 142 268 Z " />
<glyph glyph-name="l" unicode="l" horiz-adv-x="187" d="M67 555 Q83 557 99 557 Q115 557 131 557 Q142 556 145.5 552 Q149 548 149 537 Q148 482 147 438.5 Q146 395 145.5 353.5 Q145 312 144.5 270 Q144 228 144 176 Q145 162 144.5 147.5 Q144 133 145 121 Q146 109 149.5 101.5 Q153 94 161 95 Q175 97 177 84 Q178 72 179 61.5 Q180 51 180 38 Q181 33 176.5 27.5 Q172 22 167 20 Q154 13 131.5 10 Q109 7 87 11.5 Q65 16 48.5 31 Q32 46 32 76 Q32 146 32.5 204.5 Q33 263 33.5 316 Q34 369 34.5 420.5 Q35 472 35 529 Q36 549 44.5 552 Q53 555 67 555 Z " />
<glyph glyph-name="m" unicode="m" horiz-adv-x="526" d="M381 304 Q355 292 342 259 Q329 226 323.5 187.5 Q318 149 317.5 112 Q317 75 317 53 Q316 41 304.5 35 Q293 29 278 26.5 Q263 24 248 24.5 Q233 25 226 26 Q215 27 211.5 31 Q208 35 210 46 Q213 72 214 106.5 Q215 141 214.5 177 Q214 213 210 246.5 Q206 280 199 304 Q173 286 158.5 252 Q144 218 138 179 Q132 140 132.5 102 Q133 64 137 38 Q138 22 126 16.5 Q114 11 97.5 11 Q81 11 64.5 15 Q48 19 41 22 Q32 27 27.5 33 Q23 39 23 50 Q28 142 31.5 227.5 Q35 313 24 396 Q23 403 24.5 408.5 Q26 414 34 418 Q45 422 62.5 427.5 Q80 433 96 435 Q112 437 123.5 432 Q135 427 134 411 Q134 393 133.5 386 Q133 379 133 374 Q152 390 171 402.5 Q190 415 213 421 Q233 424 247 419 Q261 414 271 404.5 Q281 395 288.5 381.5 Q296 368 303 354 Q322 378 344 395.5 Q366 413 396 421 Q420 424 437 415.5 Q454 407 465.5 392 Q477 377 482.5 357.5 Q488 338 490 319 Q495 254 498.5 190 Q502 126 500 61 Q499 45 489 37.5 Q479 30 465 27 Q451 24 436 24.5 Q421 25 410 26 Q398 27 394.5 30.5 Q391 34 393 47 Q395 68 396.5 104.5 Q398 141 397 179 Q396 217 392.5 251.5 Q389 286 381 304 Z " />
<glyph glyph-name="n" unicode="n" horiz-adv-x="389" d="M137 372 Q155 384 172 395.5 Q189 407 206.5 414 Q224 421 243.5 422.5 Q263 424 285 418 Q311 408 324.5 386 Q338 364 344.5 337 Q351 310 352 282 Q353 254 355 233 Q357 188 357 144 Q357 100 358 55 Q358 40 354.5 36.5 Q351 33 336 28 Q303 19 267 22 Q256 24 252.5 27.5 Q249 31 251 42 Q256 102 254.5 161.5 Q253 221 244 281 Q240 294 232.5 297 Q225 300 216.5 296.5 Q208 293 200 286 Q192 279 187 272 Q172 253 161 225.5 Q150 198 144 167 Q138 136 136.5 104 Q135 72 139 43 Q141 32 140.5 22.5 Q140 13 127 11 Q84 2 45 19 Q33 24 30 29 Q27 34 28 48 Q30 123 32.5 196.5 Q35 270 32 345 Q31 358 30 370.5 Q29 383 27 395 Q26 408 37 414 Q49 418 66 424 Q83 430 98.5 431.5 Q114 433 125.5 428.5 Q137 424 137 408 L137 372 Z " />
<glyph glyph-name="o" unicode="o" horiz-adv-x="393" d="M329 75 Q307 48 279 32.5 Q251 17 220.5 13.5 Q190 10 159 18 Q128 26 100 46 Q65 71 44 108.5 Q23 146 17 187 Q11 228 19.5 269.5 Q28 311 54 346 Q81 379 115 396 Q149 413 185 414 Q221 415 255.5 401 Q290 387 317 358 Q344 328 358 291.5 Q372 255 373.5 217 Q375 179 363.5 142 Q352 105 329 75 Z M140 235 Q139 206 157.5 186 Q176 166 202 168 Q224 171 240 184 Q256 197 264 215 Q272 233 270.5 253 Q269 273 257 290 Q240 311 219.5 312 Q199 313 181.5 302.5 Q164 292 152 273.5 Q140 255 140 235 Z " />
<glyph glyph-name="p" unicode="p" horiz-adv-x="364" d="M132 -6 Q132 -23 131.5 -40 Q131 -57 132 -74 Q134 -97 130 -102.5 Q126 -108 102 -108 Q91 -108 76.5 -106 Q62 -104 49 -98.5 Q36 -93 28 -83.5 Q20 -74 21 -60 Q26 52 31 153.5 Q36 255 30 355 Q29 360 27.5 367.5 Q26 375 26 381.5 Q26 388 28 394 Q30 400 36 402 Q55 410 74 415.5 Q93 421 113 419 Q123 419 130 416 Q137 413 139 402 Q158 408 182 408.5 Q206 409 230.5 402 Q255 395 277 380 Q299 365 313 341 Q340 292 342.5 236.5 Q345 181 325 132 Q305 83 264 46.5 Q223 10 164 -1 Q156 -3 148 -4 Q140 -5 132 -6 Z M131 114 Q164 117 188.5 133.5 Q213 150 227 175 Q241 200 242.5 229 Q244 258 231 287 Q217 310 196.5 313 Q176 316 154 314 Q140 312 137.5 308.5 Q135 305 134 291 Q132 243 131.5 200 Q131 157 131 114 Z " />
<glyph glyph-name="q" unicode="q" horiz-adv-x="400" d="M256 84 Q251 76 247 70 Q243 64 239 59 Q224 35 201 22.5 Q178 10 153 8.5 Q128 7 103.5 17.5 Q79 28 61 50 Q36 82 26 126.5 Q16 171 20 216.5 Q24 262 40.5 304.5 Q57 347 85 374 Q124 409 168 409 Q212 409 250 379 Q252 386 253 392 Q254 398 255 403 Q256 414 267 416 Q289 419 309.5 417 Q330 415 351 409 Q362 405 362 391 Q361 363 360.5 336 Q360 309 359 281 Q358 224 359 179 Q360 134 364 98 Q368 62 376.5 32.5 Q385 3 400 -24 Q406 -36 409 -43 Q412 -50 411 -55.5 Q410 -61 404.5 -66 Q399 -71 389 -79 Q379 -87 369 -93.5 Q359 -100 349 -107 Q336 -115 327 -104 Q310 -85 299 -62 Q288 -39 280.5 -14.5 Q273 10 267.5 35 Q262 60 256 84 Z M152 145 Q169 126 184 146 Q204 176 214.5 209 Q225 242 229 275 Q231 292 219 302 Q207 311 197 312 Q187 313 178.5 308.5 Q170 304 163 295.5 Q156 287 150 277 Q144 262 139 244 Q134 226 133.5 208.5 Q133 191 137 174.5 Q141 158 152 145 Z " />
<glyph glyph-name="r" unicode="r" horiz-adv-x="286" d="M144 344 Q170 371 194 390.5 Q218 410 250 423 Q266 429 274 422 Q282 415 285.5 402.5 Q289 390 289.5 376 Q290 362 290 353 Q288 336 280.5 325.5 Q273 315 253 311 Q205 300 181 275.5 Q157 251 150 216 Q146 198 146 175 Q146 152 147.5 128.5 Q149 105 151.5 83 Q154 61 156 43 Q158 30 146.5 23.5 Q135 17 119 14 Q103 11 87 11 Q71 11 65 12 Q54 13 51.5 15.5 Q49 18 47 29 Q36 120 35 204 Q34 288 33 373 Q33 388 34 397 Q35 406 39.5 410.5 Q44 415 52.5 417 Q61 419 76 421 Q87 422 100 422.5 Q113 423 124 420 Q135 417 142 409.5 Q149 402 148 389 Q146 378 146 366.5 Q146 355 144 344 Z " />
<glyph glyph-name="s" unicode="s" horiz-adv-x="298" d="M165 3 Q127 4 93.5 14.5 Q60 25 33 51 Q22 61 16.5 67.5 Q11 74 10 80.5 Q9 87 11.5 95 Q14 103 19 115 Q22 122 29.5 135 Q37 148 47 158.5 Q57 169 67 172.5 Q77 176 86 165 Q92 158 101.5 150.5 Q111 143 122.5 136.5 Q134 130 145 126 Q156 122 165 122 Q185 123 179 144 Q176 153 168 161 Q160 169 150 175.5 Q140 182 129 188 Q118 194 109 199 Q53 221 37.5 261 Q22 301 36 344 Q51 379 77.5 400.5 Q104 422 136.5 430 Q169 438 203.5 432 Q238 426 270 406 Q280 399 279 386 Q277 364 271 344 Q265 324 252 305 Q245 295 240.5 294.5 Q236 294 228 303 Q211 320 185 328 Q175 330 164 327.5 Q153 325 150 314 Q147 301 157 294 Q167 287 175 281 Q210 258 238.5 233.5 Q267 209 281 169 Q291 137 286 107.5 Q281 78 264.5 54.5 Q248 31 222 17 Q196 3 165 3 Z " />
<glyph glyph-name="t" unicode="t" horiz-adv-x="236" d="M173 439 Q195 441 201 435.5 Q207 430 209 409 Q210 383 209 358 Q207 343 201 338 Q195 333 180 334 L165 334 Q163 323 162.5 300.5 Q162 278 162.5 252.5 Q163 227 164 204.5 Q165 182 166 172 Q171 136 202 122 Q217 114 217 98 Q217 83 216.5 67.5 Q216 52 215 36 Q214 18 194 12 Q183 10 169.5 10 Q156 10 141.5 13.5 Q127 17 114 24.5 Q101 32 92 44 Q71 71 61.5 107 Q52 143 49 182 Q46 221 47 259 Q48 297 48 328 Q43 329 38 327 Q33 325 28.5 325.5 Q24 326 21 332 Q18 338 17 355 Q16 368 17 380.5 Q18 393 20 406 Q22 417 25 420.5 Q28 424 40 424 Q46 424 51 425 Q53 437 53.5 449 Q54 461 55 473 Q55 493 72 497 Q93 505 115 509 Q137 513 160 513 Q171 513 175.5 508.5 Q180 504 179 492 Q177 478 176 465.5 Q175 453 173 439 Z " />
<glyph glyph-name="u" unicode="u" horiz-adv-x="366" d="M159 179 Q169 155 180.5 148.5 Q192 142 203 147.5 Q214 153 222.5 168 Q231 183 234 202 Q244 249 246 295 Q248 341 246 388 Q245 408 249 412.5 Q253 417 274 418 Q301 419 326 418 Q343 417 347.5 412.5 Q352 408 353 391 Q353 360 353.5 321 Q354 282 350.5 240.5 Q347 199 338.5 158.5 Q330 118 313 85.5 Q296 53 268 31.5 Q240 10 198 7 Q154 10 124 31 Q94 52 75.5 83.5 Q57 115 47.5 154 Q38 193 34.5 233.5 Q31 274 32 313 Q33 352 35 382 Q38 401 55 407 Q69 412 84 414 Q99 416 114 417 Q143 416 143 392 Q143 360 143 328.5 Q143 297 144.5 269.5 Q146 242 149 218.5 Q152 195 159 179 Z " />
<glyph glyph-name="v" unicode="v" horiz-adv-x="329" d="M167 200 Q190 248 203 298.5 Q216 349 228 397 Q231 408 234.5 410.5 Q238 413 248 414 Q285 414 316 400 Q330 394 332.5 387 Q335 380 332 366 Q311 278 286 197 Q261 116 231 36 Q226 21 211.5 15.5 Q197 10 179.5 9.5 Q162 9 145 12 Q128 15 118 18 Q104 22 99 38 Q68 120 48 200 Q28 280 15 361 Q13 376 15.5 381.5 Q18 387 32 394 Q46 401 60.5 406.5 Q75 412 89 418 Q100 422 105.5 419.5 Q111 417 115 403 Q129 346 141 297 Q153 248 167 200 Z " />
<glyph glyph-name="w" unicode="w" horiz-adv-x="473" d="M236 135 Q230 117 220.5 93.5 Q211 70 201 48 Q195 35 183 28.5 Q171 22 157 20 Q143 18 128.5 19.5 Q114 21 103 24 Q88 28 83 44 Q58 125 41 201.5 Q24 278 10 356 Q8 368 7.5 375.5 Q7 383 9.5 388.5 Q12 394 18.5 398 Q25 402 36 408 Q43 412 52.5 417.5 Q62 423 71 425.5 Q80 428 86.5 426 Q93 424 95 414 Q102 393 108.5 368 Q115 343 121.5 317.5 Q128 292 134.5 269 Q141 246 148 229 Q160 272 173.5 317.5 Q187 363 195 405 Q198 423 214 424 Q228 425 241.5 425.5 Q255 426 269 425 Q281 424 284.5 420.5 Q288 417 290 405 Q296 370 302.5 331 Q309 292 314 259 Q327 293 337 327.5 Q347 362 360 396 Q363 404 366 411 Q369 418 379 418 Q422 418 460 398 Q468 394 469 389.5 Q470 385 467 374 Q441 289 416 211 Q391 133 371 55 Q367 34 345 29 Q331 26 316 23.5 Q301 21 287 18 Q274 15 268 30 Q266 37 262 49.5 Q258 62 253.5 76.5 Q249 91 244.5 106.5 Q240 122 236 135 Z " />
<glyph glyph-name="x" unicode="x" horiz-adv-x="350" d="M181 119 Q161 93 142.5 68.5 Q124 44 105 20 Q100 12 96.5 11.5 Q93 11 84 16 Q47 36 24 68 Q16 77 24 89 Q48 124 69.5 158.5 Q91 193 115 225 Q95 260 73.5 293 Q52 326 31 358 Q23 371 23 376.5 Q23 382 33 393 Q43 403 54 413.5 Q65 424 76 430.5 Q87 437 97.5 437.5 Q108 438 116 428 Q134 404 151.5 380 Q169 356 186 330 Q203 355 217 377.5 Q231 400 245 426 Q250 434 254 435.5 Q258 437 267 434 Q277 429 291 420.5 Q305 412 317 401.5 Q329 391 335.5 380 Q342 369 337 359 Q318 321 295.5 288 Q273 255 251 221 Q271 192 284.5 159.5 Q298 127 315 97 Q325 81 313 68 Q302 56 291.5 44 Q281 32 269 21 Q260 12 254 13.5 Q248 15 241 26 Q226 49 211 72 Q196 95 181 119 Z " />
<glyph glyph-name="y" unicode="y" horiz-adv-x="345" d="M309 421 Q317 419 322 404.5 Q327 390 329.5 371 Q332 352 333 333.5 Q334 315 334 306 Q333 242 324 172.5 Q315 103 291.5 41.5 Q268 -20 225.5 -67 Q183 -114 116 -133 Q102 -136 95 -123.5 Q88 -111 84 -94 Q80 -77 79.5 -59.5 Q79 -42 79 -35 Q80 -24 82 -21 Q84 -18 95 -16 Q117 -11 133.5 -3 Q150 5 163 18 Q96 23 61 75 Q45 98 35.5 128.5 Q26 159 21.5 193 Q17 227 16.5 261 Q16 295 19 324.5 Q22 354 28 376.5 Q34 399 41 409 Q50 412 66 417 Q82 422 98 423.5 Q114 425 125 420 Q136 415 133 399 Q129 376 123.5 338 Q118 300 117.5 260.5 Q117 221 124.5 186.5 Q132 152 154 136 Q166 128 176.5 128.5 Q187 129 199 143 Q208 156 212.5 186 Q217 216 218.5 253.5 Q220 291 220 330.5 Q220 370 219 401 Q219 412 231 417 Q243 422 258 423.5 Q273 425 287.5 423.5 Q302 422 309 421 Z " />
<glyph glyph-name="z" unicode="z" horiz-adv-x="330" d="M299 315 Q266 262 233 212 Q200 162 160 114 Q186 114 213 115 Q240 116 266 116 Q277 116 280.5 113 Q284 110 287 101 Q293 78 291.5 57 Q290 36 282 14 Q225 12 174 9.5 Q123 7 72 -1 Q60 -3 54 8 Q43 28 34.5 48 Q26 68 21 91 Q20 94 21 98 Q22 102 24 105 Q58 160 94.5 213 Q131 266 176 314 Q143 312 113 305 Q83 298 53 290 Q42 307 37 324 Q32 341 30 360 Q28 377 29 384.5 Q30 392 33.5 395.5 Q37 399 44 400.5 Q51 402 62 406 Q104 416 145.5 419 Q187 422 229 422 Q249 422 262 406 Q269 397 276.5 384 Q284 371 290 357.5 Q296 344 299 332.5 Q302 321 299 315 Z " />
<glyph glyph-name="braceleft" unicode="&#x7b;" horiz-adv-x="283" d="M163 266 Q168 261 171 257.5 Q174 254 178 251 Q202 227 191 194 Q188 186 181 170 Q174 154 170 138 Q166 122 169 109.5 Q172 97 190 95 Q206 95 226 100 Q235 102 239.5 100.5 Q244 99 249 91 Q253 83 257 71.5 Q261 60 262 48 Q263 36 260.5 26 Q258 16 249 10 Q196 -26 137 0 Q116 10 104 25 Q92 40 86.5 58.5 Q81 77 81.5 97 Q82 117 87 137 Q94 170 79.5 185.5 Q65 201 43 210 Q40 210 38 211 Q23 216 19.5 219.5 Q16 223 16 239 Q16 257 19 275 Q21 284 26.5 288.5 Q32 293 39.5 295 Q47 297 55.5 297.5 Q64 298 70 300 Q95 309 93 336 Q92 356 87.5 374.5 Q83 393 81 411 Q80 444 95.5 473 Q111 502 135.5 520 Q160 538 190.5 542 Q221 546 251 530 Q259 525 262 518.5 Q265 512 264 503 Q262 486 255 470 Q248 454 240 439 Q234 429 221 433 Q208 440 195 441 Q175 443 167 432 Q159 421 167 402 Q173 388 179.5 376.5 Q186 365 191 352 Q202 331 199 314 Q196 297 180 280 Q176 276 172 273 Q168 270 163 266 Z " />
<glyph glyph-name="bar" unicode="&#x7c;" horiz-adv-x="202" d="M169 18 Q171 3 168 -4.5 Q165 -12 147 -15 Q123 -18 99.5 -16.5 Q76 -15 53 -10 Q45 -8 42.5 -5 Q40 -2 41 6 Q42 16 43 25 Q44 34 46 44 Q54 108 56.5 170 Q59 232 58 294.5 Q57 357 54 420 Q51 483 48 548 Q47 560 49.5 563.5 Q52 567 63 569 Q82 572 101 574.5 Q120 577 139 578 Q157 578 162 571.5 Q167 565 167 546 Q164 414 160 282 Q156 150 169 18 Z " />
<glyph glyph-name="braceright" unicode="&#x7d;" horiz-adv-x="301" d="M121 268 Q116 273 113 276.5 Q110 280 107 283 Q84 306 93 339 Q97 350 101 359.5 Q105 369 110 379 Q113 387 115 397 Q117 407 116.5 416 Q116 425 111 431.5 Q106 438 94 439 Q79 439 59 434 Q49 432 44.5 433.5 Q40 435 35 443 Q18 477 27 513 Q28 518 36 524 Q63 540 92.5 542 Q122 544 146.5 533.5 Q171 523 187 500.5 Q203 478 203 445 Q203 433 202 421 Q201 409 198 397 Q194 380 196.5 368 Q199 356 205.5 348 Q212 340 221 334 Q230 328 241 324 Q245 324 247 323 Q262 318 265 314.5 Q268 311 268 295 Q268 286 268 277 Q268 268 266 259 Q264 248 260 245 Q256 242 244 240 Q223 238 207 229 Q191 220 191 197 Q195 174 198.5 157 Q202 140 204 123 Q208 89 193 60 Q178 31 152.5 13 Q127 -5 95.5 -9 Q64 -13 34 4 Q19 12 21 31 Q23 48 29.5 64 Q36 80 44 95 Q48 101 53.5 101.5 Q59 102 65.5 100.5 Q72 99 78 96.5 Q84 94 89 93 Q109 91 117.5 102 Q126 113 118 132 Q113 146 105.5 157 Q98 168 93 181 Q83 203 86 220 Q89 237 105 254 Q109 258 113 261 Q117 264 121 268 Z " />
<glyph glyph-name="asciitilde" unicode="&#x7e;" horiz-adv-x="361" d="M267 313 Q290 304 305.5 289.5 Q321 275 332 255 Q338 243 331 233 Q320 216 305.5 202 Q291 188 273 178 Q250 167 230 173.5 Q210 180 190 190 Q168 202 147 186 Q134 175 120 160 Q110 149 106 149 Q102 149 90 157 Q75 168 63.5 182 Q52 196 41 211 Q34 221 40 231 Q51 252 68 270 Q85 288 105.5 298.5 Q126 309 148.5 308.5 Q171 308 192 293 Q194 292 196 290.5 Q198 289 201 288 Q212 281 221 281.5 Q230 282 238.5 286.5 Q247 291 254 298.5 Q261 306 267 313 Z " />
<glyph glyph-name="Lslash" unicode="&#x141;" horiz-adv-x="329" d="M291 119 Q296 114 305 100.5 Q314 87 319.5 72.5 Q325 58 323.5 45.5 Q322 33 306 31 Q277 26 246.5 20.5 Q216 15 185.5 12 Q155 9 124 9 Q93 9 62 14 Q50 16 48 28 Q46 40 46 52 L49 244 Q38 244 27.5 243 Q17 242 2 240 Q-2 242 -3.5 251 Q-5 260 -5.5 272.5 Q-6 285 -5.5 299 Q-5 313 -5 325 Q-5 335 -1.5 337.5 Q2 340 12 339 Q21 337 30.5 336.5 Q40 336 49 335 Q49 380 48 427 Q47 474 45 532 Q45 548 47.5 551.5 Q50 555 65 560 Q88 567 111 569 Q134 571 157 569 Q177 569 174 550 Q166 496 164 443.5 Q162 391 160 337 Q168 338 177 338.5 Q186 339 194 339 Q204 340 207 338 Q210 336 210 327 Q210 294 207 263 Q205 252 202 249.5 Q199 247 188 247 Q183 247 177 247.5 Q171 248 157 247 Q157 213 155.5 176.5 Q154 140 159 112 Q187 115 214.5 117.5 Q242 120 270 123 Q276 124 281 124 Q286 124 291 119 Z " />
<glyph glyph-name="lslash" unicode="&#x142;" horiz-adv-x="233" d="M209 339 Q219 340 221.5 338 Q224 336 224 327 Q224 294 221 263 Q220 252 216.5 249.5 Q213 247 202 247 Q197 247 190 247.5 Q183 248 162 247 Q162 234 161.5 226 Q161 218 161 211.5 Q161 205 161 199 Q161 193 161 186 Q161 178 161 165.5 Q161 153 162.5 141.5 Q164 130 168.5 121.5 Q173 113 183 114 Q189 115 194.5 112.5 Q200 110 200 104 Q202 92 202.5 80.5 Q203 69 204 57 Q205 47 197.5 41.5 Q190 36 185 34 Q128 12 93 32.5 Q58 53 58 118 Q58 145 58 159.5 Q58 174 58 185 Q58 196 58.5 208.5 Q59 221 59 244 Q56 244 48.5 242.5 Q41 241 33 240.5 Q25 240 19 241 Q13 242 13 248 Q12 268 11 286.5 Q10 305 9 325 Q9 335 12.5 337.5 Q16 340 26 339 Q42 336 60 336 Q60 386 58.5 436.5 Q57 487 57 545 Q54 562 63.5 565.5 Q73 569 89 571 Q105 572 120.5 572.5 Q136 573 153 572 Q164 572 167 568 Q170 564 170 553 Q170 518 169.5 491 Q169 464 168 439.5 Q167 415 166.5 390.5 Q166 366 165 336 Q176 337 187 337.5 Q198 338 209 339 Z " />
<glyph glyph-name="breve" unicode="&#x2d8;" horiz-adv-x="174" d="M73 624 Q75 618 75 610.5 Q75 603 75.5 596.5 Q76 590 78 585.5 Q80 581 86 581 Q92 582 94 591.5 Q96 601 98 609 Q100 624 103 627 Q106 630 117 630 Q146 629 147 606 Q149 572 133 546 Q121 525 96 520.5 Q71 516 52 532 Q35 546 30 567.5 Q25 589 26 612 Q27 619 33 622.5 Q39 626 46 627 Q53 628 60.5 627 Q68 626 73 624 Z " />
<glyph glyph-name="dotaccent" unicode="&#x2d9;" horiz-adv-x="156" d="M47 572 Q46 586 57.5 599 Q69 612 88 611 Q104 609 115 598.5 Q126 588 126 572 Q126 555 113.5 543 Q101 531 84 532 Q68 533 57.5 544 Q47 555 47 572 Z " />
<glyph glyph-name="ring" unicode="&#x2da;" horiz-adv-x="161" d="M142 572 Q142 549 125 532 Q108 515 85 516 Q62 518 46 534.5 Q30 551 31 574 Q31 597 48 612.5 Q65 628 88 627 Q111 627 126.5 611 Q142 595 142 572 Z M85 587 Q78 587 75.5 581.5 Q73 576 75 571 Q78 562 86 562 Q90 562 92.5 566.5 Q95 571 95 576 Q95 580 92.5 583.5 Q90 587 85 587 Z " />
<glyph glyph-name="hungarumlaut" unicode="&#x2dd;" horiz-adv-x="280" d="M114 623 Q119 621 127 615 Q135 609 141 602 Q147 595 147.5 587.5 Q148 580 139 574 Q120 563 102 551.5 Q84 540 70 521 Q65 522 57.5 527.5 Q50 533 45 540 Q40 547 38.5 555 Q37 563 43 569 Q56 582 68 594.5 Q80 607 93 620 Q102 629 114 623 Z M203 605 Q207 602 214.5 595 Q222 588 227.5 580 Q233 572 232.5 564.5 Q232 557 222 553 Q202 545 182.5 536 Q163 527 146 510 Q140 512 133.5 518.5 Q127 525 123 532.5 Q119 540 119 548 Q119 556 126 561 Q140 572 154 583 Q168 594 182 605 Q192 612 203 605 Z " />
<glyph glyph-name="ogonek" unicode="&#x2db;" horiz-adv-x="167" d="M67 69 Q70 36 68 0.5 Q66 -35 72 -57 Q76 -68 80.5 -64 Q85 -60 86 -48 Q87 -41 87.5 -34 Q88 -27 88 -20 Q89 -8 101 -7 Q126 -4 134.5 -9 Q143 -14 142 -40 Q142 -54 139.5 -69 Q137 -84 131 -97 Q123 -114 110 -122.5 Q97 -131 83 -132 Q69 -133 55 -127 Q41 -121 32 -109 Q21 -95 16 -76 Q11 -57 9.5 -36 Q8 -15 9 6 Q10 27 11 47 Q11 59 23 62 Q34 64 44.5 65.5 Q55 67 67 69 Z " />
<glyph glyph-name="caron" unicode="&#x2c7;" horiz-adv-x="161" d="M59 608 Q65 596 70 586 Q75 576 80 565 Q85 574 89.5 581.5 Q94 589 98 596 Q107 612 119 600 Q128 591 133 586.5 Q138 582 138.5 578 Q139 574 136.5 568.5 Q134 563 129 552 Q124 541 119.5 529 Q115 517 110 506 Q105 495 99 492.5 Q93 490 82 490 Q70 491 64 493.5 Q58 496 53 507 Q46 522 38.5 537 Q31 552 23 568 Q19 576 19 580 Q19 584 27 589 Q35 594 43 598.5 Q51 603 59 608 Z " />
<glyph glyph-name="circumflex" unicode="&#x2c6;" horiz-adv-x="174" d="M89 555 Q83 543 79 533.5 Q75 524 70 515 Q65 515 57 517.5 Q49 520 42 524.5 Q35 529 31 534.5 Q27 540 30 547 Q38 565 47 582.5 Q56 600 65 618 Q69 625 79.5 627 Q90 629 96 629 Q107 629 110 626.5 Q113 624 118 615 Q124 600 130.5 585 Q137 570 143 555 Q148 544 147 541 Q146 538 138 529 Q127 518 120 517 Q113 516 107.5 521.5 Q102 527 98 536.5 Q94 546 89 555 Z " />
<glyph glyph-name="tilde" unicode="&#x2dc;" horiz-adv-x="208" d="M152 606 Q155 604 159 603 Q163 602 166 600 Q183 590 184.5 576 Q186 562 173 548 Q166 540 158.5 535 Q151 530 140 528 Q124 525 112 535 Q99 543 91 541.5 Q83 540 73 532 Q62 523 55.5 524 Q49 525 41 536 Q30 553 29.5 563 Q29 573 49 590 Q72 610 99 595 Q117 585 123.5 586 Q130 587 145 601 Q147 603 148.5 603.5 Q150 604 152 606 Z " />
<glyph glyph-name="dieresis" unicode="&#xa8;" horiz-adv-x="226" d="M155 603 Q172 603 183 591.5 Q194 580 194 563 Q193 547 181 535.5 Q169 524 152 525 Q137 525 125.5 537 Q114 549 115 565 Q115 581 126.5 592.5 Q138 604 155 603 Z M31 565 Q30 579 41.5 592 Q53 605 71 604 Q87 602 98 591.5 Q109 581 110 565 Q110 548 97.5 536 Q85 524 68 525 Q52 526 41 537 Q30 548 31 565 Z " />
<glyph glyph-name="cedilla" unicode="&#xb8;" horiz-adv-x="138" d="M75 14 Q98 15 112 7.5 Q126 0 131 -21 Q138 -64 102 -94 Q96 -99 88 -103.5 Q80 -108 71.5 -111 Q63 -114 55 -113.5 Q47 -113 42 -108 Q34 -100 30.5 -86 Q27 -72 29 -58 Q34 -57 38 -57 Q42 -57 47 -56 Q52 -54 62 -51 Q72 -48 68 -40 Q67 -38 64.5 -36.5 Q62 -35 60 -35 Q49 -36 43.5 -40 Q38 -44 30 -47 Q23 -45 21.5 -36.5 Q20 -28 20 -23 Q19 -1 19 17.5 Q19 36 18 58 Q18 72 31 75 Q40 77 48 79 Q56 81 65 82 Q79 85 78 70 Q75 41 75 14 Z " />
<glyph glyph-name="acute" unicode="&#xb4;" horiz-adv-x="171" d="M142 604 Q152 592 139 583 Q122 569 105.5 554.5 Q89 540 78 520 Q69 522 59 528.5 Q49 535 43 545 Q37 554 44 563 Q55 578 65 592.5 Q75 607 86 621 Q90 626 95.5 629 Q101 632 108 630 Q119 627 126.5 619.5 Q134 612 142 604 Z " />
<glyph glyph-name="Eth" unicode="&#xd0;" horiz-adv-x="431" d="M373 462 Q393 429 403.5 389 Q414 349 415.5 307 Q417 265 408.5 224 Q400 183 382 148 Q361 107 330 79.5 Q299 52 260 35 Q221 18 177 11.5 Q133 5 87 7 Q66 8 59 15.5 Q52 23 52 44 Q53 95 53.5 145 Q54 195 55 246 Q51 245 42.5 243 Q34 241 25 240.5 Q16 240 9.5 241.5 Q3 243 3 249 Q1 269 0 288 Q-1 307 -1 326 Q-1 336 2.5 338.5 Q6 341 16 340 Q27 338 37 337.5 Q47 337 57 336 Q57 381 55.5 424.5 Q54 468 52 515 Q52 522 52 529 Q52 536 53.5 541.5 Q55 547 59.5 551 Q64 555 74 557 Q111 564 153.5 565 Q196 566 237 556 Q278 546 313.5 523.5 Q349 501 373 462 Z M297 228 Q305 251 308.5 277 Q312 303 309.5 329 Q307 355 297.5 379.5 Q288 404 271 424 Q251 447 225.5 454.5 Q200 462 171 457 Q169 427 168 397.5 Q167 368 166 338 Q174 339 182 339.5 Q190 340 198 341 Q208 342 211 339.5 Q214 337 214 328 Q214 295 211 264 Q209 253 206 250.5 Q203 248 192 248 Q185 248 178.5 248.5 Q172 249 164 248 Q163 215 162.5 181.5 Q162 148 163 114 Q263 133 297 228 Z " />
<glyph glyph-name="eth" unicode="&#xf0;" horiz-adv-x="413" d="M403 535 Q413 536 416 534 Q419 532 419 523 Q419 491 416 458 Q414 448 411 445.5 Q408 443 397 443 L379 443 L377 443 Q374 351 374.5 257 Q375 163 375 53 Q375 39 369.5 32 Q364 25 354.5 21.5 Q345 18 333 16.5 Q321 15 309 14 Q261 9 217.5 10.5 Q174 12 138 25 Q102 38 74.5 63.5 Q47 89 32 131 Q20 164 20.5 200.5 Q21 237 31.5 272.5 Q42 308 63 338.5 Q84 369 113 389 Q134 405 157 412 Q180 419 200 421 Q220 423 237 421 Q254 419 263 416 L263 440 Q260 440 251 439 Q242 438 232.5 437.5 Q223 437 215.5 438 Q208 439 208 444 Q206 464 205 482.5 Q204 501 204 521 Q204 531 207.5 533.5 Q211 536 221 534 Q230 533 238.5 532.5 Q247 532 256 531 Q255 537 255 543 Q255 549 254 554 Q253 564 256 568 Q259 572 270 573 Q296 575 320 571 Q344 567 371 561 Q380 558 382 554.5 Q384 551 383 541 Q383 539 382.5 537.5 Q382 536 382 534 Q387 534 392.5 534.5 Q398 535 403 535 Z M265 288 Q248 298 227 299 Q206 300 186.5 293 Q167 286 151.5 271 Q136 256 129 234 Q125 222 124.5 209 Q124 196 126.5 183 Q129 170 135 159.5 Q141 149 150 142 Q176 124 205 122 Q234 120 265 129 L265 288 Z " />
<glyph glyph-name="Oslash" unicode="&#xd8;" horiz-adv-x="460" d="M439 311 Q441 273 433.5 230 Q426 187 409.5 147.5 Q393 108 368.5 75 Q344 42 311 22.5 Q278 3 237 0.5 Q196 -2 148 20 L148 19 Q146 15 144 11 Q142 7 140 3 Q135 -4 128.5 -3 Q122 -2 111 2 Q89 12 70 25.5 Q51 39 33 55 Q27 61 27 64 Q27 67 32 75 Q37 83 43 90 Q49 97 55 105 L56 105 Q43 125 36.5 145.5 Q30 166 26 189 Q18 226 16.5 267.5 Q15 309 22 350.5 Q29 392 46.5 430 Q64 468 95 497 Q136 535 195.5 543 Q255 551 313 528 Q314 530 315 532 Q316 534 317 536 Q322 546 326 548.5 Q330 551 341 546 Q359 539 376 531 Q393 523 410 514 Q426 505 427 497 Q428 489 418 473 Q413 465 408.5 458 Q404 451 399 443 Q434 385 439 311 Z M259 422 Q225 431 202 412.5 Q179 394 166 364 Q153 334 150.5 300.5 Q148 267 155 245 Q183 288 209 332 Q235 376 259 422 Z M212 144 Q248 132 273.5 148.5 Q299 165 313 195.5 Q327 226 330 262.5 Q333 299 325 327 Q296 282 267 237 Q238 192 212 144 Z " />
<glyph glyph-name="oslash" unicode="&#xf8;" horiz-adv-x="404" d="M380 212 Q379 165 360.5 123.5 Q342 82 309.5 54.5 Q277 27 234.5 17.5 Q192 8 143 25 Q139 12 132 2 Q128 -4 121.5 -3 Q115 -2 109 1 Q92 9 76.5 19.5 Q61 30 47 43 Q42 48 42 50.5 Q42 53 46 59 Q51 65 56.5 71 Q62 77 67 85 Q45 113 33.5 146.5 Q22 180 20.5 215 Q19 250 29 283.5 Q39 317 60 346 Q76 368 99 384.5 Q122 401 149 409 Q176 417 205 416 Q234 415 262 403 Q266 413 272 423 Q276 431 279 432.5 Q282 434 291 431 Q305 426 318.5 420 Q332 414 345 406 Q358 398 358.5 392 Q359 386 351 373 Q347 366 343 359.5 Q339 353 334 345 Q345 331 353.5 318.5 Q362 306 368 291 Q374 276 377 257 Q380 238 380 212 Z M215 312 Q197 312 182.5 302 Q168 292 159.5 276 Q151 260 149 241.5 Q147 223 152 206 Q169 232 184.5 258.5 Q200 285 215 312 Z M223 170 Q249 178 264.5 203 Q280 228 277 256 Q263 234 250 213 Q237 192 223 170 Z " />
<glyph glyph-name="germandbls" unicode="&#xdf;" horiz-adv-x="390" d="M124 478 Q118 416 121 354.5 Q124 293 135 233 Q138 219 135.5 214 Q133 209 120 202 Q105 194 90 186.5 Q75 179 59 171 Q44 164 38.5 167 Q33 170 30 187 Q16 277 17.5 365 Q19 453 24 541 Q24 562 43 567 Q73 575 105.5 578.5 Q138 582 170 579 Q202 576 231.5 565 Q261 554 284 534 Q312 510 316.5 480 Q321 450 312 417 Q306 397 297 380 Q288 363 281 345 Q270 318 292 300 Q304 290 315.5 279.5 Q327 269 338 258 Q387 206 372 137 Q365 111 348 90 Q331 69 308 53.5 Q285 38 258.5 28.5 Q232 19 208 16 Q175 11 142 8.5 Q109 6 76 5 Q59 5 51 5.5 Q43 6 40 9.5 Q37 13 36.5 20.5 Q36 28 34 42 Q31 65 26 86.5 Q21 108 10 128 Q1 144 20 144 Q31 144 42.5 144 Q54 144 65 143 Q86 142 110 139.5 Q134 137 158 135.5 Q182 134 204 135.5 Q226 137 243 143 Q261 149 267 163.5 Q273 178 264 195 Q247 222 225.5 236.5 Q204 251 184 272 Q171 285 166 300.5 Q161 316 167 334 Q176 359 184.5 375.5 Q193 392 202 408 Q213 428 207 443.5 Q201 459 181 469 Q168 475 154.5 476 Q141 477 124 478 Z " />
<glyph glyph-name="section" unicode="&#xa7;" horiz-adv-x="361" d="M82 379 Q57 411 53.5 444 Q50 477 62 505 Q74 533 99 554.5 Q124 576 156.5 586 Q189 596 226.5 591.5 Q264 587 301 565 Q310 559 320 551.5 Q330 544 336.5 535 Q343 526 345.5 515.5 Q348 505 342 495 Q333 480 324.5 465 Q316 450 308 434 Q298 419 296.5 418.5 Q295 418 286 432 Q270 465 242 482 Q230 490 217 493 Q204 496 190 492 Q170 484 166.5 466.5 Q163 449 181 438 Q211 424 238 412 Q265 400 288 384 Q309 368 317.5 347.5 Q326 327 326.5 304.5 Q327 282 320.5 259.5 Q314 237 304 218 Q327 170 319 123.5 Q311 77 272 46 Q241 21 208 16 Q175 11 142.5 19 Q110 27 79 44.5 Q48 62 22 83 Q12 91 12.5 95.5 Q13 100 21 108 Q37 122 52 137 Q67 152 83 167 Q90 173 93 175.5 Q96 178 98.5 177.5 Q101 177 104 173.5 Q107 170 113 164 Q132 144 146.5 131.5 Q161 119 185 117 Q201 121 203.5 128 Q206 135 199.5 144 Q193 153 180.5 162.5 Q168 172 154.5 180.5 Q141 189 127.5 196.5 Q114 204 107 208 Q86 218 74 232 Q62 246 56.5 261.5 Q51 277 51.5 293.5 Q52 310 57 325 Q62 339 68.5 351.5 Q75 364 82 379 Z M175 324 Q159 301 171 287 Q183 273 209 268 Q219 288 208 302 Q197 316 175 324 Z " />
<glyph glyph-name="Euro" unicode="&#x20ac;" horiz-adv-x="394" d="M171 362 Q190 364 208 366.5 Q226 369 244 371 Q261 373 267.5 367 Q274 361 273 344 Q272 330 269 316.5 Q266 303 259 290 Q250 275 233 275 Q214 276 193.5 274.5 Q173 273 155 271 Q156 263 156.5 256 Q157 249 158 242 Q178 244 197.5 247 Q217 250 237 253 Q253 255 260 250 Q267 245 269 229 Q271 219 271 209 Q271 199 270 188 Q268 175 264 171.5 Q260 168 248 166 Q236 164 224 163 Q212 162 198 160 Q207 150 219 146 Q231 142 244 142 Q257 142 269.5 145.5 Q282 149 292 155 Q312 166 320 165 Q328 164 345 148 Q350 143 358.5 134 Q367 125 373.5 115 Q380 105 383 94.5 Q386 84 380 77 Q357 46 327 25.5 Q297 5 259 -1 Q203 -9 160.5 7.5 Q118 24 88 57.5 Q58 91 41.5 136.5 Q25 182 21.5 230.5 Q18 279 27.5 327.5 Q37 376 60 415 Q81 449 112.5 477 Q144 505 180.5 520 Q217 535 256.5 534.5 Q296 534 333 512 Q340 507 348 501 Q356 495 362 488 Q368 481 370.5 473 Q373 465 369 456 Q354 423 328 393 Q318 382 312.5 383 Q307 384 297 395 Q279 413 260 417.5 Q241 422 223.5 416 Q206 410 192.5 395.5 Q179 381 171 362 Z " />
<glyph glyph-name="cent" unicode="&#xa2;" horiz-adv-x="331" d="M220 103 L220 25 Q221 18 221.5 9.5 Q222 1 211 3 Q190 8 168.5 11.5 Q147 15 126 20 Q120 22 119.5 26 Q119 30 119 36 Q120 51 120 66 Q120 81 121 96 Q121 105 112 110 Q78 125 57.5 150.5 Q37 176 27 207 Q17 238 16 271.5 Q15 305 20 337 Q36 440 131 488 Q131 504 131.5 519.5 Q132 535 131 552 Q131 563 140 567 Q160 575 180.5 578.5 Q201 582 222 584 Q235 585 234 571 Q232 551 229 532 Q226 513 226 494 Q249 484 270 475.5 Q291 467 308 447 Q318 435 314 422 Q300 378 266 350 Q257 342 252 343.5 Q247 345 241 356 Q233 370 225.5 383 Q218 396 205 404 Q173 424 148 393 Q127 364 122 324 Q117 284 133 253 Q144 231 157.5 223.5 Q171 216 184.5 218.5 Q198 221 210 231.5 Q222 242 231 257 Q236 262 240.5 264 Q245 266 252 262 Q262 256 275.5 245.5 Q289 235 299 222 Q309 209 312 194.5 Q315 180 305 168 Q288 148 267.5 130.5 Q247 113 220 103 Z " />
<glyph glyph-name="sterling" unicode="&#xa3;" horiz-adv-x="338" d="M171 187 Q167 170 163.5 153 Q160 136 156 119 Q197 124 235.5 127 Q274 130 314 130 Q326 132 328 118 Q330 94 325.5 71.5 Q321 49 308 28 Q301 18 290 19 Q236 23 183 20 Q130 17 78 5 Q67 2 57 -1 Q47 -4 41 9 Q31 30 26.5 53 Q22 76 24 99 Q24 104 27 108 Q30 112 33 116 Q44 130 53.5 145 Q63 160 65 177 Q58 175 53 174 Q48 173 43 171 Q31 166 26 180 Q23 190 21 202.5 Q19 215 19.5 227.5 Q20 240 24 250 Q28 260 38 265 Q43 268 49 269.5 Q55 271 63 273 Q60 302 54.5 330 Q49 358 51 387 Q50 432 70.5 470 Q91 508 124 529.5 Q157 551 199 552 Q241 553 283 526 Q301 517 304.5 503 Q308 489 302 472 Q295 453 284.5 437 Q274 421 260 406 Q249 395 241 413 Q229 436 208 437 Q187 438 173 418 Q164 403 160.5 386.5 Q157 370 158 353 Q159 336 162.5 319.5 Q166 303 169 288 L227 288 Q245 287 254.5 277.5 Q264 268 267.5 254 Q271 240 269.5 224 Q268 208 264 195 Q259 179 243 182 Q225 185 207.5 187 Q190 189 171 187 Z " />
<glyph glyph-name="yen" unicode="&#xa5;" horiz-adv-x="359" d="M182 406 Q200 440 217 472 Q234 504 257 534 Q265 545 269 545.5 Q273 546 285 541 Q305 531 322.5 518 Q340 505 349 482 Q315 437 284 390 Q253 343 233 288 Q246 287 257.5 286.5 Q269 286 280 285 Q294 285 296 272 Q302 246 305 219 Q307 210 304 207.5 Q301 205 292 205 L227 205 Q228 195 228.5 186 Q229 177 229 167 Q239 165 248.5 165.5 Q258 166 267 164 Q289 162 292 141 Q294 128 296.5 116 Q299 104 301 91 Q303 77 299 72.5 Q295 68 280 69 Q269 69 257.5 70 Q246 71 233 72 Q234 61 234 52 Q234 43 236 34 Q238 14 234.5 10.5 Q231 7 210 9 Q185 11 163 11 Q141 11 119 11 Q121 28 122.5 43 Q124 58 126 75 L75 75 Q61 74 58 77 Q55 80 53 94 Q50 122 62 148 Q67 160 79 162 Q93 164 106.5 165 Q120 166 133 168 L133 202 Q114 202 100 200.5 Q86 199 72 199 Q54 197 49.5 202 Q45 207 47 224 Q48 246 53 267 Q55 277 58.5 279.5 Q62 282 72 283 Q86 285 99 285.5 Q112 286 125 288 Q105 333 79 374.5 Q53 416 23 454 Q14 464 21 475 Q35 495 51 512.5 Q67 530 86 546 Q91 549 95.5 547.5 Q100 546 104 542 Q108 538 110.5 533 Q113 528 115 524 Q132 495 148.5 466 Q165 437 182 406 Z " />
<glyph glyph-name="OE" unicode="&#x152;" horiz-adv-x="590" d="M382 319 Q415 325 447 330 Q479 335 511 337 Q524 339 528.5 334 Q533 329 532 315 Q531 304 529.5 290.5 Q528 277 524 264.5 Q520 252 513 243.5 Q506 235 495 235 Q462 235 433 237 Q404 239 381 233 Q379 203 382.5 173.5 Q386 144 388 114 Q426 113 459 116.5 Q492 120 527 124 Q539 126 544.5 123 Q550 120 552 109 Q557 87 557 65.5 Q557 44 552 22 Q549 13 543.5 9.5 Q538 6 530 4 Q472 -2 418.5 2 Q365 6 314 16 Q296 18 293 28 Q290 38 288 52 Q270 37 252 24 Q234 11 212 5 Q183 -2 157.5 4 Q132 10 111 24 Q90 38 74 59 Q58 80 46 103 Q25 151 18 205.5 Q11 260 18 314 Q25 368 47 417 Q69 466 107 502 Q143 535 187.5 539.5 Q232 544 272 517 Q274 522 274 526 Q274 530 276 533 Q278 536 282.5 538.5 Q287 541 298 543 Q369 556 431.5 559 Q494 562 554 558 Q566 556 571 551.5 Q576 547 578 535 Q579 515 578 492.5 Q577 470 572 456 Q570 446 567 444.5 Q564 443 554 446 Q512 456 472 457 Q432 458 393 453 Q381 451 381 441 Q381 392 381.5 366.5 Q382 341 382 319 Z M262 371 Q260 383 256.5 397.5 Q253 412 246.5 423.5 Q240 435 230 439.5 Q220 444 205 436 Q178 420 162.5 383.5 Q147 347 142.5 305.5 Q138 264 145.5 224.5 Q153 185 171 164 Q203 134 230 170 Q244 191 252 216.5 Q260 242 264 268.5 Q268 295 267 321.5 Q266 348 262 371 Z " />
<glyph glyph-name="AE" unicode="&#xc6;" horiz-adv-x="527" d="M314 302 Q350 305 384 306.5 Q418 308 452 303 Q460 301 463 298.5 Q466 296 464 288 Q459 267 458 246.5 Q457 226 456 206 Q456 200 449 197 Q442 194 431 193.5 Q420 193 408.5 193.5 Q397 194 388 195 Q372 196 356 195.5 Q340 195 322 195 Q324 175 331 154.5 Q338 134 355 123 Q384 105 418.5 104 Q453 103 485 112 Q500 115 504 103 Q515 63 509 25 Q508 14 497 12 Q458 5 419.5 4 Q381 3 343 11 Q305 18 282 35 Q259 52 245 75 Q231 98 224 126.5 Q217 155 212 186 Q189 184 166.5 181 Q144 178 121 170 Q120 130 129 93 Q138 56 149 17 Q141 17 136.5 16.5 Q132 16 127 17 Q107 20 87.5 18 Q68 16 48 12 Q37 10 34 11.5 Q31 13 29 24 Q21 67 18 114.5 Q15 162 16.5 210 Q18 258 25 304 Q32 350 45 391 Q68 454 110 495.5 Q152 537 218 548 Q274 557 329.5 556 Q385 555 441 550 Q455 548 472.5 544.5 Q490 541 496 531 Q512 497 511 458 Q510 440 493 443 Q474 445 451.5 447.5 Q429 450 406.5 452 Q384 454 362 455 Q340 456 323 456 Q318 418 316.5 380 Q315 342 314 302 Z M222 434 Q197 422 179.5 402.5 Q162 383 151 359.5 Q140 336 133.5 311 Q127 286 124 262 Q144 267 162 272 Q180 277 198 281 Q208 283 210.5 287 Q213 291 213 300 Q215 333 217.5 366 Q220 399 222 434 Z " />
<glyph glyph-name="ae" unicode="&#xe6;" horiz-adv-x="614" d="M251 394 Q249 408 255.5 414 Q262 420 271 425 Q288 432 304.5 436 Q321 440 339 440 Q350 440 354 436 Q358 432 356 421 Q354 404 352 386 Q350 368 348 349 Q370 375 393.5 388.5 Q417 402 452 407 Q487 407 514 390.5 Q541 374 559 348.5 Q577 323 586 291.5 Q595 260 595 231 Q596 217 593 213 Q590 209 577 205 Q541 194 506.5 177.5 Q472 161 437 143 Q461 116 493 113 Q525 110 554 124 Q559 126 564.5 128.5 Q570 131 577 126 Q573 97 570 69 Q567 41 564 11 Q535 3 505 3.5 Q475 4 447 12.5 Q419 21 394 36 Q369 51 351 73 Q353 59 353.5 47.5 Q354 36 358 25 Q361 8 357 3.5 Q353 -1 336 -2 Q306 -3 278 7 Q261 12 260 28 Q258 39 255.5 50.5 Q253 62 251 76 Q228 46 201.5 27 Q175 8 136 8 Q113 9 94 19.5 Q75 30 61 45.5 Q47 61 37.5 81 Q28 101 24 121 Q15 164 18 208.5 Q21 253 36.5 292 Q52 331 80.5 361 Q109 391 152 406 Q181 415 204.5 411 Q228 407 251 394 Z M138 133 Q157 98 184 128 Q210 159 219.5 199.5 Q229 240 237 276 Q243 306 212 311 Q183 312 163.5 292 Q144 272 134.5 243 Q125 214 126 183 Q127 152 138 133 Z M478 273 Q470 294 459 297 Q448 300 437 292.5 Q426 285 417.5 270.5 Q409 256 408 243 Q426 248 443.5 256.5 Q461 265 478 273 Z " />
<glyph glyph-name="oe" unicode="&#x153;" horiz-adv-x="572" d="M296 360 Q320 386 350.5 402 Q381 418 413 420.5 Q445 423 474 411 Q503 399 524 369 Q544 338 551 303.5 Q558 269 556 232 Q555 220 552 216.5 Q549 213 537 211 Q485 199 440 189.5 Q395 180 351 167 Q357 144 372.5 134.5 Q388 125 407.5 123.5 Q427 122 447 127.5 Q467 133 482 142 Q486 145 490 148 Q494 151 498 154 Q513 163 526 153 Q539 142 548.5 130 Q558 118 563 101 Q567 87 557 76 Q533 46 495 28.5 Q457 11 417 8 Q377 5 340.5 19.5 Q304 34 282 69 Q255 28 218 14.5 Q181 1 144.5 9 Q108 17 77 44.5 Q46 72 33 113 Q19 160 20.5 214 Q22 268 41.5 313.5 Q61 359 99 388.5 Q137 418 195 415 Q217 412 233.5 405 Q250 398 262 389.5 Q274 381 282.5 373 Q291 365 296 360 Z M223 301 Q217 311 208.5 315 Q200 319 190.5 318.5 Q181 318 172.5 312.5 Q164 307 160 298 Q151 283 146.5 265.5 Q142 248 143 230.5 Q144 213 150.5 198 Q157 183 170 173 Q198 154 214 183 Q228 209 231.5 242 Q235 275 223 301 Z M442 273 Q440 310 404 307 Q384 306 371.5 292.5 Q359 279 361 261 L442 273 Z " />
<glyph glyph-name="quotedblright" unicode="&#x201d;" horiz-adv-x="268" d="M70 506 Q64 509 59 511.5 Q54 514 50 517 Q37 528 34 543 Q31 558 37 574 Q45 592 60.5 601 Q76 610 95 608 Q109 606 120 593.5 Q131 581 133 566 Q139 505 92 466 Q85 460 81 460.5 Q77 461 69 467 Q61 472 60.5 475.5 Q60 479 64 488 Q66 493 67 497 Q68 501 70 506 Z M182 506 Q176 509 171 511.5 Q166 514 162 517 Q149 528 146 543 Q143 558 149 574 Q157 592 172.5 601 Q188 610 207 608 Q221 606 232 593.5 Q243 581 245 566 Q251 505 204 466 Q197 460 193 460.5 Q189 461 181 467 Q173 472 172.5 475.5 Q172 479 176 488 Q178 493 179 497 Q180 501 182 506 Z " />
<glyph glyph-name="quotedblleft" unicode="&#x201c;" horiz-adv-x="261" d="M208 562 Q214 559 219 556.5 Q224 554 228 551 Q241 540 244 525 Q247 510 241 494 Q233 476 217.5 467 Q202 458 183 460 Q169 462 158 474.5 Q147 487 145 502 Q139 563 186 602 Q193 608 197 607.5 Q201 607 209 601 Q217 596 217.5 592.5 Q218 589 214 580 Q212 575 211 571 Q210 567 208 562 Z M96 562 Q102 559 107 556.5 Q112 554 116 551 Q129 540 132 525 Q135 510 129 494 Q121 476 105.5 467 Q90 458 71 460 Q57 462 46 474.5 Q35 487 33 502 Q27 563 74 602 Q81 608 85 607.5 Q89 607 97 601 Q105 596 105.5 592.5 Q106 589 102 580 Q100 575 99 571 Q98 567 96 562 Z " />
<glyph glyph-name="quoteright" unicode="&#x2019;" horiz-adv-x="152" d="M68 510 Q62 513 57 515.5 Q52 518 48 521 Q35 532 32 547 Q29 562 35 578 Q43 596 58.5 605 Q74 614 93 612 Q107 610 118 597.5 Q129 585 131 570 Q137 509 90 470 Q83 464 79 464.5 Q75 465 67 471 Q59 476 58.5 479.5 Q58 483 62 492 Q64 497 65 501 Q66 505 68 510 Z " />
<glyph glyph-name="quoteleft" unicode="&#x2018;" horiz-adv-x="152" d="M94 566 Q100 563 105 560.5 Q110 558 114 555 Q127 544 130 529 Q133 514 127 498 Q119 480 103.5 471 Q88 462 69 464 Q55 466 44 478.5 Q33 491 31 506 Q25 567 72 606 Q79 612 83 611.5 Q87 611 95 605 Q103 600 103.5 596.5 Q104 593 100 584 Q98 579 97 575 Q96 571 94 566 Z " />
<glyph glyph-name="exclamdown" unicode="&#xa1;" horiz-adv-x="202" d="M147 401 Q147 308 152.5 228.5 Q158 149 162 71 Q163 60 160.5 55.5 Q158 51 148 48 Q122 40 99.5 41.5 Q77 43 53 47 Q43 49 40 53 Q37 57 39 68 Q47 163 52.5 253 Q58 343 60 434 Q60 443 62 445.5 Q64 448 72 449 L136 452 Q137 452 139 452 Q141 452 142.5 447.5 Q144 443 145.5 432.5 Q147 422 147 401 Z M104 568 Q124 568 137.5 554.5 Q151 541 151 521 Q151 501 137 487.5 Q123 474 103 474 Q83 474 70 487.5 Q57 501 57 521 Q56 541 70 554.5 Q84 568 104 568 Z " />
<glyph glyph-name="questiondown" unicode="&#xbf;" horiz-adv-x="313" d="M140 182 Q136 176 133.5 168 Q131 160 132 153.5 Q133 147 138 144 Q143 141 153 144 Q167 149 180.5 162 Q194 175 214 212 Q219 223 224 224 Q229 225 238 219 Q252 208 263 192 Q274 176 289 146 Q299 126 284 108 Q261 78 222 55.5 Q183 33 143.5 28.5 Q104 24 71.5 42.5 Q39 61 28 112 Q22 139 26 163 Q30 187 40.5 208.5 Q51 230 65.5 249 Q80 268 95 286 Q137 339 139 408 Q139 415 139.5 419 Q140 423 142 425 Q144 427 147.5 427.5 Q151 428 158 429 Q160 429 162 429.5 Q164 430 166 430 Q183 433 191 431.5 Q199 430 201 413 Q205 385 204 359 Q203 333 196 305.5 Q189 278 175.5 248 Q162 218 140 182 Z M162 559 Q182 559 195.5 545.5 Q209 532 209 513 Q210 493 195.5 479 Q181 465 161 465 Q141 465 128 478 Q115 491 114 511 Q113 531 127.5 545 Q142 559 162 559 Z " />
<glyph glyph-name="Zcaron" unicode="&#x17d;" horiz-adv-x="357" d="M219 434 Q169 428 125.5 419.5 Q82 411 37 400 Q34 409 31 417 Q28 425 26 433 Q24 446 20.5 461 Q17 476 16.5 489 Q16 502 21 512 Q26 522 40 525 Q97 536 148 542.5 Q199 549 250 558 Q283 564 304 539 Q319 520 330 500 Q341 480 350 458 Q353 450 351 443 Q349 436 344 428 Q296 354 241.5 277.5 Q187 201 146 123 Q185 127 225 126.5 Q265 126 302 128 Q325 129 332 122.5 Q339 116 341 92 Q344 63 333 32 Q328 21 323.5 17.5 Q319 14 306 15 Q241 16 184 17.5 Q127 19 72 11 Q54 9 47 23 Q33 49 26 75 Q19 101 21 130 Q40 171 63.5 210 Q87 249 113.5 286.5 Q140 324 167 360.5 Q194 397 219 434 Z M157 684 Q163 672 168 662 Q173 652 178 641 Q183 650 187.5 657.5 Q192 665 196 672 Q205 688 217 676 Q226 667 231 662.5 Q236 658 236.5 654 Q237 650 234.5 644.5 Q232 639 227 628 Q222 617 217.5 605 Q213 593 208 582 Q203 571 197 568.5 Q191 566 180 566 Q168 567 162 569.5 Q156 572 151 583 Q144 598 136.5 613 Q129 628 121 644 Q117 652 117 656 Q117 660 125 665 Q133 670 141 674.5 Q149 679 157 684 Z " />
<glyph glyph-name="zcaron" unicode="&#x17e;" horiz-adv-x="330" d="M299 315 Q266 262 233 212 Q200 162 160 114 Q186 114 213 115 Q240 116 266 116 Q277 116 280.5 113 Q284 110 287 101 Q293 78 291.5 57 Q290 36 282 14 Q225 12 174 9.5 Q123 7 72 -1 Q60 -3 54 8 Q43 28 34.5 48 Q26 68 21 91 Q20 94 21 98 Q22 102 24 105 Q58 160 94.5 213 Q131 266 176 314 Q143 312 113 305 Q83 298 53 290 Q42 307 37 324 Q32 341 30 360 Q28 377 29 384.5 Q30 392 33.5 395.5 Q37 399 44 400.5 Q51 402 62 406 Q104 416 145.5 419 Q187 422 229 422 Q249 422 262 406 Q269 397 276.5 384 Q284 371 290 357.5 Q296 344 299 332.5 Q302 321 299 315 Z M143 558 Q149 546 154 536 Q159 526 164 515 Q169 524 173.5 531.5 Q178 539 182 546 Q191 562 203 550 Q212 541 217 536.5 Q222 532 222.5 528 Q223 524 220.5 518.5 Q218 513 213 502 Q208 491 203.5 479 Q199 467 194 456 Q189 445 183 442.5 Q177 440 166 440 Q154 441 148 443.5 Q142 446 137 457 Q130 472 122.5 487 Q115 502 107 518 Q103 526 103 530 Q103 534 111 539 Q119 544 127 548.5 Q135 553 143 558 Z " />
<glyph glyph-name="Scaron" unicode="&#x160;" horiz-adv-x="401" d="M109 188 Q115 177 120 168 Q125 159 130 150 Q137 137 150.5 128 Q164 119 179.5 114 Q195 109 211 108 Q227 107 241 112 Q260 120 268.5 134.5 Q277 149 275.5 164 Q274 179 263 192.5 Q252 206 232 213 Q218 218 204 222.5 Q190 227 176 232 Q148 242 122.5 254.5 Q97 267 77 284.5 Q57 302 45 325.5 Q33 349 33 381 Q33 432 53.5 468 Q74 504 108 525.5 Q142 547 184 553 Q226 559 268 549 Q290 542 312.5 531.5 Q335 521 348 510 Q355 505 356.5 499 Q358 493 356 485 Q350 463 341.5 443.5 Q333 424 320 407 Q312 397 307.5 397 Q303 397 295 406 Q281 421 266 432.5 Q251 444 231 449 Q201 455 175 440 Q155 427 151.5 405.5 Q148 384 165 367 Q180 354 196.5 344.5 Q213 335 230.5 327.5 Q248 320 265 312.5 Q282 305 298 296 Q339 274 359 243 Q379 212 382 178.5 Q385 145 372.5 112.5 Q360 80 335 55 Q310 30 275 15.5 Q240 1 198 4 Q136 8 91.5 38 Q47 68 21 119 Q19 124 20.5 129.5 Q22 135 26 138 Q40 151 61.5 166 Q83 181 109 188 Z M181 687 Q187 675 192 665 Q197 655 202 644 Q207 653 211.5 660.5 Q216 668 220 675 Q229 691 241 679 Q250 670 255 665.5 Q260 661 260.5 657 Q261 653 258.5 647.5 Q256 642 251 631 Q246 620 241.5 608 Q237 596 232 585 Q227 574 221 571.5 Q215 569 204 569 Q192 570 186 572.5 Q180 575 175 586 Q168 601 160.5 616 Q153 631 145 647 Q141 655 141 659 Q141 663 149 668 Q157 673 165 677.5 Q173 682 181 687 Z " />
<glyph glyph-name="scaron" unicode="&#x161;" horiz-adv-x="298" d="M165 3 Q127 4 93.5 14.5 Q60 25 33 51 Q22 61 16.5 67.5 Q11 74 10 80.5 Q9 87 11.5 95 Q14 103 19 115 Q22 122 29.5 135 Q37 148 47 158.5 Q57 169 67 172.5 Q77 176 86 165 Q92 158 101.5 150.5 Q111 143 122.5 136.5 Q134 130 145 126 Q156 122 165 122 Q185 123 179 144 Q176 153 168 161 Q160 169 150 175.5 Q140 182 129 188 Q118 194 109 199 Q53 221 37.5 261 Q22 301 36 344 Q51 379 77.5 400.5 Q104 422 136.5 430 Q169 438 203.5 432 Q238 426 270 406 Q280 399 279 386 Q277 364 271 344 Q265 324 252 305 Q245 295 240.5 294.5 Q236 294 228 303 Q211 320 185 328 Q175 330 164 327.5 Q153 325 150 314 Q147 301 157 294 Q167 287 175 281 Q210 258 238.5 233.5 Q267 209 281 169 Q291 137 286 107.5 Q281 78 264.5 54.5 Q248 31 222 17 Q196 3 165 3 Z M131 570 Q137 558 142 548 Q147 538 152 527 Q157 536 161.5 543.5 Q166 551 170 558 Q179 574 191 562 Q200 553 205 548.5 Q210 544 210.5 540 Q211 536 208.5 530.5 Q206 525 201 514 Q196 503 191.5 491 Q187 479 182 468 Q177 457 171 454.5 Q165 452 154 452 Q142 453 136 455.5 Q130 458 125 469 Q118 484 110.5 499 Q103 514 95 530 Q91 538 91 542 Q91 546 99 551 Q107 556 115 560.5 Q123 565 131 570 Z " />
<glyph glyph-name="Ydieresis" unicode="&#x178;" horiz-adv-x="393" d="M203 366 Q217 407 235 444 Q253 481 276 517 Q280 522 284.5 530 Q289 538 295 544.5 Q301 551 307 555.5 Q313 560 320 558 Q339 553 355 544.5 Q371 536 385 522 Q395 511 395.5 505 Q396 499 388 486 Q352 430 320 372.5 Q288 315 263 253 Q259 244 259 230 Q260 174 260.5 124 Q261 74 261 24 Q254 18 237.5 16 Q221 14 204 14 Q187 14 173 16 Q159 18 158 21 Q157 26 157 30.5 Q157 35 157 40 L160 217 Q161 225 159 231 Q157 237 154 244 Q123 309 86.5 369 Q50 429 8 486 Q0 497 0.5 501.5 Q1 506 11 515 Q24 526 38 536.5 Q52 547 69 553 Q87 560 99 552 Q111 544 119 528 Q145 490 164.5 447.5 Q184 405 203 366 Z M244 650 Q261 650 272 638.5 Q283 627 283 610 Q282 594 270 582.5 Q258 571 241 572 Q226 572 214.5 584 Q203 596 204 612 Q204 628 215.5 639.5 Q227 651 244 650 Z M120 612 Q119 626 130.5 639 Q142 652 160 651 Q176 649 187 638.5 Q198 628 199 612 Q199 595 186.5 583 Q174 571 157 572 Q141 573 130 584 Q119 595 120 612 Z " />
<glyph glyph-name="Agrave" unicode="&#xc0;" horiz-adv-x="436" d="M296 120 Q222 127 154 114 Q142 111 139 99 Q134 79 128.5 59 Q123 39 118 19 Q114 7 110.5 4.5 Q107 2 96 8 Q76 19 56.5 30.5 Q37 42 17 54 Q6 60 12 73 Q50 162 83 249.5 Q116 337 147 426 Q163 472 177 524 Q183 543 200 544 Q221 546 241.5 547 Q262 548 283 548 Q296 548 300.5 544 Q305 540 308 526 Q333 402 359 288 Q385 174 423 64 Q427 52 417 46 Q394 34 374 25.5 Q354 17 334 9 Q321 4 317 7 Q313 10 311 24 Q307 48 303.5 71.5 Q300 95 296 120 Z M238 370 L233 370 Q219 332 205 294.5 Q191 257 177 219 Q203 217 226.5 219 Q250 221 275 223 Q266 261 256.5 297.5 Q247 334 238 370 Z M280 614 Q282 609 283.5 604.5 Q285 600 282 596 Q271 582 252 576 Q242 573 238 581 Q230 602 215.5 617.5 Q201 633 185 649 Q179 655 183.5 661.5 Q188 668 197 673 Q206 678 216.5 682 Q227 686 232 686 Q239 686 245 678 Q254 662 262.5 646.5 Q271 631 280 614 Z " />
<glyph glyph-name="Acircumflex" unicode="&#xc2;" horiz-adv-x="436" d="M296 120 Q222 127 154 114 Q142 111 139 99 Q134 79 128.5 59 Q123 39 118 19 Q114 7 110.5 4.5 Q107 2 96 8 Q76 19 56.5 30.5 Q37 42 17 54 Q6 60 12 73 Q50 162 83 249.5 Q116 337 147 426 Q163 472 177 524 Q183 543 200 544 Q221 546 241.5 547 Q262 548 283 548 Q296 548 300.5 544 Q305 540 308 526 Q333 402 359 288 Q385 174 423 64 Q427 52 417 46 Q394 34 374 25.5 Q354 17 334 9 Q321 4 317 7 Q313 10 311 24 Q307 48 303.5 71.5 Q300 95 296 120 Z M238 370 L233 370 Q219 332 205 294.5 Q191 257 177 219 Q203 217 226.5 219 Q250 221 275 223 Q266 261 256.5 297.5 Q247 334 238 370 Z M241 616 Q235 604 231 594.5 Q227 585 222 576 Q217 576 209 578.5 Q201 581 194 585.5 Q187 590 183 595.5 Q179 601 182 608 Q190 626 199 643.5 Q208 661 217 679 Q221 686 231.5 688 Q242 690 248 690 Q259 690 262 687.5 Q265 685 270 676 Q276 661 282.5 646 Q289 631 295 616 Q300 605 299 602 Q298 599 290 590 Q279 579 272 578 Q265 577 259.5 582.5 Q254 588 250 597.5 Q246 607 241 616 Z " />
<glyph glyph-name="Aacute" unicode="&#xc1;" horiz-adv-x="436" d="M296 120 Q222 127 154 114 Q142 111 139 99 Q134 79 128.5 59 Q123 39 118 19 Q114 7 110.5 4.5 Q107 2 96 8 Q76 19 56.5 30.5 Q37 42 17 54 Q6 60 12 73 Q50 162 83 249.5 Q116 337 147 426 Q163 472 177 524 Q183 543 200 544 Q221 546 241.5 547 Q262 548 283 548 Q296 548 300.5 544 Q305 540 308 526 Q333 402 359 288 Q385 174 423 64 Q427 52 417 46 Q394 34 374 25.5 Q354 17 334 9 Q321 4 317 7 Q313 10 311 24 Q307 48 303.5 71.5 Q300 95 296 120 Z M238 370 L233 370 Q219 332 205 294.5 Q191 257 177 219 Q203 217 226.5 219 Q250 221 275 223 Q266 261 256.5 297.5 Q247 334 238 370 Z M282 648 Q292 636 279 627 Q262 613 245.5 598.5 Q229 584 218 564 Q209 566 199 572.5 Q189 579 183 589 Q177 598 184 607 Q195 622 205 636.5 Q215 651 226 665 Q230 670 235.5 673 Q241 676 248 674 Q259 671 266.5 663.5 Q274 656 282 648 Z " />
<glyph glyph-name="Atilde" unicode="&#xc3;" horiz-adv-x="436" d="M296 120 Q222 127 154 114 Q142 111 139 99 Q134 79 128.5 59 Q123 39 118 19 Q114 7 110.5 4.5 Q107 2 96 8 Q76 19 56.5 30.5 Q37 42 17 54 Q6 60 12 73 Q50 162 83 249.5 Q116 337 147 426 Q163 472 177 524 Q183 543 200 544 Q221 546 241.5 547 Q262 548 283 548 Q296 548 300.5 544 Q305 540 308 526 Q333 402 359 288 Q385 174 423 64 Q427 52 417 46 Q394 34 374 25.5 Q354 17 334 9 Q321 4 317 7 Q313 10 311 24 Q307 48 303.5 71.5 Q300 95 296 120 Z M238 370 L233 370 Q219 332 205 294.5 Q191 257 177 219 Q203 217 226.5 219 Q250 221 275 223 Q266 261 256.5 297.5 Q247 334 238 370 Z M283 656 Q286 654 290 653 Q294 652 297 650 Q314 640 315.5 626 Q317 612 304 598 Q297 590 289.5 585 Q282 580 271 578 Q255 575 243 585 Q230 593 222 591.5 Q214 590 204 582 Q193 573 186.5 574 Q180 575 172 586 Q161 603 160.5 613 Q160 623 180 640 Q203 660 230 645 Q248 635 254.5 636 Q261 637 276 651 Q278 653 279.5 653.5 Q281 654 283 656 Z " />
<glyph glyph-name="Adieresis" unicode="&#xc4;" horiz-adv-x="436" d="M296 120 Q222 127 154 114 Q142 111 139 99 Q134 79 128.5 59 Q123 39 118 19 Q114 7 110.5 4.5 Q107 2 96 8 Q76 19 56.5 30.5 Q37 42 17 54 Q6 60 12 73 Q50 162 83 249.5 Q116 337 147 426 Q163 472 177 524 Q183 543 200 544 Q221 546 241.5 547 Q262 548 283 548 Q296 548 300.5 544 Q305 540 308 526 Q333 402 359 288 Q385 174 423 64 Q427 52 417 46 Q394 34 374 25.5 Q354 17 334 9 Q321 4 317 7 Q313 10 311 24 Q307 48 303.5 71.5 Q300 95 296 120 Z M238 370 L233 370 Q219 332 205 294.5 Q191 257 177 219 Q203 217 226.5 219 Q250 221 275 223 Q266 261 256.5 297.5 Q247 334 238 370 Z M280 660 Q297 660 308 648.5 Q319 637 319 620 Q318 604 306 592.5 Q294 581 277 582 Q262 582 250.5 594 Q239 606 240 622 Q240 638 251.5 649.5 Q263 661 280 660 Z M156 622 Q155 636 166.5 649 Q178 662 196 661 Q212 659 223 648.5 Q234 638 235 622 Q235 605 222.5 593 Q210 581 193 582 Q177 583 166 594 Q155 605 156 622 Z " />
<glyph glyph-name="Aring" unicode="&#xc5;" horiz-adv-x="436" d="M296 120 Q222 127 154 114 Q142 111 139 99 Q134 79 128.5 59 Q123 39 118 19 Q114 7 110.5 4.5 Q107 2 96 8 Q76 19 56.5 30.5 Q37 42 17 54 Q6 60 12 73 Q50 162 83 249.5 Q116 337 147 426 Q163 472 177 524 Q183 543 200 544 Q221 546 241.5 547 Q262 548 283 548 Q296 548 300.5 544 Q305 540 308 526 Q333 402 359 288 Q385 174 423 64 Q427 52 417 46 Q394 34 374 25.5 Q354 17 334 9 Q321 4 317 7 Q313 10 311 24 Q307 48 303.5 71.5 Q300 95 296 120 Z M238 370 L233 370 Q219 332 205 294.5 Q191 257 177 219 Q203 217 226.5 219 Q250 221 275 223 Q266 261 256.5 297.5 Q247 334 238 370 Z M293 634 Q293 611 276 594 Q259 577 236 578 Q213 580 197 596.5 Q181 613 182 636 Q182 659 199 674.5 Q216 690 239 689 Q262 689 277.5 673 Q293 657 293 634 Z M236 649 Q229 649 226.5 643.5 Q224 638 226 633 Q229 624 237 624 Q241 624 243.5 628.5 Q246 633 246 638 Q246 642 243.5 645.5 Q241 649 236 649 Z " />
<glyph glyph-name="Ccedilla" unicode="&#xc7;" horiz-adv-x="435" d="M360 383 Q356 387 352.5 389.5 Q349 392 346 395 Q326 412 302.5 418.5 Q279 425 255 422 Q231 419 210 406.5 Q189 394 174 373 Q156 346 148 315 Q140 284 143 254 Q146 224 161.5 198 Q177 172 206 156 Q223 147 241.5 146 Q260 145 278.5 149 Q297 153 314 161.5 Q331 170 344 181 Q356 191 361 190.5 Q366 190 377 179 Q410 146 423 105 Q426 94 420 87 Q354 0 245 3 Q197 5 157.5 23 Q118 41 89.5 71.5 Q61 102 43.5 143.5 Q26 185 23 233 Q18 286 29 335.5 Q40 385 63.5 426 Q87 467 121 497 Q155 527 196 541.5 Q237 556 283 551.5 Q329 547 376 519 Q380 516 388 511 Q396 506 403.5 499.5 Q411 493 415.5 485.5 Q420 478 417 472 Q411 445 397.5 422.5 Q384 400 360 383 Z M263 -19 Q286 -18 300 -25.5 Q314 -33 319 -54 Q326 -97 290 -127 Q284 -132 276 -136.5 Q268 -141 259.5 -144 Q251 -147 243 -146.5 Q235 -146 230 -141 Q222 -133 218.5 -119 Q215 -105 217 -91 Q222 -90 226 -90 Q230 -90 235 -89 Q240 -87 250 -84 Q260 -81 256 -73 Q255 -71 252.5 -69.5 Q250 -68 248 -68 Q237 -69 231.5 -73 Q226 -77 218 -80 Q211 -78 209.5 -69.5 Q208 -61 208 -56 Q207 -34 207 -15.5 Q207 3 206 25 Q206 39 219 42 Q228 44 236 46 Q244 48 253 49 Q267 52 266 37 Q263 8 263 -19 Z " />
<glyph glyph-name="Egrave" unicode="&#xc8;" horiz-adv-x="364" d="M156 209 L156 109 Q192 107 226.5 108 Q261 109 295 115 Q310 117 319 107 Q328 97 332 83 Q336 69 336.5 53.5 Q337 38 336 29 Q333 9 314 8 L303 8 Q254 8 217 8 Q180 8 150.5 8.5 Q121 9 97.5 11 Q74 13 51 16 Q38 18 34 31 Q30 44 31 60.5 Q32 77 35 93.5 Q38 110 38 119 Q43 231 43.5 328 Q44 425 32 518 Q30 533 34.5 538.5 Q39 544 54 546 Q120 552 182 553.5 Q244 555 306 553 Q324 553 330 547.5 Q336 542 337 524 Q337 513 336 498.5 Q335 484 330.5 472 Q326 460 317.5 452.5 Q309 445 295 447 Q257 452 222.5 453 Q188 454 154 454 Q152 417 152.5 381.5 Q153 346 153 310 Q201 312 229.5 313.5 Q258 315 283 316 Q297 316 301.5 313 Q306 310 311 296 Q316 279 315.5 261 Q315 243 313 226 Q311 217 307.5 214.5 Q304 212 294 212 Q254 213 221 212.5 Q188 212 156 209 Z M234 607 Q236 602 237.5 597.5 Q239 593 236 589 Q225 575 206 569 Q196 566 192 574 Q184 595 169.5 610.5 Q155 626 139 642 Q133 648 137.5 654.5 Q142 661 151 666 Q160 671 170.5 675 Q181 679 186 679 Q193 679 199 671 Q208 655 216.5 639.5 Q225 624 234 607 Z " />
<glyph glyph-name="Eacute" unicode="&#xc9;" horiz-adv-x="364" d="M156 209 L156 109 Q192 107 226.5 108 Q261 109 295 115 Q310 117 319 107 Q328 97 332 83 Q336 69 336.5 53.5 Q337 38 336 29 Q333 9 314 8 L303 8 Q254 8 217 8 Q180 8 150.5 8.5 Q121 9 97.5 11 Q74 13 51 16 Q38 18 34 31 Q30 44 31 60.5 Q32 77 35 93.5 Q38 110 38 119 Q43 231 43.5 328 Q44 425 32 518 Q30 533 34.5 538.5 Q39 544 54 546 Q120 552 182 553.5 Q244 555 306 553 Q324 553 330 547.5 Q336 542 337 524 Q337 513 336 498.5 Q335 484 330.5 472 Q326 460 317.5 452.5 Q309 445 295 447 Q257 452 222.5 453 Q188 454 154 454 Q152 417 152.5 381.5 Q153 346 153 310 Q201 312 229.5 313.5 Q258 315 283 316 Q297 316 301.5 313 Q306 310 311 296 Q316 279 315.5 261 Q315 243 313 226 Q311 217 307.5 214.5 Q304 212 294 212 Q254 213 221 212.5 Q188 212 156 209 Z M237 651 Q247 639 234 630 Q217 616 200.5 601.5 Q184 587 173 567 Q164 569 154 575.5 Q144 582 138 592 Q132 601 139 610 Q150 625 160 639.5 Q170 654 181 668 Q185 673 190.5 676 Q196 679 203 677 Q214 674 221.5 666.5 Q229 659 237 651 Z " />
<glyph glyph-name="Ecircumflex" unicode="&#xca;" horiz-adv-x="364" d="M156 209 L156 109 Q192 107 226.5 108 Q261 109 295 115 Q310 117 319 107 Q328 97 332 83 Q336 69 336.5 53.5 Q337 38 336 29 Q333 9 314 8 L303 8 Q254 8 217 8 Q180 8 150.5 8.5 Q121 9 97.5 11 Q74 13 51 16 Q38 18 34 31 Q30 44 31 60.5 Q32 77 35 93.5 Q38 110 38 119 Q43 231 43.5 328 Q44 425 32 518 Q30 533 34.5 538.5 Q39 544 54 546 Q120 552 182 553.5 Q244 555 306 553 Q324 553 330 547.5 Q336 542 337 524 Q337 513 336 498.5 Q335 484 330.5 472 Q326 460 317.5 452.5 Q309 445 295 447 Q257 452 222.5 453 Q188 454 154 454 Q152 417 152.5 381.5 Q153 346 153 310 Q201 312 229.5 313.5 Q258 315 283 316 Q297 316 301.5 313 Q306 310 311 296 Q316 279 315.5 261 Q315 243 313 226 Q311 217 307.5 214.5 Q304 212 294 212 Q254 213 221 212.5 Q188 212 156 209 Z M188 612 Q182 600 178 590.5 Q174 581 169 572 Q164 572 156 574.5 Q148 577 141 581.5 Q134 586 130 591.5 Q126 597 129 604 Q137 622 146 639.5 Q155 657 164 675 Q168 682 178.5 684 Q189 686 195 686 Q206 686 209 683.5 Q212 681 217 672 Q223 657 229.5 642 Q236 627 242 612 Q247 601 246 598 Q245 595 237 586 Q226 575 219 574 Q212 573 206.5 578.5 Q201 584 197 593.5 Q193 603 188 612 Z " />
<glyph glyph-name="Edieresis" unicode="&#xcb;" horiz-adv-x="364" d="M156 209 L156 109 Q192 107 226.5 108 Q261 109 295 115 Q310 117 319 107 Q328 97 332 83 Q336 69 336.5 53.5 Q337 38 336 29 Q333 9 314 8 L303 8 Q254 8 217 8 Q180 8 150.5 8.5 Q121 9 97.5 11 Q74 13 51 16 Q38 18 34 31 Q30 44 31 60.5 Q32 77 35 93.5 Q38 110 38 119 Q43 231 43.5 328 Q44 425 32 518 Q30 533 34.5 538.5 Q39 544 54 546 Q120 552 182 553.5 Q244 555 306 553 Q324 553 330 547.5 Q336 542 337 524 Q337 513 336 498.5 Q335 484 330.5 472 Q326 460 317.5 452.5 Q309 445 295 447 Q257 452 222.5 453 Q188 454 154 454 Q152 417 152.5 381.5 Q153 346 153 310 Q201 312 229.5 313.5 Q258 315 283 316 Q297 316 301.5 313 Q306 310 311 296 Q316 279 315.5 261 Q315 243 313 226 Q311 217 307.5 214.5 Q304 212 294 212 Q254 213 221 212.5 Q188 212 156 209 Z M230 653 Q247 653 258 641.5 Q269 630 269 613 Q268 597 256 585.5 Q244 574 227 575 Q212 575 200.5 587 Q189 599 190 615 Q190 631 201.5 642.5 Q213 654 230 653 Z M106 615 Q105 629 116.5 642 Q128 655 146 654 Q162 652 173 641.5 Q184 631 185 615 Q185 598 172.5 586 Q160 574 143 575 Q127 576 116 587 Q105 598 106 615 Z " />
<glyph glyph-name="Igrave" unicode="&#xcc;" horiz-adv-x="198" d="M39 517 Q38 528 39.5 532 Q41 536 52 538 Q75 543 100.5 548 Q126 553 149 550 Q161 550 164.5 545.5 Q168 541 167 529 Q161 466 158 400.5 Q155 335 154.5 270 Q154 205 153.5 143 Q153 81 152 26 Q152 18 151.5 13 Q151 8 149.5 5.5 Q148 3 143.5 2 Q139 1 131 0 Q108 -4 89 -4 Q70 -4 50 2 Q43 4 41.5 10 Q40 16 40 23 Q41 109 41.5 178.5 Q42 248 42 306.5 Q42 365 41.5 416 Q41 467 39 517 Z M153 619 Q155 614 156.5 609.5 Q158 605 155 601 Q144 587 125 581 Q115 578 111 586 Q103 607 88.5 622.5 Q74 638 58 654 Q52 660 56.5 666.5 Q61 673 70 678 Q79 683 89.5 687 Q100 691 105 691 Q112 691 118 683 Q127 667 135.5 651.5 Q144 636 153 619 Z " />
<glyph glyph-name="Iacute" unicode="&#xcd;" horiz-adv-x="198" d="M39 517 Q38 528 39.5 532 Q41 536 52 538 Q75 543 100.5 548 Q126 553 149 550 Q161 550 164.5 545.5 Q168 541 167 529 Q161 466 158 400.5 Q155 335 154.5 270 Q154 205 153.5 143 Q153 81 152 26 Q152 18 151.5 13 Q151 8 149.5 5.5 Q148 3 143.5 2 Q139 1 131 0 Q108 -4 89 -4 Q70 -4 50 2 Q43 4 41.5 10 Q40 16 40 23 Q41 109 41.5 178.5 Q42 248 42 306.5 Q42 365 41.5 416 Q41 467 39 517 Z M148 656 Q158 644 145 635 Q128 621 111.5 606.5 Q95 592 84 572 Q75 574 65 580.5 Q55 587 49 597 Q43 606 50 615 Q61 630 71 644.5 Q81 659 92 673 Q96 678 101.5 681 Q107 684 114 682 Q125 679 132.5 671.5 Q140 664 148 656 Z " />
<glyph glyph-name="Icircumflex" unicode="&#xce;" horiz-adv-x="198" d="M39 517 Q38 528 39.5 532 Q41 536 52 538 Q75 543 100.5 548 Q126 553 149 550 Q161 550 164.5 545.5 Q168 541 167 529 Q161 466 158 400.5 Q155 335 154.5 270 Q154 205 153.5 143 Q153 81 152 26 Q152 18 151.5 13 Q151 8 149.5 5.5 Q148 3 143.5 2 Q139 1 131 0 Q108 -4 89 -4 Q70 -4 50 2 Q43 4 41.5 10 Q40 16 40 23 Q41 109 41.5 178.5 Q42 248 42 306.5 Q42 365 41.5 416 Q41 467 39 517 Z M103 612 Q97 600 93 590.5 Q89 581 84 572 Q79 572 71 574.5 Q63 577 56 581.5 Q49 586 45 591.5 Q41 597 44 604 Q52 622 61 639.5 Q70 657 79 675 Q83 682 93.5 684 Q104 686 110 686 Q121 686 124 683.5 Q127 681 132 672 Q138 657 144.5 642 Q151 627 157 612 Q162 601 161 598 Q160 595 152 586 Q141 575 134 574 Q127 573 121.5 578.5 Q116 584 112 593.5 Q108 603 103 612 Z " />
<glyph glyph-name="Idieresis" unicode="&#xcf;" horiz-adv-x="198" d="M39 517 Q38 528 39.5 532 Q41 536 52 538 Q75 543 100.5 548 Q126 553 149 550 Q161 550 164.5 545.5 Q168 541 167 529 Q161 466 158 400.5 Q155 335 154.5 270 Q154 205 153.5 143 Q153 81 152 26 Q152 18 151.5 13 Q151 8 149.5 5.5 Q148 3 143.5 2 Q139 1 131 0 Q108 -4 89 -4 Q70 -4 50 2 Q43 4 41.5 10 Q40 16 40 23 Q41 109 41.5 178.5 Q42 248 42 306.5 Q42 365 41.5 416 Q41 467 39 517 Z M142 653 Q159 653 170 641.5 Q181 630 181 613 Q180 597 168 585.5 Q156 574 139 575 Q124 575 112.5 587 Q101 599 102 615 Q102 631 113.5 642.5 Q125 654 142 653 Z M18 615 Q17 629 28.5 642 Q40 655 58 654 Q74 652 85 641.5 Q96 631 97 615 Q97 598 84.5 586 Q72 574 55 575 Q39 576 28 587 Q17 598 18 615 Z " />
<glyph glyph-name="Ntilde" unicode="&#xd1;" horiz-adv-x="429" d="M290 535 Q332 548 375 542 Q386 540 392 538.5 Q398 537 401 533.5 Q404 530 404 523.5 Q404 517 404 505 Q399 412 398.5 320 Q398 228 400 134 Q401 120 403 101 Q405 82 405 65.5 Q405 49 401 37 Q397 25 386 24 Q369 21 352 19 Q335 17 318 16 Q295 15 281 38 Q244 93 210.5 150.5 Q177 208 135 259 Q136 201 136.5 143.5 Q137 86 139 29 Q139 24 138.5 18.5 Q138 13 133 11 Q120 6 104 2.5 Q88 -1 73 -1 Q58 -1 46.5 3 Q35 7 32 16 Q25 146 27 268.5 Q29 391 26 513 Q26 524 28 527.5 Q30 531 40 534 Q71 544 104 543 Q116 543 123.5 538 Q131 533 136 522 Q206 376 289 244 Q295 317 295 389.5 Q295 462 290 535 Z M265 643 Q268 641 272 640 Q276 639 279 637 Q296 627 297.5 613 Q299 599 286 585 Q279 577 271.5 572 Q264 567 253 565 Q237 562 225 572 Q212 580 204 578.5 Q196 577 186 569 Q175 560 168.5 561 Q162 562 154 573 Q143 590 142.5 600 Q142 610 162 627 Q185 647 212 632 Q230 622 236.5 623 Q243 624 258 638 Q260 640 261.5 640.5 Q263 641 265 643 Z " />
<glyph glyph-name="Ograve" unicode="&#xd2;" horiz-adv-x="457" d="M28 388 Q35 421 51 449.5 Q67 478 90 500 Q113 522 141.5 536 Q170 550 203 553 Q258 557 300.5 540 Q343 523 373 491 Q403 459 419.5 414.5 Q436 370 439 320 Q440 275 432.5 228 Q425 181 407 140 Q389 99 358.5 67 Q328 35 283 19 Q199 -9 126 43 Q84 75 60.5 115 Q37 155 27 200 Q17 245 18 293 Q19 341 28 388 Z M153 291 Q154 253 164.5 218 Q175 183 203 160 Q222 145 242 145.5 Q262 146 281 161 Q306 186 318.5 220.5 Q331 255 331.5 291 Q332 327 319.5 360.5 Q307 394 282 417 Q265 433 244.5 433.5 Q224 434 205 420 Q176 395 164.5 360.5 Q153 326 153 291 Z M291 612 Q293 607 294.5 602.5 Q296 598 293 594 Q282 580 263 574 Q253 571 249 579 Q241 600 226.5 615.5 Q212 631 196 647 Q190 653 194.5 659.5 Q199 666 208 671 Q217 676 227.5 680 Q238 684 243 684 Q250 684 256 676 Q265 660 273.5 644.5 Q282 629 291 612 Z " />
<glyph glyph-name="Oacute" unicode="&#xd3;" horiz-adv-x="457" d="M28 388 Q35 421 51 449.5 Q67 478 90 500 Q113 522 141.5 536 Q170 550 203 553 Q258 557 300.5 540 Q343 523 373 491 Q403 459 419.5 414.5 Q436 370 439 320 Q440 275 432.5 228 Q425 181 407 140 Q389 99 358.5 67 Q328 35 283 19 Q199 -9 126 43 Q84 75 60.5 115 Q37 155 27 200 Q17 245 18 293 Q19 341 28 388 Z M153 291 Q154 253 164.5 218 Q175 183 203 160 Q222 145 242 145.5 Q262 146 281 161 Q306 186 318.5 220.5 Q331 255 331.5 291 Q332 327 319.5 360.5 Q307 394 282 417 Q265 433 244.5 433.5 Q224 434 205 420 Q176 395 164.5 360.5 Q153 326 153 291 Z M286 654 Q296 642 283 633 Q266 619 249.5 604.5 Q233 590 222 570 Q213 572 203 578.5 Q193 585 187 595 Q181 604 188 613 Q199 628 209 642.5 Q219 657 230 671 Q234 676 239.5 679 Q245 682 252 680 Q263 677 270.5 669.5 Q278 662 286 654 Z " />
<glyph glyph-name="Ocircumflex" unicode="&#xd4;" horiz-adv-x="457" d="M28 388 Q35 421 51 449.5 Q67 478 90 500 Q113 522 141.5 536 Q170 550 203 553 Q258 557 300.5 540 Q343 523 373 491 Q403 459 419.5 414.5 Q436 370 439 320 Q440 275 432.5 228 Q425 181 407 140 Q389 99 358.5 67 Q328 35 283 19 Q199 -9 126 43 Q84 75 60.5 115 Q37 155 27 200 Q17 245 18 293 Q19 341 28 388 Z M153 291 Q154 253 164.5 218 Q175 183 203 160 Q222 145 242 145.5 Q262 146 281 161 Q306 186 318.5 220.5 Q331 255 331.5 291 Q332 327 319.5 360.5 Q307 394 282 417 Q265 433 244.5 433.5 Q224 434 205 420 Q176 395 164.5 360.5 Q153 326 153 291 Z M237 612 Q231 600 227 590.5 Q223 581 218 572 Q213 572 205 574.5 Q197 577 190 581.5 Q183 586 179 591.5 Q175 597 178 604 Q186 622 195 639.5 Q204 657 213 675 Q217 682 227.5 684 Q238 686 244 686 Q255 686 258 683.5 Q261 681 266 672 Q272 657 278.5 642 Q285 627 291 612 Q296 601 295 598 Q294 595 286 586 Q275 575 268 574 Q261 573 255.5 578.5 Q250 584 246 593.5 Q242 603 237 612 Z " />
<glyph glyph-name="Otilde" unicode="&#xd5;" horiz-adv-x="457" d="M28 388 Q35 421 51 449.5 Q67 478 90 500 Q113 522 141.5 536 Q170 550 203 553 Q258 557 300.5 540 Q343 523 373 491 Q403 459 419.5 414.5 Q436 370 439 320 Q440 275 432.5 228 Q425 181 407 140 Q389 99 358.5 67 Q328 35 283 19 Q199 -9 126 43 Q84 75 60.5 115 Q37 155 27 200 Q17 245 18 293 Q19 341 28 388 Z M153 291 Q154 253 164.5 218 Q175 183 203 160 Q222 145 242 145.5 Q262 146 281 161 Q306 186 318.5 220.5 Q331 255 331.5 291 Q332 327 319.5 360.5 Q307 394 282 417 Q265 433 244.5 433.5 Q224 434 205 420 Q176 395 164.5 360.5 Q153 326 153 291 Z M281 659 Q284 657 288 656 Q292 655 295 653 Q312 643 313.5 629 Q315 615 302 601 Q295 593 287.5 588 Q280 583 269 581 Q253 578 241 588 Q228 596 220 594.5 Q212 593 202 585 Q191 576 184.5 577 Q178 578 170 589 Q159 606 158.5 616 Q158 626 178 643 Q201 663 228 648 Q246 638 252.5 639 Q259 640 274 654 Q276 656 277.5 656.5 Q279 657 281 659 Z " />
<glyph glyph-name="Odieresis" unicode="&#xd6;" horiz-adv-x="457" d="M28 388 Q35 421 51 449.5 Q67 478 90 500 Q113 522 141.5 536 Q170 550 203 553 Q258 557 300.5 540 Q343 523 373 491 Q403 459 419.5 414.5 Q436 370 439 320 Q440 275 432.5 228 Q425 181 407 140 Q389 99 358.5 67 Q328 35 283 19 Q199 -9 126 43 Q84 75 60.5 115 Q37 155 27 200 Q17 245 18 293 Q19 341 28 388 Z M153 291 Q154 253 164.5 218 Q175 183 203 160 Q222 145 242 145.5 Q262 146 281 161 Q306 186 318.5 220.5 Q331 255 331.5 291 Q332 327 319.5 360.5 Q307 394 282 417 Q265 433 244.5 433.5 Q224 434 205 420 Q176 395 164.5 360.5 Q153 326 153 291 Z M271 653 Q288 653 299 641.5 Q310 630 310 613 Q309 597 297 585.5 Q285 574 268 575 Q253 575 241.5 587 Q230 599 231 615 Q231 631 242.5 642.5 Q254 654 271 653 Z M147 615 Q146 629 157.5 642 Q169 655 187 654 Q203 652 214 641.5 Q225 631 226 615 Q226 598 213.5 586 Q201 574 184 575 Q168 576 157 587 Q146 598 147 615 Z " />
<glyph glyph-name="ccedilla" unicode="&#xe7;" horiz-adv-x="350" d="M289 254 Q272 273 256 287.5 Q240 302 217 307 Q189 310 171 297 Q153 284 144 263 Q135 242 134 217.5 Q133 193 139 174 Q148 142 171.5 129 Q195 116 230 124 Q238 126 244.5 129.5 Q251 133 258 136 Q265 139 271.5 140 Q278 141 286 139 Q313 129 328 103 Q335 88 327.5 73 Q320 58 305 45.5 Q290 33 271.5 24.5 Q253 16 240 14 Q205 6 171.5 10 Q138 14 110 29 Q82 44 61 70 Q40 96 30 132 Q16 178 22 226 Q28 274 50.5 314.5 Q73 355 110 384.5 Q147 414 195 422 Q286 430 335 357 Q342 347 340 336 Q338 316 323 292 Q308 268 289 254 Z M213 -15 Q236 -14 250 -21.5 Q264 -29 269 -50 Q276 -93 240 -123 Q234 -128 226 -132.5 Q218 -137 209.5 -140 Q201 -143 193 -142.5 Q185 -142 180 -137 Q172 -129 168.5 -115 Q165 -101 167 -87 Q172 -86 176 -86 Q180 -86 185 -85 Q190 -83 200 -80 Q210 -77 206 -69 Q205 -67 202.5 -65.5 Q200 -64 198 -64 Q187 -65 181.5 -69 Q176 -73 168 -76 Q161 -74 159.5 -65.5 Q158 -57 158 -52 Q157 -30 157 -11.5 Q157 7 156 29 Q156 43 169 46 Q178 48 186 50 Q194 52 203 53 Q217 56 216 41 Q213 12 213 -15 Z " />
<glyph glyph-name="egrave" unicode="&#xe8;" horiz-adv-x="364" d="M161 135 Q167 116 184.5 112.5 Q202 109 220 114 Q231 116 241.5 121.5 Q252 127 260 133 Q270 139 278 147 Q291 141 304.5 128 Q318 115 326 101 Q331 90 328 80 Q325 70 318 61.5 Q311 53 301 45.5 Q291 38 282 34 Q244 16 204 13.5 Q164 11 128 24 Q92 37 65 65 Q38 93 28 137 Q17 183 20.5 230.5 Q24 278 43 317.5 Q62 357 96.5 384.5 Q131 412 182 418 Q212 422 240 415.5 Q268 409 291 394 Q314 379 329.5 357 Q345 335 349 307 Q353 281 350 254.5 Q347 228 326 213 Q311 201 289 190 Q267 179 244 169 Q221 159 198.5 150.5 Q176 142 161 135 Z M251 274 Q239 292 225.5 301 Q212 310 192 307 Q178 305 167 295.5 Q156 286 148.5 271.5 Q141 257 138 240 Q135 223 138 207 Q166 220 195.5 237.5 Q225 255 251 274 Z M246 474 Q248 469 249.5 464.5 Q251 460 248 456 Q237 442 218 436 Q208 433 204 441 Q196 462 181.5 477.5 Q167 493 151 509 Q145 515 149.5 521.5 Q154 528 163 533 Q172 538 182.5 542 Q193 546 198 546 Q205 546 211 538 Q220 522 228.5 506.5 Q237 491 246 474 Z " />
<glyph glyph-name="eacute" unicode="&#xe9;" horiz-adv-x="364" d="M161 135 Q167 116 184.5 112.5 Q202 109 220 114 Q231 116 241.5 121.5 Q252 127 260 133 Q270 139 278 147 Q291 141 304.5 128 Q318 115 326 101 Q331 90 328 80 Q325 70 318 61.5 Q311 53 301 45.5 Q291 38 282 34 Q244 16 204 13.5 Q164 11 128 24 Q92 37 65 65 Q38 93 28 137 Q17 183 20.5 230.5 Q24 278 43 317.5 Q62 357 96.5 384.5 Q131 412 182 418 Q212 422 240 415.5 Q268 409 291 394 Q314 379 329.5 357 Q345 335 349 307 Q353 281 350 254.5 Q347 228 326 213 Q311 201 289 190 Q267 179 244 169 Q221 159 198.5 150.5 Q176 142 161 135 Z M251 274 Q239 292 225.5 301 Q212 310 192 307 Q178 305 167 295.5 Q156 286 148.5 271.5 Q141 257 138 240 Q135 223 138 207 Q166 220 195.5 237.5 Q225 255 251 274 Z M236 511 Q246 499 233 490 Q216 476 199.5 461.5 Q183 447 172 427 Q163 429 153 435.5 Q143 442 137 452 Q131 461 138 470 Q149 485 159 499.5 Q169 514 180 528 Q184 533 189.5 536 Q195 539 202 537 Q213 534 220.5 526.5 Q228 519 236 511 Z " />
<glyph glyph-name="ecircumflex" unicode="&#xea;" horiz-adv-x="364" d="M161 135 Q167 116 184.5 112.5 Q202 109 220 114 Q231 116 241.5 121.5 Q252 127 260 133 Q270 139 278 147 Q291 141 304.5 128 Q318 115 326 101 Q331 90 328 80 Q325 70 318 61.5 Q311 53 301 45.5 Q291 38 282 34 Q244 16 204 13.5 Q164 11 128 24 Q92 37 65 65 Q38 93 28 137 Q17 183 20.5 230.5 Q24 278 43 317.5 Q62 357 96.5 384.5 Q131 412 182 418 Q212 422 240 415.5 Q268 409 291 394 Q314 379 329.5 357 Q345 335 349 307 Q353 281 350 254.5 Q347 228 326 213 Q311 201 289 190 Q267 179 244 169 Q221 159 198.5 150.5 Q176 142 161 135 Z M251 274 Q239 292 225.5 301 Q212 310 192 307 Q178 305 167 295.5 Q156 286 148.5 271.5 Q141 257 138 240 Q135 223 138 207 Q166 220 195.5 237.5 Q225 255 251 274 Z M200 481 Q194 469 190 459.5 Q186 450 181 441 Q176 441 168 443.5 Q160 446 153 450.5 Q146 455 142 460.5 Q138 466 141 473 Q149 491 158 508.5 Q167 526 176 544 Q180 551 190.5 553 Q201 555 207 555 Q218 555 221 552.5 Q224 550 229 541 Q235 526 241.5 511 Q248 496 254 481 Q259 470 258 467 Q257 464 249 455 Q238 444 231 443 Q224 442 218.5 447.5 Q213 453 209 462.5 Q205 472 200 481 Z " />
<glyph glyph-name="edieresis" unicode="&#xeb;" horiz-adv-x="364" d="M161 135 Q167 116 184.5 112.5 Q202 109 220 114 Q231 116 241.5 121.5 Q252 127 260 133 Q270 139 278 147 Q291 141 304.5 128 Q318 115 326 101 Q331 90 328 80 Q325 70 318 61.5 Q311 53 301 45.5 Q291 38 282 34 Q244 16 204 13.5 Q164 11 128 24 Q92 37 65 65 Q38 93 28 137 Q17 183 20.5 230.5 Q24 278 43 317.5 Q62 357 96.5 384.5 Q131 412 182 418 Q212 422 240 415.5 Q268 409 291 394 Q314 379 329.5 357 Q345 335 349 307 Q353 281 350 254.5 Q347 228 326 213 Q311 201 289 190 Q267 179 244 169 Q221 159 198.5 150.5 Q176 142 161 135 Z M251 274 Q239 292 225.5 301 Q212 310 192 307 Q178 305 167 295.5 Q156 286 148.5 271.5 Q141 257 138 240 Q135 223 138 207 Q166 220 195.5 237.5 Q225 255 251 274 Z M232 517 Q249 517 260 505.5 Q271 494 271 477 Q270 461 258 449.5 Q246 438 229 439 Q214 439 202.5 451 Q191 463 192 479 Q192 495 203.5 506.5 Q215 518 232 517 Z M108 479 Q107 493 118.5 506 Q130 519 148 518 Q164 516 175 505.5 Q186 495 187 479 Q187 462 174.5 450 Q162 438 145 439 Q129 440 118 451 Q107 462 108 479 Z " />
<glyph glyph-name="igrave" unicode="&#xec;" horiz-adv-x="185" d="M153 29 Q154 12 140 9 Q118 4 94.5 8.5 Q71 13 54 18 Q38 27 39 44 Q43 134 47 219.5 Q51 305 39 389 Q38 397 39.5 402.5 Q41 408 49 412 Q69 420 88.5 425.5 Q108 431 130 429 Q142 427 146 422.5 Q150 418 150 407 Q146 300 145 208.5 Q144 117 153 29 Z M98 571 Q123 571 140 553.5 Q157 536 156 511 Q156 487 139 470 Q122 453 98 452 Q74 452 56.5 469.5 Q39 487 39 512 Q39 536 56 553.5 Q73 571 98 571 Z M142 626 Q144 621 145.5 616.5 Q147 612 144 608 Q133 594 114 588 Q104 585 100 593 Q92 614 77.5 629.5 Q63 645 47 661 Q41 667 45.5 673.5 Q50 680 59 685 Q68 690 78.5 694 Q89 698 94 698 Q101 698 107 690 Q116 674 124.5 658.5 Q133 643 142 626 Z " />
<glyph glyph-name="iacute" unicode="&#xed;" horiz-adv-x="185" d="M153 29 Q154 12 140 9 Q118 4 94.5 8.5 Q71 13 54 18 Q38 27 39 44 Q43 134 47 219.5 Q51 305 39 389 Q38 397 39.5 402.5 Q41 408 49 412 Q69 420 88.5 425.5 Q108 431 130 429 Q142 427 146 422.5 Q150 418 150 407 Q146 300 145 208.5 Q144 117 153 29 Z M98 571 Q123 571 140 553.5 Q157 536 156 511 Q156 487 139 470 Q122 453 98 452 Q74 452 56.5 469.5 Q39 487 39 512 Q39 536 56 553.5 Q73 571 98 571 Z M145 663 Q155 651 142 642 Q125 628 108.5 613.5 Q92 599 81 579 Q72 581 62 587.5 Q52 594 46 604 Q40 613 47 622 Q58 637 68 651.5 Q78 666 89 680 Q93 685 98.5 688 Q104 691 111 689 Q122 686 129.5 678.5 Q137 671 145 663 Z " />
<glyph glyph-name="icircumflex" unicode="&#xee;" horiz-adv-x="185" d="M153 29 Q154 12 140 9 Q118 4 94.5 8.5 Q71 13 54 18 Q38 27 39 44 Q43 134 47 219.5 Q51 305 39 389 Q38 397 39.5 402.5 Q41 408 49 412 Q69 420 88.5 425.5 Q108 431 130 429 Q142 427 146 422.5 Q150 418 150 407 Q146 300 145 208.5 Q144 117 153 29 Z M98 571 Q123 571 140 553.5 Q157 536 156 511 Q156 487 139 470 Q122 453 98 452 Q74 452 56.5 469.5 Q39 487 39 512 Q39 536 56 553.5 Q73 571 98 571 Z M99 629 Q93 617 89 607.5 Q85 598 80 589 Q75 589 67 591.5 Q59 594 52 598.5 Q45 603 41 608.5 Q37 614 40 621 Q48 639 57 656.5 Q66 674 75 692 Q79 699 89.5 701 Q100 703 106 703 Q117 703 120 700.5 Q123 698 128 689 Q134 674 140.5 659 Q147 644 153 629 Q158 618 157 615 Q156 612 148 603 Q137 592 130 591 Q123 590 117.5 595.5 Q112 601 108 610.5 Q104 620 99 629 Z " />
<glyph glyph-name="idieresis" unicode="&#xef;" horiz-adv-x="185" d="M153 29 Q154 12 140 9 Q118 4 94.5 8.5 Q71 13 54 18 Q38 27 39 44 Q43 134 47 219.5 Q51 305 39 389 Q38 397 39.5 402.5 Q41 408 49 412 Q69 420 88.5 425.5 Q108 431 130 429 Q142 427 146 422.5 Q150 418 150 407 Q146 300 145 208.5 Q144 117 153 29 Z M98 571 Q123 571 140 553.5 Q157 536 156 511 Q156 487 139 470 Q122 453 98 452 Q74 452 56.5 469.5 Q39 487 39 512 Q39 536 56 553.5 Q73 571 98 571 Z M139 665 Q156 665 167 653.5 Q178 642 178 625 Q177 609 165 597.5 Q153 586 136 587 Q121 587 109.5 599 Q98 611 99 627 Q99 643 110.5 654.5 Q122 666 139 665 Z M15 627 Q14 641 25.5 654 Q37 667 55 666 Q71 664 82 653.5 Q93 643 94 627 Q94 610 81.5 598 Q69 586 52 587 Q36 588 25 599 Q14 610 15 627 Z " />
<glyph glyph-name="ntilde" unicode="&#xf1;" horiz-adv-x="389" d="M137 372 Q155 384 172 395.5 Q189 407 206.5 414 Q224 421 243.5 422.5 Q263 424 285 418 Q311 408 324.5 386 Q338 364 344.5 337 Q351 310 352 282 Q353 254 355 233 Q357 188 357 144 Q357 100 358 55 Q358 40 354.5 36.5 Q351 33 336 28 Q303 19 267 22 Q256 24 252.5 27.5 Q249 31 251 42 Q256 102 254.5 161.5 Q253 221 244 281 Q240 294 232.5 297 Q225 300 216.5 296.5 Q208 293 200 286 Q192 279 187 272 Q172 253 161 225.5 Q150 198 144 167 Q138 136 136.5 104 Q135 72 139 43 Q141 32 140.5 22.5 Q140 13 127 11 Q84 2 45 19 Q33 24 30 29 Q27 34 28 48 Q30 123 32.5 196.5 Q35 270 32 345 Q31 358 30 370.5 Q29 383 27 395 Q26 408 37 414 Q49 418 66 424 Q83 430 98.5 431.5 Q114 433 125.5 428.5 Q137 424 137 408 L137 372 Z M249 530 Q252 528 256 527 Q260 526 263 524 Q280 514 281.5 500 Q283 486 270 472 Q263 464 255.5 459 Q248 454 237 452 Q221 449 209 459 Q196 467 188 465.5 Q180 464 170 456 Q159 447 152.5 448 Q146 449 138 460 Q127 477 126.5 487 Q126 497 146 514 Q169 534 196 519 Q214 509 220.5 510 Q227 511 242 525 Q244 527 245.5 527.5 Q247 528 249 530 Z " />
<glyph glyph-name="ograve" unicode="&#xf2;" horiz-adv-x="400" d="M336 75 Q314 48 286 32.5 Q258 17 227.5 13.5 Q197 10 166 18 Q135 26 107 46 Q72 71 51 108.5 Q30 146 24 187 Q18 228 26.5 269.5 Q35 311 61 346 Q88 379 122 396 Q156 413 192 414 Q228 415 262.5 401 Q297 387 324 358 Q351 328 365 291.5 Q379 255 380.5 217 Q382 179 370.5 142 Q359 105 336 75 Z M147 235 Q146 206 164.5 186 Q183 166 209 168 Q231 171 247 184 Q263 197 271 215 Q279 233 277.5 253 Q276 273 264 290 Q247 311 226.5 312 Q206 313 188.5 302.5 Q171 292 159 273.5 Q147 255 147 235 Z M261 474 Q263 469 264.5 464.5 Q266 460 263 456 Q252 442 233 436 Q223 433 219 441 Q211 462 196.5 477.5 Q182 493 166 509 Q160 515 164.5 521.5 Q169 528 178 533 Q187 538 197.5 542 Q208 546 213 546 Q220 546 226 538 Q235 522 243.5 506.5 Q252 491 261 474 Z " />
<glyph glyph-name="oacute" unicode="&#xf3;" horiz-adv-x="400" d="M336 75 Q314 48 286 32.5 Q258 17 227.5 13.5 Q197 10 166 18 Q135 26 107 46 Q72 71 51 108.5 Q30 146 24 187 Q18 228 26.5 269.5 Q35 311 61 346 Q88 379 122 396 Q156 413 192 414 Q228 415 262.5 401 Q297 387 324 358 Q351 328 365 291.5 Q379 255 380.5 217 Q382 179 370.5 142 Q359 105 336 75 Z M147 235 Q146 206 164.5 186 Q183 166 209 168 Q231 171 247 184 Q263 197 271 215 Q279 233 277.5 253 Q276 273 264 290 Q247 311 226.5 312 Q206 313 188.5 302.5 Q171 292 159 273.5 Q147 255 147 235 Z M247 515 Q257 503 244 494 Q227 480 210.5 465.5 Q194 451 183 431 Q174 433 164 439.5 Q154 446 148 456 Q142 465 149 474 Q160 489 170 503.5 Q180 518 191 532 Q195 537 200.5 540 Q206 543 213 541 Q224 538 231.5 530.5 Q239 523 247 515 Z " />
<glyph glyph-name="ocircumflex" unicode="&#xf4;" horiz-adv-x="400" d="M336 75 Q314 48 286 32.5 Q258 17 227.5 13.5 Q197 10 166 18 Q135 26 107 46 Q72 71 51 108.5 Q30 146 24 187 Q18 228 26.5 269.5 Q35 311 61 346 Q88 379 122 396 Q156 413 192 414 Q228 415 262.5 401 Q297 387 324 358 Q351 328 365 291.5 Q379 255 380.5 217 Q382 179 370.5 142 Q359 105 336 75 Z M147 235 Q146 206 164.5 186 Q183 166 209 168 Q231 171 247 184 Q263 197 271 215 Q279 233 277.5 253 Q276 273 264 290 Q247 311 226.5 312 Q206 313 188.5 302.5 Q171 292 159 273.5 Q147 255 147 235 Z M206 471 Q200 459 196 449.5 Q192 440 187 431 Q182 431 174 433.5 Q166 436 159 440.5 Q152 445 148 450.5 Q144 456 147 463 Q155 481 164 498.5 Q173 516 182 534 Q186 541 196.5 543 Q207 545 213 545 Q224 545 227 542.5 Q230 540 235 531 Q241 516 247.5 501 Q254 486 260 471 Q265 460 264 457 Q263 454 255 445 Q244 434 237 433 Q230 432 224.5 437.5 Q219 443 215 452.5 Q211 462 206 471 Z " />
<glyph glyph-name="otilde" unicode="&#xf5;" horiz-adv-x="400" d="M336 75 Q314 48 286 32.5 Q258 17 227.5 13.5 Q197 10 166 18 Q135 26 107 46 Q72 71 51 108.5 Q30 146 24 187 Q18 228 26.5 269.5 Q35 311 61 346 Q88 379 122 396 Q156 413 192 414 Q228 415 262.5 401 Q297 387 324 358 Q351 328 365 291.5 Q379 255 380.5 217 Q382 179 370.5 142 Q359 105 336 75 Z M147 235 Q146 206 164.5 186 Q183 166 209 168 Q231 171 247 184 Q263 197 271 215 Q279 233 277.5 253 Q276 273 264 290 Q247 311 226.5 312 Q206 313 188.5 302.5 Q171 292 159 273.5 Q147 255 147 235 Z M248 513 Q251 511 255 510 Q259 509 262 507 Q279 497 280.5 483 Q282 469 269 455 Q262 447 254.5 442 Q247 437 236 435 Q220 432 208 442 Q195 450 187 448.5 Q179 447 169 439 Q158 430 151.5 431 Q145 432 137 443 Q126 460 125.5 470 Q125 480 145 497 Q168 517 195 502 Q213 492 219.5 493 Q226 494 241 508 Q243 510 244.5 510.5 Q246 511 248 513 Z " />
<glyph glyph-name="odieresis" unicode="&#xf6;" horiz-adv-x="400" d="M336 75 Q314 48 286 32.5 Q258 17 227.5 13.5 Q197 10 166 18 Q135 26 107 46 Q72 71 51 108.5 Q30 146 24 187 Q18 228 26.5 269.5 Q35 311 61 346 Q88 379 122 396 Q156 413 192 414 Q228 415 262.5 401 Q297 387 324 358 Q351 328 365 291.5 Q379 255 380.5 217 Q382 179 370.5 142 Q359 105 336 75 Z M147 235 Q146 206 164.5 186 Q183 166 209 168 Q231 171 247 184 Q263 197 271 215 Q279 233 277.5 253 Q276 273 264 290 Q247 311 226.5 312 Q206 313 188.5 302.5 Q171 292 159 273.5 Q147 255 147 235 Z M248 507 Q265 507 276 495.5 Q287 484 287 467 Q286 451 274 439.5 Q262 428 245 429 Q230 429 218.5 441 Q207 453 208 469 Q208 485 219.5 496.5 Q231 508 248 507 Z M124 469 Q123 483 134.5 496 Q146 509 164 508 Q180 506 191 495.5 Q202 485 203 469 Q203 452 190.5 440 Q178 428 161 429 Q145 430 134 441 Q123 452 124 469 Z " />
<glyph glyph-name="ugrave" unicode="&#xf9;" horiz-adv-x="366" d="M159 179 Q169 155 180.5 148.5 Q192 142 203 147.5 Q214 153 222.5 168 Q231 183 234 202 Q244 249 246 295 Q248 341 246 388 Q245 408 249 412.5 Q253 417 274 418 Q301 419 326 418 Q343 417 347.5 412.5 Q352 408 353 391 Q353 360 353.5 321 Q354 282 350.5 240.5 Q347 199 338.5 158.5 Q330 118 313 85.5 Q296 53 268 31.5 Q240 10 198 7 Q154 10 124 31 Q94 52 75.5 83.5 Q57 115 47.5 154 Q38 193 34.5 233.5 Q31 274 32 313 Q33 352 35 382 Q38 401 55 407 Q69 412 84 414 Q99 416 114 417 Q143 416 143 392 Q143 360 143 328.5 Q143 297 144.5 269.5 Q146 242 149 218.5 Q152 195 159 179 Z M240 474 Q242 469 243.5 464.5 Q245 460 242 456 Q231 442 212 436 Q202 433 198 441 Q190 462 175.5 477.5 Q161 493 145 509 Q139 515 143.5 521.5 Q148 528 157 533 Q166 538 176.5 542 Q187 546 192 546 Q199 546 205 538 Q214 522 222.5 506.5 Q231 491 240 474 Z " />
<glyph glyph-name="uacute" unicode="&#xfa;" horiz-adv-x="366" d="M159 179 Q169 155 180.5 148.5 Q192 142 203 147.5 Q214 153 222.5 168 Q231 183 234 202 Q244 249 246 295 Q248 341 246 388 Q245 408 249 412.5 Q253 417 274 418 Q301 419 326 418 Q343 417 347.5 412.5 Q352 408 353 391 Q353 360 353.5 321 Q354 282 350.5 240.5 Q347 199 338.5 158.5 Q330 118 313 85.5 Q296 53 268 31.5 Q240 10 198 7 Q154 10 124 31 Q94 52 75.5 83.5 Q57 115 47.5 154 Q38 193 34.5 233.5 Q31 274 32 313 Q33 352 35 382 Q38 401 55 407 Q69 412 84 414 Q99 416 114 417 Q143 416 143 392 Q143 360 143 328.5 Q143 297 144.5 269.5 Q146 242 149 218.5 Q152 195 159 179 Z M242 508 Q252 496 239 487 Q222 473 205.5 458.5 Q189 444 178 424 Q169 426 159 432.5 Q149 439 143 449 Q137 458 144 467 Q155 482 165 496.5 Q175 511 186 525 Q190 530 195.5 533 Q201 536 208 534 Q219 531 226.5 523.5 Q234 516 242 508 Z " />
<glyph glyph-name="ucircumflex" unicode="&#xfb;" horiz-adv-x="366" d="M159 179 Q169 155 180.5 148.5 Q192 142 203 147.5 Q214 153 222.5 168 Q231 183 234 202 Q244 249 246 295 Q248 341 246 388 Q245 408 249 412.5 Q253 417 274 418 Q301 419 326 418 Q343 417 347.5 412.5 Q352 408 353 391 Q353 360 353.5 321 Q354 282 350.5 240.5 Q347 199 338.5 158.5 Q330 118 313 85.5 Q296 53 268 31.5 Q240 10 198 7 Q154 10 124 31 Q94 52 75.5 83.5 Q57 115 47.5 154 Q38 193 34.5 233.5 Q31 274 32 313 Q33 352 35 382 Q38 401 55 407 Q69 412 84 414 Q99 416 114 417 Q143 416 143 392 Q143 360 143 328.5 Q143 297 144.5 269.5 Q146 242 149 218.5 Q152 195 159 179 Z M192 481 Q186 469 182 459.5 Q178 450 173 441 Q168 441 160 443.5 Q152 446 145 450.5 Q138 455 134 460.5 Q130 466 133 473 Q141 491 150 508.5 Q159 526 168 544 Q172 551 182.5 553 Q193 555 199 555 Q210 555 213 552.5 Q216 550 221 541 Q227 526 233.5 511 Q240 496 246 481 Q251 470 250 467 Q249 464 241 455 Q230 444 223 443 Q216 442 210.5 447.5 Q205 453 201 462.5 Q197 472 192 481 Z " />
<glyph glyph-name="udieresis" unicode="&#xfc;" horiz-adv-x="366" d="M159 179 Q169 155 180.5 148.5 Q192 142 203 147.5 Q214 153 222.5 168 Q231 183 234 202 Q244 249 246 295 Q248 341 246 388 Q245 408 249 412.5 Q253 417 274 418 Q301 419 326 418 Q343 417 347.5 412.5 Q352 408 353 391 Q353 360 353.5 321 Q354 282 350.5 240.5 Q347 199 338.5 158.5 Q330 118 313 85.5 Q296 53 268 31.5 Q240 10 198 7 Q154 10 124 31 Q94 52 75.5 83.5 Q57 115 47.5 154 Q38 193 34.5 233.5 Q31 274 32 313 Q33 352 35 382 Q38 401 55 407 Q69 412 84 414 Q99 416 114 417 Q143 416 143 392 Q143 360 143 328.5 Q143 297 144.5 269.5 Q146 242 149 218.5 Q152 195 159 179 Z M233 514 Q250 514 261 502.5 Q272 491 272 474 Q271 458 259 446.5 Q247 435 230 436 Q215 436 203.5 448 Q192 460 193 476 Q193 492 204.5 503.5 Q216 515 233 514 Z M109 476 Q108 490 119.5 503 Q131 516 149 515 Q165 513 176 502.5 Q187 492 188 476 Q188 459 175.5 447 Q163 435 146 436 Q130 437 119 448 Q108 459 109 476 Z " />
<glyph glyph-name="yacute" unicode="&#xfd;" horiz-adv-x="345" d="M309 421 Q317 419 322 404.5 Q327 390 329.5 371 Q332 352 333 333.5 Q334 315 334 306 Q333 242 324 172.5 Q315 103 291.5 41.5 Q268 -20 225.5 -67 Q183 -114 116 -133 Q102 -136 95 -123.5 Q88 -111 84 -94 Q80 -77 79.5 -59.5 Q79 -42 79 -35 Q80 -24 82 -21 Q84 -18 95 -16 Q117 -11 133.5 -3 Q150 5 163 18 Q96 23 61 75 Q45 98 35.5 128.5 Q26 159 21.5 193 Q17 227 16.5 261 Q16 295 19 324.5 Q22 354 28 376.5 Q34 399 41 409 Q50 412 66 417 Q82 422 98 423.5 Q114 425 125 420 Q136 415 133 399 Q129 376 123.5 338 Q118 300 117.5 260.5 Q117 221 124.5 186.5 Q132 152 154 136 Q166 128 176.5 128.5 Q187 129 199 143 Q208 156 212.5 186 Q217 216 218.5 253.5 Q220 291 220 330.5 Q220 370 219 401 Q219 412 231 417 Q243 422 258 423.5 Q273 425 287.5 423.5 Q302 422 309 421 Z M229 513 Q239 501 226 492 Q209 478 192.5 463.5 Q176 449 165 429 Q156 431 146 437.5 Q136 444 130 454 Q124 463 131 472 Q142 487 152 501.5 Q162 516 173 530 Q177 535 182.5 538 Q188 541 195 539 Q206 536 213.5 528.5 Q221 521 229 513 Z " />
<glyph glyph-name="ydieresis" unicode="&#xff;" horiz-adv-x="345" d="M309 421 Q317 419 322 404.5 Q327 390 329.5 371 Q332 352 333 333.5 Q334 315 334 306 Q333 242 324 172.5 Q315 103 291.5 41.5 Q268 -20 225.5 -67 Q183 -114 116 -133 Q102 -136 95 -123.5 Q88 -111 84 -94 Q80 -77 79.5 -59.5 Q79 -42 79 -35 Q80 -24 82 -21 Q84 -18 95 -16 Q117 -11 133.5 -3 Q150 5 163 18 Q96 23 61 75 Q45 98 35.5 128.5 Q26 159 21.5 193 Q17 227 16.5 261 Q16 295 19 324.5 Q22 354 28 376.5 Q34 399 41 409 Q50 412 66 417 Q82 422 98 423.5 Q114 425 125 420 Q136 415 133 399 Q129 376 123.5 338 Q118 300 117.5 260.5 Q117 221 124.5 186.5 Q132 152 154 136 Q166 128 176.5 128.5 Q187 129 199 143 Q208 156 212.5 186 Q217 216 218.5 253.5 Q220 291 220 330.5 Q220 370 219 401 Q219 412 231 417 Q243 422 258 423.5 Q273 425 287.5 423.5 Q302 422 309 421 Z M220 517 Q237 517 248 505.5 Q259 494 259 477 Q258 461 246 449.5 Q234 438 217 439 Q202 439 190.5 451 Q179 463 180 479 Q180 495 191.5 506.5 Q203 518 220 517 Z M96 479 Q95 493 106.5 506 Q118 519 136 518 Q152 516 163 505.5 Q174 495 175 479 Q175 462 162.5 450 Q150 438 133 439 Q117 440 106 451 Q95 462 96 479 Z " />
<glyph glyph-name="Ugrave" unicode="&#xd9;" horiz-adv-x="436" d="M20 504 Q21 514 22.5 521.5 Q24 529 33 533 Q73 548 118 543 Q132 541 136.5 535.5 Q141 530 140 517 Q138 475 135.5 430.5 Q133 386 132 342.5 Q131 299 134 258 Q137 217 145 183 Q148 173 152 161.5 Q156 150 163 140.5 Q170 131 181 125 Q192 119 209 119 Q225 119 236 128.5 Q247 138 254.5 152 Q262 166 266 182.5 Q270 199 273 213 Q284 275 285.5 345.5 Q287 416 287 483 Q286 502 285.5 518 Q285 534 303 541 Q326 549 351.5 547 Q377 545 400 540 Q411 537 414.5 533 Q418 529 418 517 Q416 476 416.5 422 Q417 368 413.5 310.5 Q410 253 400 197.5 Q390 142 367.5 98.5 Q345 55 306 28.5 Q267 2 207 3 Q149 4 112.5 30.5 Q76 57 55 99.5 Q34 142 25.5 196 Q17 250 15.5 305.5 Q14 361 16.5 413 Q19 465 20 504 Z M263 595 Q265 590 266.5 585.5 Q268 581 265 577 Q254 563 235 557 Q225 554 221 562 Q213 583 198.5 598.5 Q184 614 168 630 Q162 636 166.5 642.5 Q171 649 180 654 Q189 659 199.5 663 Q210 667 215 667 Q222 667 228 659 Q237 643 245.5 627.5 Q254 612 263 595 Z " />
<glyph glyph-name="Uacute" unicode="&#xda;" horiz-adv-x="436" d="M20 504 Q21 514 22.5 521.5 Q24 529 33 533 Q73 548 118 543 Q132 541 136.5 535.5 Q141 530 140 517 Q138 475 135.5 430.5 Q133 386 132 342.5 Q131 299 134 258 Q137 217 145 183 Q148 173 152 161.5 Q156 150 163 140.5 Q170 131 181 125 Q192 119 209 119 Q225 119 236 128.5 Q247 138 254.5 152 Q262 166 266 182.5 Q270 199 273 213 Q284 275 285.5 345.5 Q287 416 287 483 Q286 502 285.5 518 Q285 534 303 541 Q326 549 351.5 547 Q377 545 400 540 Q411 537 414.5 533 Q418 529 418 517 Q416 476 416.5 422 Q417 368 413.5 310.5 Q410 253 400 197.5 Q390 142 367.5 98.5 Q345 55 306 28.5 Q267 2 207 3 Q149 4 112.5 30.5 Q76 57 55 99.5 Q34 142 25.5 196 Q17 250 15.5 305.5 Q14 361 16.5 413 Q19 465 20 504 Z M265 637 Q275 625 262 616 Q245 602 228.5 587.5 Q212 573 201 553 Q192 555 182 561.5 Q172 568 166 578 Q160 587 167 596 Q178 611 188 625.5 Q198 640 209 654 Q213 659 218.5 662 Q224 665 231 663 Q242 660 249.5 652.5 Q257 645 265 637 Z " />
<glyph glyph-name="Ucircumflex" unicode="&#xdb;" horiz-adv-x="436" d="M20 504 Q21 514 22.5 521.5 Q24 529 33 533 Q73 548 118 543 Q132 541 136.5 535.5 Q141 530 140 517 Q138 475 135.5 430.5 Q133 386 132 342.5 Q131 299 134 258 Q137 217 145 183 Q148 173 152 161.5 Q156 150 163 140.5 Q170 131 181 125 Q192 119 209 119 Q225 119 236 128.5 Q247 138 254.5 152 Q262 166 266 182.5 Q270 199 273 213 Q284 275 285.5 345.5 Q287 416 287 483 Q286 502 285.5 518 Q285 534 303 541 Q326 549 351.5 547 Q377 545 400 540 Q411 537 414.5 533 Q418 529 418 517 Q416 476 416.5 422 Q417 368 413.5 310.5 Q410 253 400 197.5 Q390 142 367.5 98.5 Q345 55 306 28.5 Q267 2 207 3 Q149 4 112.5 30.5 Q76 57 55 99.5 Q34 142 25.5 196 Q17 250 15.5 305.5 Q14 361 16.5 413 Q19 465 20 504 Z M217 591 Q211 579 207 569.5 Q203 560 198 551 Q193 551 185 553.5 Q177 556 170 560.5 Q163 565 159 570.5 Q155 576 158 583 Q166 601 175 618.5 Q184 636 193 654 Q197 661 207.5 663 Q218 665 224 665 Q235 665 238 662.5 Q241 660 246 651 Q252 636 258.5 621 Q265 606 271 591 Q276 580 275 577 Q274 574 266 565 Q255 554 248 553 Q241 552 235.5 557.5 Q230 563 226 572.5 Q222 582 217 591 Z " />
<glyph glyph-name="Udieresis" unicode="&#xdc;" horiz-adv-x="436" d="M20 504 Q21 514 22.5 521.5 Q24 529 33 533 Q73 548 118 543 Q132 541 136.5 535.5 Q141 530 140 517 Q138 475 135.5 430.5 Q133 386 132 342.5 Q131 299 134 258 Q137 217 145 183 Q148 173 152 161.5 Q156 150 163 140.5 Q170 131 181 125 Q192 119 209 119 Q225 119 236 128.5 Q247 138 254.5 152 Q262 166 266 182.5 Q270 199 273 213 Q284 275 285.5 345.5 Q287 416 287 483 Q286 502 285.5 518 Q285 534 303 541 Q326 549 351.5 547 Q377 545 400 540 Q411 537 414.5 533 Q418 529 418 517 Q416 476 416.5 422 Q417 368 413.5 310.5 Q410 253 400 197.5 Q390 142 367.5 98.5 Q345 55 306 28.5 Q267 2 207 3 Q149 4 112.5 30.5 Q76 57 55 99.5 Q34 142 25.5 196 Q17 250 15.5 305.5 Q14 361 16.5 413 Q19 465 20 504 Z M259 653 Q276 653 287 641.5 Q298 630 298 613 Q297 597 285 585.5 Q273 574 256 575 Q241 575 229.5 587 Q218 599 219 615 Q219 631 230.5 642.5 Q242 654 259 653 Z M135 615 Q134 629 145.5 642 Q157 655 175 654 Q191 652 202 641.5 Q213 631 214 615 Q214 598 201.5 586 Q189 574 172 575 Q156 576 145 587 Q134 598 135 615 Z " />
<glyph glyph-name="Yacute" unicode="&#xdd;" horiz-adv-x="393" d="M203 366 Q217 407 235 444 Q253 481 276 517 Q280 522 284.5 530 Q289 538 295 544.5 Q301 551 307 555.5 Q313 560 320 558 Q339 553 355 544.5 Q371 536 385 522 Q395 511 395.5 505 Q396 499 388 486 Q352 430 320 372.5 Q288 315 263 253 Q259 244 259 230 Q260 174 260.5 124 Q261 74 261 24 Q254 18 237.5 16 Q221 14 204 14 Q187 14 173 16 Q159 18 158 21 Q157 26 157 30.5 Q157 35 157 40 L160 217 Q161 225 159 231 Q157 237 154 244 Q123 309 86.5 369 Q50 429 8 486 Q0 497 0.5 501.5 Q1 506 11 515 Q24 526 38 536.5 Q52 547 69 553 Q87 560 99 552 Q111 544 119 528 Q145 490 164.5 447.5 Q184 405 203 366 Z M251 644 Q261 632 248 623 Q231 609 214.5 594.5 Q198 580 187 560 Q178 562 168 568.5 Q158 575 152 585 Q146 594 153 603 Q164 618 174 632.5 Q184 647 195 661 Q199 666 204.5 669 Q210 672 217 670 Q228 667 235.5 659.5 Q243 652 251 644 Z " />
<glyph glyph-name="agrave" unicode="&#xe0;" horiz-adv-x="389" d="M259 397 Q257 409 257 416.5 Q257 424 260 428 Q263 432 269.5 435 Q276 438 288 441 Q299 444 313 447.5 Q327 451 339 450.5 Q351 450 359.5 443.5 Q368 437 367 422 Q362 311 362.5 219 Q363 127 368 38 Q369 22 358 16 Q347 10 332 10 Q317 10 301.5 14 Q286 18 278 21 Q262 27 258.5 32.5 Q255 38 256 55 Q236 45 218.5 38.5 Q201 32 184 28.5 Q167 25 150 25 Q133 25 114 29 Q66 42 42.5 79.5 Q19 117 13.5 162.5 Q8 208 18.5 254 Q29 300 50 330 Q69 361 94.5 380 Q120 399 148 406.5 Q176 414 204.5 411.5 Q233 409 259 397 Z M240 272 Q235 287 226.5 294.5 Q218 302 207.5 303.5 Q197 305 185.5 301.5 Q174 298 164 292 Q152 283 143.5 269.5 Q135 256 131 240.5 Q127 225 127 209 Q127 193 132 178 Q138 159 152.5 148.5 Q167 138 187 139 Q209 142 221 157 Q233 172 238.5 192 Q244 212 243.5 234 Q243 256 240 272 Z M247 476 Q249 471 250.5 466.5 Q252 462 249 458 Q238 444 219 438 Q209 435 205 443 Q197 464 182.5 479.5 Q168 495 152 511 Q146 517 150.5 523.5 Q155 530 164 535 Q173 540 183.5 544 Q194 548 199 548 Q206 548 212 540 Q221 524 229.5 508.5 Q238 493 247 476 Z " />
<glyph glyph-name="aacute" unicode="&#xe1;" horiz-adv-x="389" d="M259 397 Q257 409 257 416.5 Q257 424 260 428 Q263 432 269.5 435 Q276 438 288 441 Q299 444 313 447.5 Q327 451 339 450.5 Q351 450 359.5 443.5 Q368 437 367 422 Q362 311 362.5 219 Q363 127 368 38 Q369 22 358 16 Q347 10 332 10 Q317 10 301.5 14 Q286 18 278 21 Q262 27 258.5 32.5 Q255 38 256 55 Q236 45 218.5 38.5 Q201 32 184 28.5 Q167 25 150 25 Q133 25 114 29 Q66 42 42.5 79.5 Q19 117 13.5 162.5 Q8 208 18.5 254 Q29 300 50 330 Q69 361 94.5 380 Q120 399 148 406.5 Q176 414 204.5 411.5 Q233 409 259 397 Z M240 272 Q235 287 226.5 294.5 Q218 302 207.5 303.5 Q197 305 185.5 301.5 Q174 298 164 292 Q152 283 143.5 269.5 Q135 256 131 240.5 Q127 225 127 209 Q127 193 132 178 Q138 159 152.5 148.5 Q167 138 187 139 Q209 142 221 157 Q233 172 238.5 192 Q244 212 243.5 234 Q243 256 240 272 Z M247 511 Q257 499 244 490 Q227 476 210.5 461.5 Q194 447 183 427 Q174 429 164 435.5 Q154 442 148 452 Q142 461 149 470 Q160 485 170 499.5 Q180 514 191 528 Q195 533 200.5 536 Q206 539 213 537 Q224 534 231.5 526.5 Q239 519 247 511 Z " />
<glyph glyph-name="acircumflex" unicode="&#xe2;" horiz-adv-x="389" d="M259 397 Q257 409 257 416.5 Q257 424 260 428 Q263 432 269.5 435 Q276 438 288 441 Q299 444 313 447.5 Q327 451 339 450.5 Q351 450 359.5 443.5 Q368 437 367 422 Q362 311 362.5 219 Q363 127 368 38 Q369 22 358 16 Q347 10 332 10 Q317 10 301.5 14 Q286 18 278 21 Q262 27 258.5 32.5 Q255 38 256 55 Q236 45 218.5 38.5 Q201 32 184 28.5 Q167 25 150 25 Q133 25 114 29 Q66 42 42.5 79.5 Q19 117 13.5 162.5 Q8 208 18.5 254 Q29 300 50 330 Q69 361 94.5 380 Q120 399 148 406.5 Q176 414 204.5 411.5 Q233 409 259 397 Z M240 272 Q235 287 226.5 294.5 Q218 302 207.5 303.5 Q197 305 185.5 301.5 Q174 298 164 292 Q152 283 143.5 269.5 Q135 256 131 240.5 Q127 225 127 209 Q127 193 132 178 Q138 159 152.5 148.5 Q167 138 187 139 Q209 142 221 157 Q233 172 238.5 192 Q244 212 243.5 234 Q243 256 240 272 Z M196 476 Q190 464 186 454.5 Q182 445 177 436 Q172 436 164 438.5 Q156 441 149 445.5 Q142 450 138 455.5 Q134 461 137 468 Q145 486 154 503.5 Q163 521 172 539 Q176 546 186.5 548 Q197 550 203 550 Q214 550 217 547.5 Q220 545 225 536 Q231 521 237.5 506 Q244 491 250 476 Q255 465 254 462 Q253 459 245 450 Q234 439 227 438 Q220 437 214.5 442.5 Q209 448 205 457.5 Q201 467 196 476 Z " />
<glyph glyph-name="atilde" unicode="&#xe3;" horiz-adv-x="389" d="M259 397 Q257 409 257 416.5 Q257 424 260 428 Q263 432 269.5 435 Q276 438 288 441 Q299 444 313 447.5 Q327 451 339 450.5 Q351 450 359.5 443.5 Q368 437 367 422 Q362 311 362.5 219 Q363 127 368 38 Q369 22 358 16 Q347 10 332 10 Q317 10 301.5 14 Q286 18 278 21 Q262 27 258.5 32.5 Q255 38 256 55 Q236 45 218.5 38.5 Q201 32 184 28.5 Q167 25 150 25 Q133 25 114 29 Q66 42 42.5 79.5 Q19 117 13.5 162.5 Q8 208 18.5 254 Q29 300 50 330 Q69 361 94.5 380 Q120 399 148 406.5 Q176 414 204.5 411.5 Q233 409 259 397 Z M240 272 Q235 287 226.5 294.5 Q218 302 207.5 303.5 Q197 305 185.5 301.5 Q174 298 164 292 Q152 283 143.5 269.5 Q135 256 131 240.5 Q127 225 127 209 Q127 193 132 178 Q138 159 152.5 148.5 Q167 138 187 139 Q209 142 221 157 Q233 172 238.5 192 Q244 212 243.5 234 Q243 256 240 272 Z M245 515 Q248 513 252 512 Q256 511 259 509 Q276 499 277.5 485 Q279 471 266 457 Q259 449 251.5 444 Q244 439 233 437 Q217 434 205 444 Q192 452 184 450.5 Q176 449 166 441 Q155 432 148.5 433 Q142 434 134 445 Q123 462 122.5 472 Q122 482 142 499 Q165 519 192 504 Q210 494 216.5 495 Q223 496 238 510 Q240 512 241.5 512.5 Q243 513 245 515 Z " />
<glyph glyph-name="adieresis" unicode="&#xe4;" horiz-adv-x="389" d="M259 397 Q257 409 257 416.5 Q257 424 260 428 Q263 432 269.5 435 Q276 438 288 441 Q299 444 313 447.5 Q327 451 339 450.5 Q351 450 359.5 443.5 Q368 437 367 422 Q362 311 362.5 219 Q363 127 368 38 Q369 22 358 16 Q347 10 332 10 Q317 10 301.5 14 Q286 18 278 21 Q262 27 258.5 32.5 Q255 38 256 55 Q236 45 218.5 38.5 Q201 32 184 28.5 Q167 25 150 25 Q133 25 114 29 Q66 42 42.5 79.5 Q19 117 13.5 162.5 Q8 208 18.5 254 Q29 300 50 330 Q69 361 94.5 380 Q120 399 148 406.5 Q176 414 204.5 411.5 Q233 409 259 397 Z M240 272 Q235 287 226.5 294.5 Q218 302 207.5 303.5 Q197 305 185.5 301.5 Q174 298 164 292 Q152 283 143.5 269.5 Q135 256 131 240.5 Q127 225 127 209 Q127 193 132 178 Q138 159 152.5 148.5 Q167 138 187 139 Q209 142 221 157 Q233 172 238.5 192 Q244 212 243.5 234 Q243 256 240 272 Z M240 527 Q257 527 268 515.5 Q279 504 279 487 Q278 471 266 459.5 Q254 448 237 449 Q222 449 210.5 461 Q199 473 200 489 Q200 505 211.5 516.5 Q223 528 240 527 Z M116 489 Q115 503 126.5 516 Q138 529 156 528 Q172 526 183 515.5 Q194 505 195 489 Q195 472 182.5 460 Q170 448 153 449 Q137 450 126 461 Q115 472 116 489 Z " />
<glyph glyph-name="aring" unicode="&#xe5;" horiz-adv-x="389" d="M259 397 Q257 409 257 416.5 Q257 424 260 428 Q263 432 269.5 435 Q276 438 288 441 Q299 444 313 447.5 Q327 451 339 450.5 Q351 450 359.5 443.5 Q368 437 367 422 Q362 311 362.5 219 Q363 127 368 38 Q369 22 358 16 Q347 10 332 10 Q317 10 301.5 14 Q286 18 278 21 Q262 27 258.5 32.5 Q255 38 256 55 Q236 45 218.5 38.5 Q201 32 184 28.5 Q167 25 150 25 Q133 25 114 29 Q66 42 42.5 79.5 Q19 117 13.5 162.5 Q8 208 18.5 254 Q29 300 50 330 Q69 361 94.5 380 Q120 399 148 406.5 Q176 414 204.5 411.5 Q233 409 259 397 Z M240 272 Q235 287 226.5 294.5 Q218 302 207.5 303.5 Q197 305 185.5 301.5 Q174 298 164 292 Q152 283 143.5 269.5 Q135 256 131 240.5 Q127 225 127 209 Q127 193 132 178 Q138 159 152.5 148.5 Q167 138 187 139 Q209 142 221 157 Q233 172 238.5 192 Q244 212 243.5 234 Q243 256 240 272 Z M253 490 Q253 467 236 450 Q219 433 196 434 Q173 436 157 452.5 Q141 469 142 492 Q142 515 159 530.5 Q176 546 199 545 Q222 545 237.5 529 Q253 513 253 490 Z M196 505 Q189 505 186.5 499.5 Q184 494 186 489 Q189 480 197 480 Q201 480 203.5 484.5 Q206 489 206 494 Q206 498 203.5 501.5 Q201 505 196 505 Z " />
<glyph glyph-name="aogonek" unicode="&#x105;" horiz-adv-x="389" d="M259 397 Q257 409 257 416.5 Q257 424 260 428 Q263 432 269.5 435 Q276 438 288 441 Q299 444 313 447.5 Q327 451 339 450.5 Q351 450 359.5 443.5 Q368 437 367 422 Q362 311 362.5 219 Q363 127 368 38 Q369 22 358 16 Q347 10 332 10 Q317 10 301.5 14 Q286 18 278 21 Q262 27 258.5 32.5 Q255 38 256 55 Q236 45 218.5 38.5 Q201 32 184 28.5 Q167 25 150 25 Q133 25 114 29 Q66 42 42.5 79.5 Q19 117 13.5 162.5 Q8 208 18.5 254 Q29 300 50 330 Q69 361 94.5 380 Q120 399 148 406.5 Q176 414 204.5 411.5 Q233 409 259 397 Z M240 272 Q235 287 226.5 294.5 Q218 302 207.5 303.5 Q197 305 185.5 301.5 Q174 298 164 292 Q152 283 143.5 269.5 Q135 256 131 240.5 Q127 225 127 209 Q127 193 132 178 Q138 159 152.5 148.5 Q167 138 187 139 Q209 142 221 157 Q233 172 238.5 192 Q244 212 243.5 234 Q243 256 240 272 Z M364 50 Q367 17 365 -18.5 Q363 -54 369 -76 Q373 -87 377.5 -83 Q382 -79 383 -67 Q384 -60 384.5 -53 Q385 -46 385 -39 Q386 -27 398 -26 Q423 -23 431.5 -28 Q440 -33 439 -59 Q439 -73 436.5 -88 Q434 -103 428 -116 Q420 -133 407 -141.5 Q394 -150 380 -151 Q366 -152 352 -146 Q338 -140 329 -128 Q318 -114 313 -95 Q308 -76 306.5 -55 Q305 -34 306 -13 Q307 8 308 28 Q308 40 320 43 Q331 45 341.5 46.5 Q352 48 364 50 Z " />
<glyph glyph-name="Ccaron" unicode="&#x10c;" horiz-adv-x="435" d="M360 383 Q356 387 352.5 389.5 Q349 392 346 395 Q326 412 302.5 418.5 Q279 425 255 422 Q231 419 210 406.5 Q189 394 174 373 Q156 346 148 315 Q140 284 143 254 Q146 224 161.5 198 Q177 172 206 156 Q223 147 241.5 146 Q260 145 278.5 149 Q297 153 314 161.5 Q331 170 344 181 Q356 191 361 190.5 Q366 190 377 179 Q410 146 423 105 Q426 94 420 87 Q354 0 245 3 Q197 5 157.5 23 Q118 41 89.5 71.5 Q61 102 43.5 143.5 Q26 185 23 233 Q18 286 29 335.5 Q40 385 63.5 426 Q87 467 121 497 Q155 527 196 541.5 Q237 556 283 551.5 Q329 547 376 519 Q380 516 388 511 Q396 506 403.5 499.5 Q411 493 415.5 485.5 Q420 478 417 472 Q411 445 397.5 422.5 Q384 400 360 383 Z M216 677 Q222 665 227 655 Q232 645 237 634 Q242 643 246.5 650.5 Q251 658 255 665 Q264 681 276 669 Q285 660 290 655.5 Q295 651 295.5 647 Q296 643 293.5 637.5 Q291 632 286 621 Q281 610 276.5 598 Q272 586 267 575 Q262 564 256 561.5 Q250 559 239 559 Q227 560 221 562.5 Q215 565 210 576 Q203 591 195.5 606 Q188 621 180 637 Q176 645 176 649 Q176 653 184 658 Q192 663 200 667.5 Q208 672 216 677 Z " />
<glyph glyph-name="ccaron" unicode="&#x10d;" horiz-adv-x="350" d="M289 254 Q272 273 256 287.5 Q240 302 217 307 Q189 310 171 297 Q153 284 144 263 Q135 242 134 217.5 Q133 193 139 174 Q148 142 171.5 129 Q195 116 230 124 Q238 126 244.5 129.5 Q251 133 258 136 Q265 139 271.5 140 Q278 141 286 139 Q313 129 328 103 Q335 88 327.5 73 Q320 58 305 45.5 Q290 33 271.5 24.5 Q253 16 240 14 Q205 6 171.5 10 Q138 14 110 29 Q82 44 61 70 Q40 96 30 132 Q16 178 22 226 Q28 274 50.5 314.5 Q73 355 110 384.5 Q147 414 195 422 Q286 430 335 357 Q342 347 340 336 Q338 316 323 292 Q308 268 289 254 Z M174 548 Q180 536 185 526 Q190 516 195 505 Q200 514 204.5 521.5 Q209 529 213 536 Q222 552 234 540 Q243 531 248 526.5 Q253 522 253.5 518 Q254 514 251.5 508.5 Q249 503 244 492 Q239 481 234.5 469 Q230 457 225 446 Q220 435 214 432.5 Q208 430 197 430 Q185 431 179 433.5 Q173 436 168 447 Q161 462 153.5 477 Q146 492 138 508 Q134 516 134 520 Q134 524 142 529 Q150 534 158 538.5 Q166 543 174 548 Z " />
<glyph glyph-name="Cacute" unicode="&#x106;" horiz-adv-x="435" d="M360 383 Q356 387 352.5 389.5 Q349 392 346 395 Q326 412 302.5 418.5 Q279 425 255 422 Q231 419 210 406.5 Q189 394 174 373 Q156 346 148 315 Q140 284 143 254 Q146 224 161.5 198 Q177 172 206 156 Q223 147 241.5 146 Q260 145 278.5 149 Q297 153 314 161.5 Q331 170 344 181 Q356 191 361 190.5 Q366 190 377 179 Q410 146 423 105 Q426 94 420 87 Q354 0 245 3 Q197 5 157.5 23 Q118 41 89.5 71.5 Q61 102 43.5 143.5 Q26 185 23 233 Q18 286 29 335.5 Q40 385 63.5 426 Q87 467 121 497 Q155 527 196 541.5 Q237 556 283 551.5 Q329 547 376 519 Q380 516 388 511 Q396 506 403.5 499.5 Q411 493 415.5 485.5 Q420 478 417 472 Q411 445 397.5 422.5 Q384 400 360 383 Z M286 644 Q296 632 283 623 Q266 609 249.5 594.5 Q233 580 222 560 Q213 562 203 568.5 Q193 575 187 585 Q181 594 188 603 Q199 618 209 632.5 Q219 647 230 661 Q234 666 239.5 669 Q245 672 252 670 Q263 667 270.5 659.5 Q278 652 286 644 Z " />
<glyph glyph-name="cacute" unicode="&#x107;" horiz-adv-x="350" d="M289 254 Q272 273 256 287.5 Q240 302 217 307 Q189 310 171 297 Q153 284 144 263 Q135 242 134 217.5 Q133 193 139 174 Q148 142 171.5 129 Q195 116 230 124 Q238 126 244.5 129.5 Q251 133 258 136 Q265 139 271.5 140 Q278 141 286 139 Q313 129 328 103 Q335 88 327.5 73 Q320 58 305 45.5 Q290 33 271.5 24.5 Q253 16 240 14 Q205 6 171.5 10 Q138 14 110 29 Q82 44 61 70 Q40 96 30 132 Q16 178 22 226 Q28 274 50.5 314.5 Q73 355 110 384.5 Q147 414 195 422 Q286 430 335 357 Q342 347 340 336 Q338 316 323 292 Q308 268 289 254 Z M253 515 Q263 503 250 494 Q233 480 216.5 465.5 Q200 451 189 431 Q180 433 170 439.5 Q160 446 154 456 Q148 465 155 474 Q166 489 176 503.5 Q186 518 197 532 Q201 537 206.5 540 Q212 543 219 541 Q230 538 237.5 530.5 Q245 523 253 515 Z " />
<glyph glyph-name="Zacute" unicode="&#x179;" horiz-adv-x="357" d="M219 434 Q169 428 125.5 419.5 Q82 411 37 400 Q34 409 31 417 Q28 425 26 433 Q24 446 20.5 461 Q17 476 16.5 489 Q16 502 21 512 Q26 522 40 525 Q97 536 148 542.5 Q199 549 250 558 Q283 564 304 539 Q319 520 330 500 Q341 480 350 458 Q353 450 351 443 Q349 436 344 428 Q296 354 241.5 277.5 Q187 201 146 123 Q185 127 225 126.5 Q265 126 302 128 Q325 129 332 122.5 Q339 116 341 92 Q344 63 333 32 Q328 21 323.5 17.5 Q319 14 306 15 Q241 16 184 17.5 Q127 19 72 11 Q54 9 47 23 Q33 49 26 75 Q19 101 21 130 Q40 171 63.5 210 Q87 249 113.5 286.5 Q140 324 167 360.5 Q194 397 219 434 Z M235 641 Q245 629 232 620 Q215 606 198.5 591.5 Q182 577 171 557 Q162 559 152 565.5 Q142 572 136 582 Q130 591 137 600 Q148 615 158 629.5 Q168 644 179 658 Q183 663 188.5 666 Q194 669 201 667 Q212 664 219.5 656.5 Q227 649 235 641 Z " />
<glyph glyph-name="zacute" unicode="&#x17a;" horiz-adv-x="330" d="M299 315 Q266 262 233 212 Q200 162 160 114 Q186 114 213 115 Q240 116 266 116 Q277 116 280.5 113 Q284 110 287 101 Q293 78 291.5 57 Q290 36 282 14 Q225 12 174 9.5 Q123 7 72 -1 Q60 -3 54 8 Q43 28 34.5 48 Q26 68 21 91 Q20 94 21 98 Q22 102 24 105 Q58 160 94.5 213 Q131 266 176 314 Q143 312 113 305 Q83 298 53 290 Q42 307 37 324 Q32 341 30 360 Q28 377 29 384.5 Q30 392 33.5 395.5 Q37 399 44 400.5 Q51 402 62 406 Q104 416 145.5 419 Q187 422 229 422 Q249 422 262 406 Q269 397 276.5 384 Q284 371 290 357.5 Q296 344 299 332.5 Q302 321 299 315 Z M217 518 Q227 506 214 497 Q197 483 180.5 468.5 Q164 454 153 434 Q144 436 134 442.5 Q124 449 118 459 Q112 468 119 477 Q130 492 140 506.5 Q150 521 161 535 Q165 540 170.5 543 Q176 546 183 544 Q194 541 201.5 533.5 Q209 526 217 518 Z " />
<glyph glyph-name="Dcaron" unicode="&#x10e;" horiz-adv-x="415" d="M37 506 Q36 525 38.5 534 Q41 543 59 547 Q101 554 145 554.5 Q189 555 229 545 Q269 535 303 512 Q337 489 359 449 Q380 410 390 364 Q400 318 398.5 271 Q397 224 383.5 179.5 Q370 135 345 98.5 Q320 62 283 37 Q246 12 197 4 Q165 -3 134 -3.5 Q103 -4 72 -3 Q51 -1 44 6 Q37 13 37 34 Q39 162 41 276.5 Q43 391 37 506 Z M147 104 Q180 106 207.5 122.5 Q235 139 254.5 165 Q274 191 285 223.5 Q296 256 297 290 Q298 324 288 356 Q278 388 256 414 Q236 437 210.5 444.5 Q185 452 156 447 Q147 274 147 104 Z M188 682 Q194 670 199 660 Q204 650 209 639 Q214 648 218.5 655.5 Q223 663 227 670 Q236 686 248 674 Q257 665 262 660.5 Q267 656 267.5 652 Q268 648 265.5 642.5 Q263 637 258 626 Q253 615 248.5 603 Q244 591 239 580 Q234 569 228 566.5 Q222 564 211 564 Q199 565 193 567.5 Q187 570 182 581 Q175 596 167.5 611 Q160 626 152 642 Q148 650 148 654 Q148 658 156 663 Q164 668 172 672.5 Q180 677 188 682 Z " />
<glyph glyph-name="dcaron" unicode="&#x10f;" horiz-adv-x="523" d="M252 549 Q252 559 258.5 563.5 Q265 568 274.5 569 Q284 570 294 569 Q304 568 311 567 Q342 562 369 555 Q378 553 380 549.5 Q382 546 381 535 Q374 405 373.5 285.5 Q373 166 373 48 Q373 38 366 31 Q359 24 349 19.5 Q339 15 327.5 12 Q316 9 307 8 Q263 2 221.5 4.5 Q180 7 143.5 20 Q107 33 78 58.5 Q49 84 30 126 Q16 160 15 196.5 Q14 233 23 266.5 Q32 300 51.5 329.5 Q71 359 100 379 Q115 389 134 397.5 Q153 406 174 410.5 Q195 415 216.5 415 Q238 415 257 410 Q259 447 258 481.5 Q257 516 252 549 Z M264 283 Q246 293 228 294 Q210 295 191 290 Q168 282 152 265.5 Q136 249 129.5 228.5 Q123 208 128 185.5 Q133 163 151 144 Q174 121 203 118 Q232 115 264 124 L264 283 Z M444 453 Q438 456 433 458.5 Q428 461 424 464 Q411 475 408 490 Q405 505 411 521 Q419 539 434.5 548 Q450 557 469 555 Q483 553 494 540.5 Q505 528 507 513 Q513 452 466 413 Q459 407 455 407.5 Q451 408 443 414 Q435 419 434.5 422.5 Q434 426 438 435 Q440 440 441 444 Q442 448 444 453 Z " />
<glyph glyph-name="Edotaccent" unicode="&#x116;" horiz-adv-x="364" d="M156 209 L156 109 Q192 107 226.5 108 Q261 109 295 115 Q310 117 319 107 Q328 97 332 83 Q336 69 336.5 53.5 Q337 38 336 29 Q333 9 314 8 L303 8 Q254 8 217 8 Q180 8 150.5 8.5 Q121 9 97.5 11 Q74 13 51 16 Q38 18 34 31 Q30 44 31 60.5 Q32 77 35 93.5 Q38 110 38 119 Q43 231 43.5 328 Q44 425 32 518 Q30 533 34.5 538.5 Q39 544 54 546 Q120 552 182 553.5 Q244 555 306 553 Q324 553 330 547.5 Q336 542 337 524 Q337 513 336 498.5 Q335 484 330.5 472 Q326 460 317.5 452.5 Q309 445 295 447 Q257 452 222.5 453 Q188 454 154 454 Q152 417 152.5 381.5 Q153 346 153 310 Q201 312 229.5 313.5 Q258 315 283 316 Q297 316 301.5 313 Q306 310 311 296 Q316 279 315.5 261 Q315 243 313 226 Q311 217 307.5 214.5 Q304 212 294 212 Q254 213 221 212.5 Q188 212 156 209 Z M150 609 Q149 623 160.5 636 Q172 649 191 648 Q207 646 218 635.5 Q229 625 229 609 Q229 592 216.5 580 Q204 568 187 569 Q171 570 160.5 581 Q150 592 150 609 Z " />
<glyph glyph-name="edotaccent" unicode="&#x117;" horiz-adv-x="364" d="M161 135 Q167 116 184.5 112.5 Q202 109 220 114 Q231 116 241.5 121.5 Q252 127 260 133 Q270 139 278 147 Q291 141 304.5 128 Q318 115 326 101 Q331 90 328 80 Q325 70 318 61.5 Q311 53 301 45.5 Q291 38 282 34 Q244 16 204 13.5 Q164 11 128 24 Q92 37 65 65 Q38 93 28 137 Q17 183 20.5 230.5 Q24 278 43 317.5 Q62 357 96.5 384.5 Q131 412 182 418 Q212 422 240 415.5 Q268 409 291 394 Q314 379 329.5 357 Q345 335 349 307 Q353 281 350 254.5 Q347 228 326 213 Q311 201 289 190 Q267 179 244 169 Q221 159 198.5 150.5 Q176 142 161 135 Z M251 274 Q239 292 225.5 301 Q212 310 192 307 Q178 305 167 295.5 Q156 286 148.5 271.5 Q141 257 138 240 Q135 223 138 207 Q166 220 195.5 237.5 Q225 255 251 274 Z M153 474 Q152 488 163.5 501 Q175 514 194 513 Q210 511 221 500.5 Q232 490 232 474 Q232 457 219.5 445 Q207 433 190 434 Q174 435 163.5 446 Q153 457 153 474 Z " />
<glyph glyph-name="Ecaron" unicode="&#x11a;" horiz-adv-x="364" d="M156 209 L156 109 Q192 107 226.5 108 Q261 109 295 115 Q310 117 319 107 Q328 97 332 83 Q336 69 336.5 53.5 Q337 38 336 29 Q333 9 314 8 L303 8 Q254 8 217 8 Q180 8 150.5 8.5 Q121 9 97.5 11 Q74 13 51 16 Q38 18 34 31 Q30 44 31 60.5 Q32 77 35 93.5 Q38 110 38 119 Q43 231 43.5 328 Q44 425 32 518 Q30 533 34.5 538.5 Q39 544 54 546 Q120 552 182 553.5 Q244 555 306 553 Q324 553 330 547.5 Q336 542 337 524 Q337 513 336 498.5 Q335 484 330.5 472 Q326 460 317.5 452.5 Q309 445 295 447 Q257 452 222.5 453 Q188 454 154 454 Q152 417 152.5 381.5 Q153 346 153 310 Q201 312 229.5 313.5 Q258 315 283 316 Q297 316 301.5 313 Q306 310 311 296 Q316 279 315.5 261 Q315 243 313 226 Q311 217 307.5 214.5 Q304 212 294 212 Q254 213 221 212.5 Q188 212 156 209 Z M162 686 Q168 674 173 664 Q178 654 183 643 Q188 652 192.5 659.5 Q197 667 201 674 Q210 690 222 678 Q231 669 236 664.5 Q241 660 241.5 656 Q242 652 239.5 646.5 Q237 641 232 630 Q227 619 222.5 607 Q218 595 213 584 Q208 573 202 570.5 Q196 568 185 568 Q173 569 167 571.5 Q161 574 156 585 Q149 600 141.5 615 Q134 630 126 646 Q122 654 122 658 Q122 662 130 667 Q138 672 146 676.5 Q154 681 162 686 Z " />
<glyph glyph-name="ecaron" unicode="&#x11b;" horiz-adv-x="364" d="M161 135 Q167 116 184.5 112.5 Q202 109 220 114 Q231 116 241.5 121.5 Q252 127 260 133 Q270 139 278 147 Q291 141 304.5 128 Q318 115 326 101 Q331 90 328 80 Q325 70 318 61.5 Q311 53 301 45.5 Q291 38 282 34 Q244 16 204 13.5 Q164 11 128 24 Q92 37 65 65 Q38 93 28 137 Q17 183 20.5 230.5 Q24 278 43 317.5 Q62 357 96.5 384.5 Q131 412 182 418 Q212 422 240 415.5 Q268 409 291 394 Q314 379 329.5 357 Q345 335 349 307 Q353 281 350 254.5 Q347 228 326 213 Q311 201 289 190 Q267 179 244 169 Q221 159 198.5 150.5 Q176 142 161 135 Z M251 274 Q239 292 225.5 301 Q212 310 192 307 Q178 305 167 295.5 Q156 286 148.5 271.5 Q141 257 138 240 Q135 223 138 207 Q166 220 195.5 237.5 Q225 255 251 274 Z M169 551 Q175 539 180 529 Q185 519 190 508 Q195 517 199.5 524.5 Q204 532 208 539 Q217 555 229 543 Q238 534 243 529.5 Q248 525 248.5 521 Q249 517 246.5 511.5 Q244 506 239 495 Q234 484 229.5 472 Q225 460 220 449 Q215 438 209 435.5 Q203 433 192 433 Q180 434 174 436.5 Q168 439 163 450 Q156 465 148.5 480 Q141 495 133 511 Q129 519 129 523 Q129 527 137 532 Q145 537 153 541.5 Q161 546 169 551 Z " />
<glyph glyph-name="Eogonek" unicode="&#x118;" horiz-adv-x="364" d="M156 209 L156 109 Q192 107 226.5 108 Q261 109 295 115 Q310 117 319 107 Q328 97 332 83 Q336 69 336.5 53.5 Q337 38 336 29 Q333 9 314 8 L303 8 Q254 8 217 8 Q180 8 150.5 8.5 Q121 9 97.5 11 Q74 13 51 16 Q38 18 34 31 Q30 44 31 60.5 Q32 77 35 93.5 Q38 110 38 119 Q43 231 43.5 328 Q44 425 32 518 Q30 533 34.5 538.5 Q39 544 54 546 Q120 552 182 553.5 Q244 555 306 553 Q324 553 330 547.5 Q336 542 337 524 Q337 513 336 498.5 Q335 484 330.5 472 Q326 460 317.5 452.5 Q309 445 295 447 Q257 452 222.5 453 Q188 454 154 454 Q152 417 152.5 381.5 Q153 346 153 310 Q201 312 229.5 313.5 Q258 315 283 316 Q297 316 301.5 313 Q306 310 311 296 Q316 279 315.5 261 Q315 243 313 226 Q311 217 307.5 214.5 Q304 212 294 212 Q254 213 221 212.5 Q188 212 156 209 Z M287 50 Q290 17 288 -18.5 Q286 -54 292 -76 Q296 -87 300.5 -83 Q305 -79 306 -67 Q307 -60 307.5 -53 Q308 -46 308 -39 Q309 -27 321 -26 Q346 -23 354.5 -28 Q363 -33 362 -59 Q362 -73 359.5 -88 Q357 -103 351 -116 Q343 -133 330 -141.5 Q317 -150 303 -151 Q289 -152 275 -146 Q261 -140 252 -128 Q241 -114 236 -95 Q231 -76 229.5 -55 Q228 -34 229 -13 Q230 8 231 28 Q231 40 243 43 Q254 45 264.5 46.5 Q275 48 287 50 Z " />
<glyph glyph-name="eogonek" unicode="&#x119;" horiz-adv-x="364" d="M161 135 Q167 116 184.5 112.5 Q202 109 220 114 Q231 116 241.5 121.5 Q252 127 260 133 Q270 139 278 147 Q291 141 304.5 128 Q318 115 326 101 Q331 90 328 80 Q325 70 318 61.5 Q311 53 301 45.5 Q291 38 282 34 Q244 16 204 13.5 Q164 11 128 24 Q92 37 65 65 Q38 93 28 137 Q17 183 20.5 230.5 Q24 278 43 317.5 Q62 357 96.5 384.5 Q131 412 182 418 Q212 422 240 415.5 Q268 409 291 394 Q314 379 329.5 357 Q345 335 349 307 Q353 281 350 254.5 Q347 228 326 213 Q311 201 289 190 Q267 179 244 169 Q221 159 198.5 150.5 Q176 142 161 135 Z M251 274 Q239 292 225.5 301 Q212 310 192 307 Q178 305 167 295.5 Q156 286 148.5 271.5 Q141 257 138 240 Q135 223 138 207 Q166 220 195.5 237.5 Q225 255 251 274 Z M233 57 Q236 24 234 -11.5 Q232 -47 238 -69 Q242 -80 246.5 -76 Q251 -72 252 -60 Q253 -53 253.5 -46 Q254 -39 254 -32 Q255 -20 267 -19 Q292 -16 300.5 -21 Q309 -26 308 -52 Q308 -66 305.5 -81 Q303 -96 297 -109 Q289 -126 276 -134.5 Q263 -143 249 -144 Q235 -145 221 -139 Q207 -133 198 -121 Q187 -107 182 -88 Q177 -69 175.5 -48 Q174 -27 175 -6 Q176 15 177 35 Q177 47 189 50 Q200 52 210.5 53.5 Q221 55 233 57 Z " />
<glyph glyph-name="Iogonek" unicode="&#x12e;" horiz-adv-x="198" d="M39 517 Q38 528 39.5 532 Q41 536 52 538 Q75 543 100.5 548 Q126 553 149 550 Q161 550 164.5 545.5 Q168 541 167 529 Q161 466 158 400.5 Q155 335 154.5 270 Q154 205 153.5 143 Q153 81 152 26 Q152 18 151.5 13 Q151 8 149.5 5.5 Q148 3 143.5 2 Q139 1 131 0 Q108 -4 89 -4 Q70 -4 50 2 Q43 4 41.5 10 Q40 16 40 23 Q41 109 41.5 178.5 Q42 248 42 306.5 Q42 365 41.5 416 Q41 467 39 517 Z M99 52 Q102 19 100 -16.5 Q98 -52 104 -74 Q108 -85 112.5 -81 Q117 -77 118 -65 Q119 -58 119.5 -51 Q120 -44 120 -37 Q121 -25 133 -24 Q158 -21 166.5 -26 Q175 -31 174 -57 Q174 -71 171.5 -86 Q169 -101 163 -114 Q155 -131 142 -139.5 Q129 -148 115 -149 Q101 -150 87 -144 Q73 -138 64 -126 Q53 -112 48 -93 Q43 -74 41.5 -53 Q40 -32 41 -11 Q42 10 43 30 Q43 42 55 45 Q66 47 76.5 48.5 Q87 50 99 52 Z " />
<glyph glyph-name="iogonek" unicode="&#x12f;" horiz-adv-x="185" d="M153 29 Q154 12 140 9 Q118 4 94.5 8.5 Q71 13 54 18 Q38 27 39 44 Q43 134 47 219.5 Q51 305 39 389 Q38 397 39.5 402.5 Q41 408 49 412 Q69 420 88.5 425.5 Q108 431 130 429 Q142 427 146 422.5 Q150 418 150 407 Q146 300 145 208.5 Q144 117 153 29 Z M98 571 Q123 571 140 553.5 Q157 536 156 511 Q156 487 139 470 Q122 453 98 452 Q74 452 56.5 469.5 Q39 487 39 512 Q39 536 56 553.5 Q73 571 98 571 Z M96 69 Q99 36 97 0.5 Q95 -35 101 -57 Q105 -68 109.5 -64 Q114 -60 115 -48 Q116 -41 116.5 -34 Q117 -27 117 -20 Q118 -8 130 -7 Q155 -4 163.5 -9 Q172 -14 171 -40 Q171 -54 168.5 -69 Q166 -84 160 -97 Q152 -114 139 -122.5 Q126 -131 112 -132 Q98 -133 84 -127 Q70 -121 61 -109 Q50 -95 45 -76 Q40 -57 38.5 -36 Q37 -15 38 6 Q39 27 40 47 Q40 59 52 62 Q63 64 73.5 65.5 Q84 67 96 69 Z " />
<glyph glyph-name="Lacute" unicode="&#x139;" horiz-adv-x="314" d="M139 110 Q167 112 194.5 115 Q222 118 250 121 Q256 122 261 122 Q266 122 271 117 Q300 89 303 51 Q303 39 300 35 Q297 31 286 29 Q220 18 161 11.5 Q102 5 42 11 Q29 16 27.5 27.5 Q26 39 26 50 Q28 186 28.5 301.5 Q29 417 25 530 Q25 546 27.5 549 Q30 552 45 557 Q68 565 91 566.5 Q114 568 137 567 Q157 566 154 548 Q149 499 146 442 Q143 385 141.5 327 Q140 269 139.5 213 Q139 157 139 110 Z M200 668 Q210 656 197 647 Q180 633 163.5 618.5 Q147 604 136 584 Q127 586 117 592.5 Q107 599 101 609 Q95 618 102 627 Q113 642 123 656.5 Q133 671 144 685 Q148 690 153.5 693 Q159 696 166 694 Q177 691 184.5 683.5 Q192 676 200 668 Z " />
<glyph glyph-name="lacute" unicode="&#x13a;" horiz-adv-x="187" d="M67 555 Q83 557 99 557 Q115 557 131 557 Q142 556 145.5 552 Q149 548 149 537 Q148 482 147 438.5 Q146 395 145.5 353.5 Q145 312 144.5 270 Q144 228 144 176 Q145 162 144.5 147.5 Q144 133 145 121 Q146 109 149.5 101.5 Q153 94 161 95 Q175 97 177 84 Q178 72 179 61.5 Q180 51 180 38 Q181 33 176.5 27.5 Q172 22 167 20 Q154 13 131.5 10 Q109 7 87 11.5 Q65 16 48.5 31 Q32 46 32 76 Q32 146 32.5 204.5 Q33 263 33.5 316 Q34 369 34.5 420.5 Q35 472 35 529 Q36 549 44.5 552 Q53 555 67 555 Z M149 654 Q159 642 146 633 Q129 619 112.5 604.5 Q96 590 85 570 Q76 572 66 578.5 Q56 585 50 595 Q44 604 51 613 Q62 628 72 642.5 Q82 657 93 671 Q97 676 102.5 679 Q108 682 115 680 Q126 677 133.5 669.5 Q141 662 149 654 Z " />
<glyph glyph-name="Lcaron" unicode="&#x13d;" horiz-adv-x="314" d="M139 110 Q167 112 194.5 115 Q222 118 250 121 Q256 122 261 122 Q266 122 271 117 Q300 89 303 51 Q303 39 300 35 Q297 31 286 29 Q220 18 161 11.5 Q102 5 42 11 Q29 16 27.5 27.5 Q26 39 26 50 Q28 186 28.5 301.5 Q29 417 25 530 Q25 546 27.5 549 Q30 552 45 557 Q68 565 91 566.5 Q114 568 137 567 Q157 566 154 548 Q149 499 146 442 Q143 385 141.5 327 Q140 269 139.5 213 Q139 157 139 110 Z M208 473 Q202 476 197 478.5 Q192 481 188 484 Q175 495 172 510 Q169 525 175 541 Q183 559 198.5 568 Q214 577 233 575 Q247 573 258 560.5 Q269 548 271 533 Q277 472 230 433 Q223 427 219 427.5 Q215 428 207 434 Q199 439 198.5 442.5 Q198 446 202 455 Q204 460 205 464 Q206 468 208 473 Z " />
<glyph glyph-name="lcaron" unicode="&#x13e;" horiz-adv-x="287" d="M67 555 Q83 557 99 557 Q115 557 131 557 Q142 556 145.5 552 Q149 548 149 537 Q148 482 147 438.5 Q146 395 145.5 353.5 Q145 312 144.5 270 Q144 228 144 176 Q145 162 144.5 147.5 Q144 133 145 121 Q146 109 149.5 101.5 Q153 94 161 95 Q175 97 177 84 Q178 72 179 61.5 Q180 51 180 38 Q181 33 176.5 27.5 Q172 22 167 20 Q154 13 131.5 10 Q109 7 87 11.5 Q65 16 48.5 31 Q32 46 32 76 Q32 146 32.5 204.5 Q33 263 33.5 316 Q34 369 34.5 420.5 Q35 472 35 529 Q36 549 44.5 552 Q53 555 67 555 Z M208 455 Q202 458 197 460.5 Q192 463 188 466 Q175 477 172 492 Q169 507 175 523 Q183 541 198.5 550 Q214 559 233 557 Q247 555 258 542.5 Q269 530 271 515 Q277 454 230 415 Q223 409 219 409.5 Q215 410 207 416 Q199 421 198.5 424.5 Q198 428 202 437 Q204 442 205 446 Q206 450 208 455 Z " />
<glyph glyph-name="Nacute" unicode="&#x143;" horiz-adv-x="429" d="M290 535 Q332 548 375 542 Q386 540 392 538.5 Q398 537 401 533.5 Q404 530 404 523.5 Q404 517 404 505 Q399 412 398.5 320 Q398 228 400 134 Q401 120 403 101 Q405 82 405 65.5 Q405 49 401 37 Q397 25 386 24 Q369 21 352 19 Q335 17 318 16 Q295 15 281 38 Q244 93 210.5 150.5 Q177 208 135 259 Q136 201 136.5 143.5 Q137 86 139 29 Q139 24 138.5 18.5 Q138 13 133 11 Q120 6 104 2.5 Q88 -1 73 -1 Q58 -1 46.5 3 Q35 7 32 16 Q25 146 27 268.5 Q29 391 26 513 Q26 524 28 527.5 Q30 531 40 534 Q71 544 104 543 Q116 543 123.5 538 Q131 533 136 522 Q206 376 289 244 Q295 317 295 389.5 Q295 462 290 535 Z M273 639 Q283 627 270 618 Q253 604 236.5 589.5 Q220 575 209 555 Q200 557 190 563.5 Q180 570 174 580 Q168 589 175 598 Q186 613 196 627.5 Q206 642 217 656 Q221 661 226.5 664 Q232 667 239 665 Q250 662 257.5 654.5 Q265 647 273 639 Z " />
<glyph glyph-name="nacute" unicode="&#x144;" horiz-adv-x="389" d="M137 372 Q155 384 172 395.5 Q189 407 206.5 414 Q224 421 243.5 422.5 Q263 424 285 418 Q311 408 324.5 386 Q338 364 344.5 337 Q351 310 352 282 Q353 254 355 233 Q357 188 357 144 Q357 100 358 55 Q358 40 354.5 36.5 Q351 33 336 28 Q303 19 267 22 Q256 24 252.5 27.5 Q249 31 251 42 Q256 102 254.5 161.5 Q253 221 244 281 Q240 294 232.5 297 Q225 300 216.5 296.5 Q208 293 200 286 Q192 279 187 272 Q172 253 161 225.5 Q150 198 144 167 Q138 136 136.5 104 Q135 72 139 43 Q141 32 140.5 22.5 Q140 13 127 11 Q84 2 45 19 Q33 24 30 29 Q27 34 28 48 Q30 123 32.5 196.5 Q35 270 32 345 Q31 358 30 370.5 Q29 383 27 395 Q26 408 37 414 Q49 418 66 424 Q83 430 98.5 431.5 Q114 433 125.5 428.5 Q137 424 137 408 L137 372 Z M254 520 Q264 508 251 499 Q234 485 217.5 470.5 Q201 456 190 436 Q181 438 171 444.5 Q161 451 155 461 Q149 470 156 479 Q167 494 177 508.5 Q187 523 198 537 Q202 542 207.5 545 Q213 548 220 546 Q231 543 238.5 535.5 Q246 528 254 520 Z " />
<glyph glyph-name="Ncaron" unicode="&#x147;" horiz-adv-x="429" d="M290 535 Q332 548 375 542 Q386 540 392 538.5 Q398 537 401 533.5 Q404 530 404 523.5 Q404 517 404 505 Q399 412 398.5 320 Q398 228 400 134 Q401 120 403 101 Q405 82 405 65.5 Q405 49 401 37 Q397 25 386 24 Q369 21 352 19 Q335 17 318 16 Q295 15 281 38 Q244 93 210.5 150.5 Q177 208 135 259 Q136 201 136.5 143.5 Q137 86 139 29 Q139 24 138.5 18.5 Q138 13 133 11 Q120 6 104 2.5 Q88 -1 73 -1 Q58 -1 46.5 3 Q35 7 32 16 Q25 146 27 268.5 Q29 391 26 513 Q26 524 28 527.5 Q30 531 40 534 Q71 544 104 543 Q116 543 123.5 538 Q131 533 136 522 Q206 376 289 244 Q295 317 295 389.5 Q295 462 290 535 Z M195 660 Q201 648 206 638 Q211 628 216 617 Q221 626 225.5 633.5 Q230 641 234 648 Q243 664 255 652 Q264 643 269 638.5 Q274 634 274.5 630 Q275 626 272.5 620.5 Q270 615 265 604 Q260 593 255.5 581 Q251 569 246 558 Q241 547 235 544.5 Q229 542 218 542 Q206 543 200 545.5 Q194 548 189 559 Q182 574 174.5 589 Q167 604 159 620 Q155 628 155 632 Q155 636 163 641 Q171 646 179 650.5 Q187 655 195 660 Z " />
<glyph glyph-name="ncaron" unicode="&#x148;" horiz-adv-x="389" d="M137 372 Q155 384 172 395.5 Q189 407 206.5 414 Q224 421 243.5 422.5 Q263 424 285 418 Q311 408 324.5 386 Q338 364 344.5 337 Q351 310 352 282 Q353 254 355 233 Q357 188 357 144 Q357 100 358 55 Q358 40 354.5 36.5 Q351 33 336 28 Q303 19 267 22 Q256 24 252.5 27.5 Q249 31 251 42 Q256 102 254.5 161.5 Q253 221 244 281 Q240 294 232.5 297 Q225 300 216.5 296.5 Q208 293 200 286 Q192 279 187 272 Q172 253 161 225.5 Q150 198 144 167 Q138 136 136.5 104 Q135 72 139 43 Q141 32 140.5 22.5 Q140 13 127 11 Q84 2 45 19 Q33 24 30 29 Q27 34 28 48 Q30 123 32.5 196.5 Q35 270 32 345 Q31 358 30 370.5 Q29 383 27 395 Q26 408 37 414 Q49 418 66 424 Q83 430 98.5 431.5 Q114 433 125.5 428.5 Q137 424 137 408 L137 372 Z M178 560 Q184 548 189 538 Q194 528 199 517 Q204 526 208.5 533.5 Q213 541 217 548 Q226 564 238 552 Q247 543 252 538.5 Q257 534 257.5 530 Q258 526 255.5 520.5 Q253 515 248 504 Q243 493 238.5 481 Q234 469 229 458 Q224 447 218 444.5 Q212 442 201 442 Q189 443 183 445.5 Q177 448 172 459 Q165 474 157.5 489 Q150 504 142 520 Q138 528 138 532 Q138 536 146 541 Q154 546 162 550.5 Q170 555 178 560 Z " />
<glyph glyph-name="Ohungarumlaut" unicode="&#x150;" horiz-adv-x="457" d="M28 388 Q35 421 51 449.5 Q67 478 90 500 Q113 522 141.5 536 Q170 550 203 553 Q258 557 300.5 540 Q343 523 373 491 Q403 459 419.5 414.5 Q436 370 439 320 Q440 275 432.5 228 Q425 181 407 140 Q389 99 358.5 67 Q328 35 283 19 Q199 -9 126 43 Q84 75 60.5 115 Q37 155 27 200 Q17 245 18 293 Q19 341 28 388 Z M153 291 Q154 253 164.5 218 Q175 183 203 160 Q222 145 242 145.5 Q262 146 281 161 Q306 186 318.5 220.5 Q331 255 331.5 291 Q332 327 319.5 360.5 Q307 394 282 417 Q265 433 244.5 433.5 Q224 434 205 420 Q176 395 164.5 360.5 Q153 326 153 291 Z M218 678 Q223 676 231 670 Q239 664 245 657 Q251 650 251.5 642.5 Q252 635 243 629 Q224 618 206 606.5 Q188 595 174 576 Q169 577 161.5 582.5 Q154 588 149 595 Q144 602 142.5 610 Q141 618 147 624 Q160 637 172 649.5 Q184 662 197 675 Q206 684 218 678 Z M307 660 Q311 657 318.5 650 Q326 643 331.5 635 Q337 627 336.5 619.5 Q336 612 326 608 Q306 600 286.5 591 Q267 582 250 565 Q244 567 237.5 573.5 Q231 580 227 587.5 Q223 595 223 603 Q223 611 230 616 Q244 627 258 638 Q272 649 286 660 Q296 667 307 660 Z " />
<glyph glyph-name="ohungarumlaut" unicode="&#x151;" horiz-adv-x="400" d="M336 75 Q314 48 286 32.5 Q258 17 227.5 13.5 Q197 10 166 18 Q135 26 107 46 Q72 71 51 108.5 Q30 146 24 187 Q18 228 26.5 269.5 Q35 311 61 346 Q88 379 122 396 Q156 413 192 414 Q228 415 262.5 401 Q297 387 324 358 Q351 328 365 291.5 Q379 255 380.5 217 Q382 179 370.5 142 Q359 105 336 75 Z M147 235 Q146 206 164.5 186 Q183 166 209 168 Q231 171 247 184 Q263 197 271 215 Q279 233 277.5 253 Q276 273 264 290 Q247 311 226.5 312 Q206 313 188.5 302.5 Q171 292 159 273.5 Q147 255 147 235 Z M195 540 Q200 538 208 532 Q216 526 222 519 Q228 512 228.5 504.5 Q229 497 220 491 Q201 480 183 468.5 Q165 457 151 438 Q146 439 138.5 444.5 Q131 450 126 457 Q121 464 119.5 472 Q118 480 124 486 Q137 499 149 511.5 Q161 524 174 537 Q183 546 195 540 Z M284 522 Q288 519 295.5 512 Q303 505 308.5 497 Q314 489 313.5 481.5 Q313 474 303 470 Q283 462 263.5 453 Q244 444 227 427 Q221 429 214.5 435.5 Q208 442 204 449.5 Q200 457 200 465 Q200 473 207 478 Q221 489 235 500 Q249 511 263 522 Q273 529 284 522 Z " />
<glyph glyph-name="Racute" unicode="&#x154;" horiz-adv-x="404" d="M278 153 Q299 138 320 126.5 Q341 115 363 105 Q380 97 383 90 Q386 83 378 66 Q371 50 361.5 36.5 Q352 23 338 12 Q330 5 321 3 Q312 1 302 6 Q281 13 262 25.5 Q243 38 224.5 51.5 Q206 65 188.5 78.5 Q171 92 153 103 Q155 89 155.5 76.5 Q156 64 158 51 Q160 38 156.5 33.5 Q153 29 141 27 Q122 25 103.5 25 Q85 25 66 32 Q48 40 45 60 Q37 120 34.5 177.5 Q32 235 32.5 291 Q33 347 35 402.5 Q37 458 39 514 Q40 526 46.5 532.5 Q53 539 62.5 542.5 Q72 546 82.5 547 Q93 548 102 549 Q151 552 196.5 545 Q242 538 278.5 518.5 Q315 499 340.5 466 Q366 433 375 384 Q380 347 375 315 Q370 283 356.5 254.5 Q343 226 322.5 201 Q302 176 278 153 Z M149 434 L149 221 Q171 221 193.5 233 Q216 245 234 264 Q252 283 262.5 306.5 Q273 330 270 352 Q267 379 254.5 397.5 Q242 416 224 426 Q206 436 186 438 Q166 440 149 434 Z M251 649 Q261 637 248 628 Q231 614 214.5 599.5 Q198 585 187 565 Q178 567 168 573.5 Q158 580 152 590 Q146 599 153 608 Q164 623 174 637.5 Q184 652 195 666 Q199 671 204.5 674 Q210 677 217 675 Q228 672 235.5 664.5 Q243 657 251 649 Z " />
<glyph glyph-name="racute" unicode="&#x155;" horiz-adv-x="286" d="M144 344 Q170 371 194 390.5 Q218 410 250 423 Q266 429 274 422 Q282 415 285.5 402.5 Q289 390 289.5 376 Q290 362 290 353 Q288 336 280.5 325.5 Q273 315 253 311 Q205 300 181 275.5 Q157 251 150 216 Q146 198 146 175 Q146 152 147.5 128.5 Q149 105 151.5 83 Q154 61 156 43 Q158 30 146.5 23.5 Q135 17 119 14 Q103 11 87 11 Q71 11 65 12 Q54 13 51.5 15.5 Q49 18 47 29 Q36 120 35 204 Q34 288 33 373 Q33 388 34 397 Q35 406 39.5 410.5 Q44 415 52.5 417 Q61 419 76 421 Q87 422 100 422.5 Q113 423 124 420 Q135 417 142 409.5 Q149 402 148 389 Q146 378 146 366.5 Q146 355 144 344 Z M197 525 Q207 513 194 504 Q177 490 160.5 475.5 Q144 461 133 441 Q124 443 114 449.5 Q104 456 98 466 Q92 475 99 484 Q110 499 120 513.5 Q130 528 141 542 Q145 547 150.5 550 Q156 553 163 551 Q174 548 181.5 540.5 Q189 533 197 525 Z " />
<glyph glyph-name="Rcaron" unicode="&#x158;" horiz-adv-x="404" d="M278 153 Q299 138 320 126.5 Q341 115 363 105 Q380 97 383 90 Q386 83 378 66 Q371 50 361.5 36.5 Q352 23 338 12 Q330 5 321 3 Q312 1 302 6 Q281 13 262 25.5 Q243 38 224.5 51.5 Q206 65 188.5 78.5 Q171 92 153 103 Q155 89 155.5 76.5 Q156 64 158 51 Q160 38 156.5 33.5 Q153 29 141 27 Q122 25 103.5 25 Q85 25 66 32 Q48 40 45 60 Q37 120 34.5 177.5 Q32 235 32.5 291 Q33 347 35 402.5 Q37 458 39 514 Q40 526 46.5 532.5 Q53 539 62.5 542.5 Q72 546 82.5 547 Q93 548 102 549 Q151 552 196.5 545 Q242 538 278.5 518.5 Q315 499 340.5 466 Q366 433 375 384 Q380 347 375 315 Q370 283 356.5 254.5 Q343 226 322.5 201 Q302 176 278 153 Z M149 434 L149 221 Q171 221 193.5 233 Q216 245 234 264 Q252 283 262.5 306.5 Q273 330 270 352 Q267 379 254.5 397.5 Q242 416 224 426 Q206 436 186 438 Q166 440 149 434 Z M175 680 Q181 668 186 658 Q191 648 196 637 Q201 646 205.5 653.5 Q210 661 214 668 Q223 684 235 672 Q244 663 249 658.5 Q254 654 254.5 650 Q255 646 252.5 640.5 Q250 635 245 624 Q240 613 235.5 601 Q231 589 226 578 Q221 567 215 564.5 Q209 562 198 562 Q186 563 180 565.5 Q174 568 169 579 Q162 594 154.5 609 Q147 624 139 640 Q135 648 135 652 Q135 656 143 661 Q151 666 159 670.5 Q167 675 175 680 Z " />
<glyph glyph-name="rcaron" unicode="&#x159;" horiz-adv-x="286" d="M144 344 Q170 371 194 390.5 Q218 410 250 423 Q266 429 274 422 Q282 415 285.5 402.5 Q289 390 289.5 376 Q290 362 290 353 Q288 336 280.5 325.5 Q273 315 253 311 Q205 300 181 275.5 Q157 251 150 216 Q146 198 146 175 Q146 152 147.5 128.5 Q149 105 151.5 83 Q154 61 156 43 Q158 30 146.5 23.5 Q135 17 119 14 Q103 11 87 11 Q71 11 65 12 Q54 13 51.5 15.5 Q49 18 47 29 Q36 120 35 204 Q34 288 33 373 Q33 388 34 397 Q35 406 39.5 410.5 Q44 415 52.5 417 Q61 419 76 421 Q87 422 100 422.5 Q113 423 124 420 Q135 417 142 409.5 Q149 402 148 389 Q146 378 146 366.5 Q146 355 144 344 Z M128 570 Q134 558 139 548 Q144 538 149 527 Q154 536 158.5 543.5 Q163 551 167 558 Q176 574 188 562 Q197 553 202 548.5 Q207 544 207.5 540 Q208 536 205.5 530.5 Q203 525 198 514 Q193 503 188.5 491 Q184 479 179 468 Q174 457 168 454.5 Q162 452 151 452 Q139 453 133 455.5 Q127 458 122 469 Q115 484 107.5 499 Q100 514 92 530 Q88 538 88 542 Q88 546 96 551 Q104 556 112 560.5 Q120 565 128 570 Z " />
<glyph glyph-name="Sacute" unicode="&#x15a;" horiz-adv-x="401" d="M109 188 Q115 177 120 168 Q125 159 130 150 Q137 137 150.5 128 Q164 119 179.5 114 Q195 109 211 108 Q227 107 241 112 Q260 120 268.5 134.5 Q277 149 275.5 164 Q274 179 263 192.5 Q252 206 232 213 Q218 218 204 222.5 Q190 227 176 232 Q148 242 122.5 254.5 Q97 267 77 284.5 Q57 302 45 325.5 Q33 349 33 381 Q33 432 53.5 468 Q74 504 108 525.5 Q142 547 184 553 Q226 559 268 549 Q290 542 312.5 531.5 Q335 521 348 510 Q355 505 356.5 499 Q358 493 356 485 Q350 463 341.5 443.5 Q333 424 320 407 Q312 397 307.5 397 Q303 397 295 406 Q281 421 266 432.5 Q251 444 231 449 Q201 455 175 440 Q155 427 151.5 405.5 Q148 384 165 367 Q180 354 196.5 344.5 Q213 335 230.5 327.5 Q248 320 265 312.5 Q282 305 298 296 Q339 274 359 243 Q379 212 382 178.5 Q385 145 372.5 112.5 Q360 80 335 55 Q310 30 275 15.5 Q240 1 198 4 Q136 8 91.5 38 Q47 68 21 119 Q19 124 20.5 129.5 Q22 135 26 138 Q40 151 61.5 166 Q83 181 109 188 Z M251 648 Q261 636 248 627 Q231 613 214.5 598.5 Q198 584 187 564 Q178 566 168 572.5 Q158 579 152 589 Q146 598 153 607 Q164 622 174 636.5 Q184 651 195 665 Q199 670 204.5 673 Q210 676 217 674 Q228 671 235.5 663.5 Q243 656 251 648 Z " />
<glyph glyph-name="sacute" unicode="&#x15b;" horiz-adv-x="298" d="M165 3 Q127 4 93.5 14.5 Q60 25 33 51 Q22 61 16.5 67.5 Q11 74 10 80.5 Q9 87 11.5 95 Q14 103 19 115 Q22 122 29.5 135 Q37 148 47 158.5 Q57 169 67 172.5 Q77 176 86 165 Q92 158 101.5 150.5 Q111 143 122.5 136.5 Q134 130 145 126 Q156 122 165 122 Q185 123 179 144 Q176 153 168 161 Q160 169 150 175.5 Q140 182 129 188 Q118 194 109 199 Q53 221 37.5 261 Q22 301 36 344 Q51 379 77.5 400.5 Q104 422 136.5 430 Q169 438 203.5 432 Q238 426 270 406 Q280 399 279 386 Q277 364 271 344 Q265 324 252 305 Q245 295 240.5 294.5 Q236 294 228 303 Q211 320 185 328 Q175 330 164 327.5 Q153 325 150 314 Q147 301 157 294 Q167 287 175 281 Q210 258 238.5 233.5 Q267 209 281 169 Q291 137 286 107.5 Q281 78 264.5 54.5 Q248 31 222 17 Q196 3 165 3 Z M208 530 Q218 518 205 509 Q188 495 171.5 480.5 Q155 466 144 446 Q135 448 125 454.5 Q115 461 109 471 Q103 480 110 489 Q121 504 131 518.5 Q141 533 152 547 Q156 552 161.5 555 Q167 558 174 556 Q185 553 192.5 545.5 Q200 538 208 530 Z " />
<glyph glyph-name="Tcaron" unicode="&#x164;" horiz-adv-x="386" d="M137 450 Q109 445 85.5 438.5 Q62 432 41 432 Q28 430 21.5 441 Q15 452 12.5 468 Q10 484 10.5 499.5 Q11 515 13 521 Q15 535 18.5 539 Q22 543 36 545 Q118 555 197 557.5 Q276 560 357 554 Q374 551 375 535 Q376 525 376.5 509 Q377 493 374 478 Q371 463 364 452.5 Q357 442 343 443 Q303 446 282 448 Q261 450 244 450 Q242 341 242 235.5 Q242 130 251 30 Q253 16 252 10.5 Q251 5 237 3 Q214 -1 189.5 -3 Q165 -5 142 -2 L139 -2 Q122 0 119 4 Q116 8 118 25 Q129 125 133 234 Q137 343 137 450 Z M168 686 Q174 674 179 664 Q184 654 189 643 Q194 652 198.5 659.5 Q203 667 207 674 Q216 690 228 678 Q237 669 242 664.5 Q247 660 247.5 656 Q248 652 245.5 646.5 Q243 641 238 630 Q233 619 228.5 607 Q224 595 219 584 Q214 573 208 570.5 Q202 568 191 568 Q179 569 173 571.5 Q167 574 162 585 Q155 600 147.5 615 Q140 630 132 646 Q128 654 128 658 Q128 662 136 667 Q144 672 152 676.5 Q160 681 168 686 Z " />
<glyph glyph-name="tcaron" unicode="&#x165;" horiz-adv-x="346" d="M173 439 Q195 441 201 435.5 Q207 430 209 409 Q210 383 209 358 Q207 343 201 338 Q195 333 180 334 L165 334 Q163 323 162.5 300.5 Q162 278 162.5 252.5 Q163 227 164 204.5 Q165 182 166 172 Q171 136 202 122 Q217 114 217 98 Q217 83 216.5 67.5 Q216 52 215 36 Q214 18 194 12 Q183 10 169.5 10 Q156 10 141.5 13.5 Q127 17 114 24.5 Q101 32 92 44 Q71 71 61.5 107 Q52 143 49 182 Q46 221 47 259 Q48 297 48 328 Q43 329 38 327 Q33 325 28.5 325.5 Q24 326 21 332 Q18 338 17 355 Q16 368 17 380.5 Q18 393 20 406 Q22 417 25 420.5 Q28 424 40 424 Q46 424 51 425 Q53 437 53.5 449 Q54 461 55 473 Q55 493 72 497 Q93 505 115 509 Q137 513 160 513 Q171 513 175.5 508.5 Q180 504 179 492 Q177 478 176 465.5 Q175 453 173 439 Z M270 415 Q264 418 259 420.5 Q254 423 250 426 Q237 437 234 452 Q231 467 237 483 Q245 501 260.5 510 Q276 519 295 517 Q309 515 320 502.5 Q331 490 333 475 Q339 414 292 375 Q285 369 281 369.5 Q277 370 269 376 Q261 381 260.5 384.5 Q260 388 264 397 Q266 402 267 406 Q268 410 270 415 Z " />
<glyph glyph-name="Uring" unicode="&#x16e;" horiz-adv-x="436" d="M20 504 Q21 514 22.5 521.5 Q24 529 33 533 Q73 548 118 543 Q132 541 136.5 535.5 Q141 530 140 517 Q138 475 135.5 430.5 Q133 386 132 342.5 Q131 299 134 258 Q137 217 145 183 Q148 173 152 161.5 Q156 150 163 140.5 Q170 131 181 125 Q192 119 209 119 Q225 119 236 128.5 Q247 138 254.5 152 Q262 166 266 182.5 Q270 199 273 213 Q284 275 285.5 345.5 Q287 416 287 483 Q286 502 285.5 518 Q285 534 303 541 Q326 549 351.5 547 Q377 545 400 540 Q411 537 414.5 533 Q418 529 418 517 Q416 476 416.5 422 Q417 368 413.5 310.5 Q410 253 400 197.5 Q390 142 367.5 98.5 Q345 55 306 28.5 Q267 2 207 3 Q149 4 112.5 30.5 Q76 57 55 99.5 Q34 142 25.5 196 Q17 250 15.5 305.5 Q14 361 16.5 413 Q19 465 20 504 Z M274 602 Q274 579 257 562 Q240 545 217 546 Q194 548 178 564.5 Q162 581 163 604 Q163 627 180 642.5 Q197 658 220 657 Q243 657 258.5 641 Q274 625 274 602 Z M217 617 Q210 617 207.5 611.5 Q205 606 207 601 Q210 592 218 592 Q222 592 224.5 596.5 Q227 601 227 606 Q227 610 224.5 613.5 Q222 617 217 617 Z " />
<glyph glyph-name="uring" unicode="&#x16f;" horiz-adv-x="366" d="M159 179 Q169 155 180.5 148.5 Q192 142 203 147.5 Q214 153 222.5 168 Q231 183 234 202 Q244 249 246 295 Q248 341 246 388 Q245 408 249 412.5 Q253 417 274 418 Q301 419 326 418 Q343 417 347.5 412.5 Q352 408 353 391 Q353 360 353.5 321 Q354 282 350.5 240.5 Q347 199 338.5 158.5 Q330 118 313 85.5 Q296 53 268 31.5 Q240 10 198 7 Q154 10 124 31 Q94 52 75.5 83.5 Q57 115 47.5 154 Q38 193 34.5 233.5 Q31 274 32 313 Q33 352 35 382 Q38 401 55 407 Q69 412 84 414 Q99 416 114 417 Q143 416 143 392 Q143 360 143 328.5 Q143 297 144.5 269.5 Q146 242 149 218.5 Q152 195 159 179 Z M249 484 Q249 461 232 444 Q215 427 192 428 Q169 430 153 446.5 Q137 463 138 486 Q138 509 155 524.5 Q172 540 195 539 Q218 539 233.5 523 Q249 507 249 484 Z M192 499 Q185 499 182.5 493.5 Q180 488 182 483 Q185 474 193 474 Q197 474 199.5 478.5 Q202 483 202 488 Q202 492 199.5 495.5 Q197 499 192 499 Z " />
<glyph glyph-name="Uhungarumlaut" unicode="&#x170;" horiz-adv-x="436" d="M20 504 Q21 514 22.5 521.5 Q24 529 33 533 Q73 548 118 543 Q132 541 136.5 535.5 Q141 530 140 517 Q138 475 135.5 430.5 Q133 386 132 342.5 Q131 299 134 258 Q137 217 145 183 Q148 173 152 161.5 Q156 150 163 140.5 Q170 131 181 125 Q192 119 209 119 Q225 119 236 128.5 Q247 138 254.5 152 Q262 166 266 182.5 Q270 199 273 213 Q284 275 285.5 345.5 Q287 416 287 483 Q286 502 285.5 518 Q285 534 303 541 Q326 549 351.5 547 Q377 545 400 540 Q411 537 414.5 533 Q418 529 418 517 Q416 476 416.5 422 Q417 368 413.5 310.5 Q410 253 400 197.5 Q390 142 367.5 98.5 Q345 55 306 28.5 Q267 2 207 3 Q149 4 112.5 30.5 Q76 57 55 99.5 Q34 142 25.5 196 Q17 250 15.5 305.5 Q14 361 16.5 413 Q19 465 20 504 Z M201 675 Q206 673 214 667 Q222 661 228 654 Q234 647 234.5 639.5 Q235 632 226 626 Q207 615 189 603.5 Q171 592 157 573 Q152 574 144.5 579.5 Q137 585 132 592 Q127 599 125.5 607 Q124 615 130 621 Q143 634 155 646.5 Q167 659 180 672 Q189 681 201 675 Z M290 657 Q294 654 301.5 647 Q309 640 314.5 632 Q320 624 319.5 616.5 Q319 609 309 605 Q289 597 269.5 588 Q250 579 233 562 Q227 564 220.5 570.5 Q214 577 210 584.5 Q206 592 206 600 Q206 608 213 613 Q227 624 241 635 Q255 646 269 657 Q279 664 290 657 Z " />
<glyph glyph-name="uhungarumlaut" unicode="&#x171;" horiz-adv-x="366" d="M159 179 Q169 155 180.5 148.5 Q192 142 203 147.5 Q214 153 222.5 168 Q231 183 234 202 Q244 249 246 295 Q248 341 246 388 Q245 408 249 412.5 Q253 417 274 418 Q301 419 326 418 Q343 417 347.5 412.5 Q352 408 353 391 Q353 360 353.5 321 Q354 282 350.5 240.5 Q347 199 338.5 158.5 Q330 118 313 85.5 Q296 53 268 31.5 Q240 10 198 7 Q154 10 124 31 Q94 52 75.5 83.5 Q57 115 47.5 154 Q38 193 34.5 233.5 Q31 274 32 313 Q33 352 35 382 Q38 401 55 407 Q69 412 84 414 Q99 416 114 417 Q143 416 143 392 Q143 360 143 328.5 Q143 297 144.5 269.5 Q146 242 149 218.5 Q152 195 159 179 Z M173 540 Q178 538 186 532 Q194 526 200 519 Q206 512 206.5 504.5 Q207 497 198 491 Q179 480 161 468.5 Q143 457 129 438 Q124 439 116.5 444.5 Q109 450 104 457 Q99 464 97.5 472 Q96 480 102 486 Q115 499 127 511.5 Q139 524 152 537 Q161 546 173 540 Z M262 522 Q266 519 273.5 512 Q281 505 286.5 497 Q292 489 291.5 481.5 Q291 474 281 470 Q261 462 241.5 453 Q222 444 205 427 Q199 429 192.5 435.5 Q186 442 182 449.5 Q178 457 178 465 Q178 473 185 478 Q199 489 213 500 Q227 511 241 522 Q251 529 262 522 Z " />
<glyph glyph-name="Uogonek" unicode="&#x172;" horiz-adv-x="436" d="M20 504 Q21 514 22.5 521.5 Q24 529 33 533 Q73 548 118 543 Q132 541 136.5 535.5 Q141 530 140 517 Q138 475 135.5 430.5 Q133 386 132 342.5 Q131 299 134 258 Q137 217 145 183 Q148 173 152 161.5 Q156 150 163 140.5 Q170 131 181 125 Q192 119 209 119 Q225 119 236 128.5 Q247 138 254.5 152 Q262 166 266 182.5 Q270 199 273 213 Q284 275 285.5 345.5 Q287 416 287 483 Q286 502 285.5 518 Q285 534 303 541 Q326 549 351.5 547 Q377 545 400 540 Q411 537 414.5 533 Q418 529 418 517 Q416 476 416.5 422 Q417 368 413.5 310.5 Q410 253 400 197.5 Q390 142 367.5 98.5 Q345 55 306 28.5 Q267 2 207 3 Q149 4 112.5 30.5 Q76 57 55 99.5 Q34 142 25.5 196 Q17 250 15.5 305.5 Q14 361 16.5 413 Q19 465 20 504 Z M335 69 Q338 36 336 0.5 Q334 -35 340 -57 Q344 -68 348.5 -64 Q353 -60 354 -48 Q355 -41 355.5 -34 Q356 -27 356 -20 Q357 -8 369 -7 Q394 -4 402.5 -9 Q411 -14 410 -40 Q410 -54 407.5 -69 Q405 -84 399 -97 Q391 -114 378 -122.5 Q365 -131 351 -132 Q337 -133 323 -127 Q309 -121 300 -109 Q289 -95 284 -76 Q279 -57 277.5 -36 Q276 -15 277 6 Q278 27 279 47 Q279 59 291 62 Q302 64 312.5 65.5 Q323 67 335 69 Z " />
<glyph glyph-name="uogonek" unicode="&#x173;" horiz-adv-x="366" d="M159 179 Q169 155 180.5 148.5 Q192 142 203 147.5 Q214 153 222.5 168 Q231 183 234 202 Q244 249 246 295 Q248 341 246 388 Q245 408 249 412.5 Q253 417 274 418 Q301 419 326 418 Q343 417 347.5 412.5 Q352 408 353 391 Q353 360 353.5 321 Q354 282 350.5 240.5 Q347 199 338.5 158.5 Q330 118 313 85.5 Q296 53 268 31.5 Q240 10 198 7 Q154 10 124 31 Q94 52 75.5 83.5 Q57 115 47.5 154 Q38 193 34.5 233.5 Q31 274 32 313 Q33 352 35 382 Q38 401 55 407 Q69 412 84 414 Q99 416 114 417 Q143 416 143 392 Q143 360 143 328.5 Q143 297 144.5 269.5 Q146 242 149 218.5 Q152 195 159 179 Z M290 69 Q293 36 291 0.5 Q289 -35 295 -57 Q299 -68 303.5 -64 Q308 -60 309 -48 Q310 -41 310.5 -34 Q311 -27 311 -20 Q312 -8 324 -7 Q349 -4 357.5 -9 Q366 -14 365 -40 Q365 -54 362.5 -69 Q360 -84 354 -97 Q346 -114 333 -122.5 Q320 -131 306 -132 Q292 -133 278 -127 Q264 -121 255 -109 Q244 -95 239 -76 Q234 -57 232.5 -36 Q231 -15 232 6 Q233 27 234 47 Q234 59 246 62 Q257 64 267.5 65.5 Q278 67 290 69 Z " />
<glyph glyph-name="Zdotaccent" unicode="&#x17b;" horiz-adv-x="357" d="M219 434 Q169 428 125.5 419.5 Q82 411 37 400 Q34 409 31 417 Q28 425 26 433 Q24 446 20.5 461 Q17 476 16.5 489 Q16 502 21 512 Q26 522 40 525 Q97 536 148 542.5 Q199 549 250 558 Q283 564 304 539 Q319 520 330 500 Q341 480 350 458 Q353 450 351 443 Q349 436 344 428 Q296 354 241.5 277.5 Q187 201 146 123 Q185 127 225 126.5 Q265 126 302 128 Q325 129 332 122.5 Q339 116 341 92 Q344 63 333 32 Q328 21 323.5 17.5 Q319 14 306 15 Q241 16 184 17.5 Q127 19 72 11 Q54 9 47 23 Q33 49 26 75 Q19 101 21 130 Q40 171 63.5 210 Q87 249 113.5 286.5 Q140 324 167 360.5 Q194 397 219 434 Z M144 605 Q143 619 154.5 632 Q166 645 185 644 Q201 642 212 631.5 Q223 621 223 605 Q223 588 210.5 576 Q198 564 181 565 Q165 566 154.5 577 Q144 588 144 605 Z " />
<glyph glyph-name="zdotaccent" unicode="&#x17c;" horiz-adv-x="330" d="M299 315 Q266 262 233 212 Q200 162 160 114 Q186 114 213 115 Q240 116 266 116 Q277 116 280.5 113 Q284 110 287 101 Q293 78 291.5 57 Q290 36 282 14 Q225 12 174 9.5 Q123 7 72 -1 Q60 -3 54 8 Q43 28 34.5 48 Q26 68 21 91 Q20 94 21 98 Q22 102 24 105 Q58 160 94.5 213 Q131 266 176 314 Q143 312 113 305 Q83 298 53 290 Q42 307 37 324 Q32 341 30 360 Q28 377 29 384.5 Q30 392 33.5 395.5 Q37 399 44 400.5 Q51 402 62 406 Q104 416 145.5 419 Q187 422 229 422 Q249 422 262 406 Q269 397 276.5 384 Q284 371 290 357.5 Q296 344 299 332.5 Q302 321 299 315 Z M131 479 Q130 493 141.5 506 Q153 519 172 518 Q188 516 199 505.5 Q210 495 210 479 Q210 462 197.5 450 Q185 438 168 439 Q152 440 141.5 451 Q131 462 131 479 Z " />
<glyph glyph-name="Aogonek" unicode="&#x104;" horiz-adv-x="436" d="M296 120 Q222 127 154 114 Q142 111 139 99 Q134 79 128.5 59 Q123 39 118 19 Q114 7 110.5 4.5 Q107 2 96 8 Q76 19 56.5 30.5 Q37 42 17 54 Q6 60 12 73 Q50 162 83 249.5 Q116 337 147 426 Q163 472 177 524 Q183 543 200 544 Q221 546 241.5 547 Q262 548 283 548 Q296 548 300.5 544 Q305 540 308 526 Q333 402 359 288 Q385 174 423 64 Q427 52 417 46 Q394 34 374 25.5 Q354 17 334 9 Q321 4 317 7 Q313 10 311 24 Q307 48 303.5 71.5 Q300 95 296 120 Z M238 370 L233 370 Q219 332 205 294.5 Q191 257 177 219 Q203 217 226.5 219 Q250 221 275 223 Q266 261 256.5 297.5 Q247 334 238 370 Z M372 43 Q375 10 373 -25.5 Q371 -61 377 -83 Q381 -94 385.5 -90 Q390 -86 391 -74 Q392 -67 392.5 -60 Q393 -53 393 -46 Q394 -34 406 -33 Q431 -30 439.5 -35 Q448 -40 447 -66 Q447 -80 444.5 -95 Q442 -110 436 -123 Q428 -140 415 -148.5 Q402 -157 388 -158 Q374 -159 360 -153 Q346 -147 337 -135 Q326 -121 321 -102 Q316 -83 314.5 -62 Q313 -41 314 -20 Q315 1 316 21 Q316 33 328 36 Q339 38 349.5 39.5 Q360 41 372 43 Z " />
<glyph glyph-name="exclam" unicode="&#x21;" horiz-adv-x="202" d="M53 178 Q53 271 47 350.5 Q41 430 38 508 Q37 519 39.5 523.5 Q42 528 52 531 Q78 539 100.5 538 Q123 537 147 532 Q157 530 160 526 Q163 522 161 511 Q153 417 148 326.5 Q143 236 140 145 Q140 136 138 133.5 Q136 131 128 130 Q112 129 96 128.5 Q80 128 64 127 Q53 123 53 134.5 Q53 146 53 178 Z M96 11 Q76 11 62.5 24.5 Q49 38 49 58 Q49 78 63 91.5 Q77 105 97 105 Q117 105 130 91.5 Q143 78 143 58 Q144 38 130 24.5 Q116 11 96 11 Z " />
<glyph glyph-name="numbersign" unicode="&#x23;" horiz-adv-x="485" d="M379 536 Q374 497 370 464.5 Q366 432 366 401 L414 401 Q427 400 430 397 Q433 394 434 382 Q436 360 437.5 338.5 Q439 317 444 295 Q445 286 440.5 282 Q436 278 426 277.5 Q416 277 399.5 277.5 Q383 278 359 278 Q358 270 358 261.5 Q358 253 357 243 Q370 243 381.5 243 Q393 243 404 242 Q419 241 422.5 238.5 Q426 236 429 223 Q433 206 437 190 Q441 174 444 157 Q448 145 445 140 Q442 135 434.5 134.5 Q427 134 417.5 135.5 Q408 137 401 137 Q391 137 380.5 137.5 Q370 138 359 139 Q361 128 364 106 Q367 84 368 62 Q369 40 367 23.5 Q365 7 357 7 Q355 7 352 6.5 Q349 6 346 6 L291 6 Q276 7 271.5 10.5 Q267 14 265 28 Q262 59 260 86 Q258 113 254 139 L205 139 Q206 124 206.5 110.5 Q207 97 209 83 Q210 71 208 68 Q206 65 194 62 Q177 58 159.5 54 Q142 50 125 45 Q115 43 111.5 45 Q108 47 107 56 Q105 77 104.5 96 Q104 115 101 134 Q90 132 80 131.5 Q70 131 60 129 Q48 127 44 130.5 Q40 134 39 145 Q37 158 36.5 170.5 Q36 183 34 195 Q33 208 36.5 212 Q40 216 52 218 Q63 220 74 222 Q85 224 96 226 L96 275 Q82 273 69.5 271 Q57 269 46 269 Q33 267 28.5 271 Q24 275 24 288 Q25 302 26 314.5 Q27 327 28 341 Q28 359 45 362 Q58 364 70 367.5 Q82 371 96 374 Q98 390 97.5 402.5 Q97 415 99 439 Q98 456 115 461 Q135 469 154.5 474.5 Q174 480 194 485 Q203 487 213 487 Q223 487 221 474 Q220 452 217.5 431.5 Q215 411 215 390 Q225 391 233.5 392 Q242 393 252 394 Q254 424 254.5 453 Q255 482 257 511 Q258 524 260.5 527 Q263 530 276 534 L354 555 Q368 560 374.5 555 Q381 550 379 536 Z M208 239 Q219 240 229.5 241 Q240 242 250 243 L250 278 L208 278 L208 239 Z " />
<glyph glyph-name="quotedbl" unicode="&#x22;" horiz-adv-x="278" d="M70 506 Q45 515 37 534.5 Q29 554 37 574 Q45 592 60.5 601 Q76 610 95 608 Q109 606 120 593.5 Q131 581 133 566 Q139 505 92 466 Q85 460 81 460.5 Q77 461 69 467 Q61 472 60.5 475.5 Q60 479 64 488 Q66 493 67 497 Q68 501 70 506 Z M182 506 Q157 515 149 534.5 Q141 554 149 574 Q157 592 172.5 601 Q188 610 207 608 Q221 606 232 593.5 Q243 581 245 566 Q251 505 204 466 Q197 460 193 460.5 Q189 461 181 467 Q173 472 172.5 475.5 Q172 479 176 488 Q178 493 179 497 Q180 501 182 506 Z " />
</font>
</svg>
